<?xml version="1.0" encoding="utf-8"?>
<!-- Generator: Adobe Illustrator 18.1.1, SVG Export Plug-In . SVG Version: 6.00 Build 0)  -->
<svg version="1.2" baseProfile="tiny" id="Layer_1" xmlns="http://www.w3.org/2000/svg" xmlns:xlink="http://www.w3.org/1999/xlink"
	 x="0px" y="0px" width="1920px" height="1080px" viewBox="0 0 1920 1080" xml:space="preserve">
<g>
	<g>
		<path fill="none" stroke="#FF0000" stroke-width="10" stroke-linecap="round" stroke-linejoin="round" stroke-miterlimit="10" d="
			M50.8,986C50.8,984.3,50.8,987.8,50.8,986c2-147.8,40.7-300.7,119.8-437.8c80.1-138.7,191.8-247.9,320.7-323.5l0.1,0
			c6.2-4.1,14.5-2.4,18.6,3.8c4.1,6.2,2.4,14.5-3.8,18.6c-28.6,16.8-58,36.3-84.8,56.5C329,373.5,252.4,460.3,193.9,561.6
			S98.5,772.7,84.2,887.8c-4,32.2-6.2,66-6.6,98.2l0,0c0,7.4,6,13.4,13.4,13.4s13.4-6,13.4-13.4v0c0.3-31.6,2.4-63.3,6.4-94.9
			c13.8-111.5,49.6-217.9,106.3-316.1S348,392.7,437.7,325c26.4-19.9,48.5-35,76.8-51.6c6.2-4.1,14.5-2.4,18.6,3.8
			c4.1,6.2,2.4,14.5-3.8,18.6l-1,0.6c-25.6,15.3-50.5,32-74.5,50.1c-86.8,65.6-158.6,147-213.5,242.1s-89.5,198-102.9,305.9
			c-3.8,30.6-5.8,61.1-6.2,91.6v0c0,7.4,6,13.4,13.4,13.4c7.4,0,13.4-6,13.4-13.4l0,0c0.2-30.2,2.2-58.1,6-88.3
			c12.9-104.3,46.4-203.9,99.5-295.8s122.5-170.7,206.4-234.1c24.8-18.7,50.5-35.9,77.1-51.5l-1.6,1c6.2-4.1,14.5-2.4,18.6,3.8
			c4.1,6.2,2.4,14.5-3.8,18.6l-1.8,1.1c-25,14.7-49.1,30.9-72.4,48.5c-81,61.2-148.1,137.3-199.4,226.1S203.3,800.3,190.8,901
			c-3.5,28.5-5.5,56.5-5.8,85"/>
	</g>
	<g>
		<path fill="none" stroke="#00FF00" stroke-width="10" stroke-linecap="round" stroke-linejoin="round" stroke-miterlimit="10" d="
			M1416.8,204.2c-1.5-0.9-3-1.7-4.5-2.6c-129-72.2-277.7-113.4-436-113.4c-160.2,0-311.9,43-441.9,116.9l-0.8,0.6
			c-5.5,3.2-7,10.9-3.2,17.3c3.8,6.4,12,8.5,18.4,4.7l0.6-0.4c28.9-16.4,58.8-31.1,89.7-44.2C745.7,138,859.2,115,976.2,115
			s230.5,22.9,337.3,68.1c29.9,12.7,59,26.9,87.1,42.7l0.9,0.4c6.4,3.7,8.7,11.9,5,18.3c-3.7,6.4-11.9,8.7-18.3,5l0.4,0.3
			c-27.6-15.5-56.1-29.5-85.5-42c-103.5-43.8-213.5-66-326.9-66s-223.4,22.2-326.9,66c-30.5,12.9-60,27.5-88.5,43.7
			c-5.5,3.2-7,10.9-3.2,17.3c3.8,6.4,12,8.5,18.4,4.7c26-14.6,56-29.2,83.7-41c100.2-42.4,206.6-63.9,316.4-63.9
			s216.2,21.5,316.4,63.9c28.4,12,55.9,25.5,82.5,40.5l1.3,0.8c6.7,3.2,9.5,11.2,6.3,17.9s-11.2,9.5-17.9,6.3l-1-0.6
			c-26.3-14.9-53.5-28.3-81.6-40.2c-96.8-41-199.8-61.7-306-61.7s-209.1,20.8-306,61.7c-28.6,12.1-56.4,25.8-83.1,41.1l0.6-0.3
			c-6.4,3.7-8.6,11.9-4.8,18.3c3.7,6.4,11.9,8.6,18.3,4.8l1.2-0.7c25.2-14.3,51.3-27.1,78.2-38.5c93.5-39.6,192.9-59.6,295.5-59.6
			s202,20.1,295.5,59.6c26.5,11.2,52.2,23.8,77.1,37.8"/>
	</g>
	<g>
		<path fill="none" stroke="#0000FF" stroke-width="10" stroke-linecap="round" stroke-linejoin="round" stroke-miterlimit="10" d="
			M1895.5,986C1895.5,984.3,1895.5,987.8,1895.5,986c-2-147.8-40.7-300.7-119.8-437.8c-80.1-138.7-191.8-247.9-320.7-323.5l-0.1,0
			c-6.2-4.1-14.5-2.4-18.6,3.8c-4.1,6.2-2.4,14.5,3.8,18.6c28.6,16.8,58,36.3,84.8,56.5c92.5,69.9,169.1,156.8,227.6,258.1
			c58.5,101.3,95.4,211.1,109.7,326.2c4,32.2,6.2,66,6.6,98.2l0,0c0,7.4-6,13.4-13.4,13.4c-7.4,0-13.4-6-13.4-13.4v0
			c-0.3-31.6-2.4-63.3-6.4-94.9c-13.8-111.5-49.6-217.9-106.3-316.1S1598.3,392.7,1508.6,325c-26.4-19.9-48.5-35-76.8-51.6
			c-6.2-4.1-14.5-2.4-18.6,3.8c-4.1,6.2-2.4,14.5,3.8,18.6l1,0.6c25.6,15.3,50.5,32,74.5,50.1c86.8,65.6,158.6,147,213.5,242.1
			c54.9,95.1,89.5,198,102.9,305.9c3.8,30.6,5.8,61.1,6.2,91.6v0c0,7.4-6,13.4-13.4,13.4s-13.4-6-13.4-13.4v0
			c-0.2-30.2-2.2-58.1-6-88.3c-12.9-104.3-46.4-203.9-99.5-295.8s-122.5-170.7-206.4-234.1c-24.8-18.7-50.5-35.9-77.1-51.5l1.6,1
			c-6.2-4.1-14.5-2.4-18.6,3.8c-4.1,6.2-2.4,14.5,3.8,18.6l1.8,1.1c25,14.7,49.1,30.9,72.4,48.5c81,61.2,148.1,137.3,199.4,226.1
			c51.3,88.8,83.6,184.9,96.1,285.7c3.5,28.5,5.5,56.5,5.8,85"/>
	</g>
</g>
</svg>
