<?xml version="1.0" encoding="utf-8"?>
<!-- Generator: Adobe Illustrator 18.0.0, SVG Export Plug-In . SVG Version: 6.00 Build 0)  -->
<!DOCTYPE svg PUBLIC "-//W3C//DTD SVG 1.1 Tiny//EN" "http://www.w3.org/Graphics/SVG/1.1/DTD/svg11-tiny.dtd">
<svg version="1.1" baseProfile="tiny" id="Layer_2" xmlns="http://www.w3.org/2000/svg" xmlns:xlink="http://www.w3.org/1999/xlink"
	 x="0px" y="0px" width="1920px" height="1080px" viewBox="0 0 1920 1080" xml:space="preserve">
<path fill="#FF0000" d="M143.8,1005.4c-6.7,0-12.9-3.6-16.1-9.5c-1.3-2.4-0.5-5.5,2-6.8c2.4-1.3,5.5-0.5,6.8,2
	c1.5,2.7,4.3,4.3,7.4,4.3c1.2,0,2.4-0.2,3.5-0.7c2.5-1.1,5.5,0,6.6,2.5c1.1,2.5,0,5.5-2.5,6.6C149,1004.9,146.5,1005.4,143.8,1005.4
	z"/>
<path fill="#FF0000" d="M92.2,1005.2c-2.4,0-4.6-1.8-4.9-4.3c-0.4-2.7,1.5-5.3,4.2-5.7c4.1-0.6,7.2-4.2,7.2-8.3l0-1
	c0-2.7,2.3-4.9,5-4.9c0,0,0,0,0.1,0c2.8,0,5,2.3,4.9,5.1l0,0.9c0,9-6.8,16.8-15.7,18.2C92.7,1005.2,92.4,1005.2,92.2,1005.2z"/>
<path fill="#FF0000" d="M77.2,994.9c-2.3,0-4.3-1.6-4.9-3.9c-0.3-1.3-0.5-2.7-0.5-4.1c0.1-5.7,0.2-11.4,0.4-17.1
	c0.1-2.8,2.4-4.9,5.2-4.8c2.8,0.1,4.9,2.4,4.8,5.2c-0.2,5.6-0.3,11.3-0.4,16.9c0,0.6,0.1,1.2,0.2,1.8c0.6,2.7-1.1,5.4-3.8,6
	C77.9,994.9,77.5,994.9,77.2,994.9z"/>
<path fill="#FF0000" d="M50,992.5c-2.8,0-5-2.2-5-5v-1c0-0.1,0-0.2,0-0.3c0.1-5.8,0.2-11.6,0.4-17.3c0.1-2.8,2.4-4.9,5.2-4.8
	c2.8,0.1,4.9,2.4,4.8,5.2c-0.2,5.9-0.3,11.9-0.4,17.8v0.5C55,990.2,52.8,992.5,50,992.5z"/>
<path fill="#FF0000" d="M157.3,987.4C157.3,987.4,157.2,987.4,157.3,987.4c-2.8,0-5-2.3-5-5.1c0.1-6.7,0.3-13.5,0.5-20.1
	c0.1-2.8,2.4-4.9,5.2-4.8c2.8,0.1,4.9,2.4,4.8,5.2c-0.3,6.5-0.4,13.2-0.5,19.9C162.2,985.2,160,987.4,157.3,987.4z"/>
<path fill="#FF0000" d="M184.4,981.5c0,0-0.1,0-0.1,0c-2.8-0.1-4.9-2.4-4.9-5.1c0.2-6.7,0.4-13.4,0.8-20.1c0.1-2.8,2.5-4.9,5.3-4.7
	c2.8,0.1,4.9,2.5,4.7,5.3c-0.3,6.6-0.6,13.3-0.8,19.8C189.3,979.3,187.1,981.5,184.4,981.5z"/>
<path fill="#FF0000" d="M130.7,978.8c0,0-0.1,0-0.1,0c-2.8-0.1-4.9-2.4-4.9-5.1c0.2-6.7,0.5-13.5,0.8-20.1c0.1-2.8,2.5-4.9,5.3-4.7
	c2.8,0.1,4.9,2.5,4.7,5.3c-0.3,6.6-0.6,13.2-0.8,19.9C135.6,976.7,133.4,978.8,130.7,978.8z"/>
<path fill="#FF0000" d="M104.1,971c-0.1,0-0.1,0-0.2,0c-2.8-0.1-4.9-2.4-4.8-5.2c0.2-6.7,0.5-13.4,0.9-20.1c0.2-2.8,2.5-4.9,5.3-4.7
	c2.8,0.2,4.9,2.5,4.7,5.3c-0.4,6.6-0.7,13.3-0.9,19.9C109,968.9,106.8,971,104.1,971z"/>
<path fill="#FF0000" d="M78.1,955c-0.1,0-0.2,0-0.3,0c-2.8-0.1-4.9-2.5-4.7-5.3c0.4-6.7,0.8-13.4,1.3-20.1c0.2-2.8,2.6-4.8,5.4-4.6
	c2.8,0.2,4.8,2.6,4.6,5.4c-0.5,6.6-0.9,13.2-1.3,19.9C82.9,952.9,80.7,955,78.1,955z"/>
<path fill="#FF0000" d="M51.4,954c-0.1,0-0.2,0-0.3,0c-2.8-0.2-4.9-2.5-4.7-5.3c0.4-6.7,0.8-13.4,1.3-20.1c0.2-2.8,2.6-4.8,5.4-4.6
	c2.8,0.2,4.8,2.6,4.6,5.4c-0.5,6.6-1,13.2-1.3,19.8C56.2,952,54,954,51.4,954z"/>
<path fill="#FF0000" d="M158.9,947.4c-0.1,0-0.2,0-0.4,0c-2.8-0.2-4.8-2.6-4.6-5.3c0.5-6.6,1-13.3,1.7-20.1c0.3-2.7,2.7-4.8,5.5-4.5
	c2.7,0.3,4.8,2.7,4.5,5.5c-0.6,6.7-1.2,13.3-1.6,19.8C163.7,945.4,161.5,947.4,158.9,947.4z"/>
<path fill="#FF0000" d="M186.5,941.6c-0.1,0-0.3,0-0.4,0c-2.8-0.2-4.8-2.6-4.6-5.4c0.5-6.6,1.1-13.3,1.9-20c0.3-2.7,2.7-4.7,5.5-4.5
	s4.7,2.7,4.5,5.5c-0.7,6.6-1.3,13.3-1.8,19.8C191.3,939.6,189.1,941.6,186.5,941.6z"/>
<path fill="#FF0000" d="M132.8,938.9c-0.1,0-0.3,0-0.4,0c-2.8-0.2-4.8-2.6-4.6-5.4c0.5-6.7,1.1-13.4,1.8-20c0.3-2.7,2.7-4.8,5.5-4.5
	c2.7,0.3,4.8,2.7,4.5,5.5c-0.7,6.5-1.2,13.2-1.8,19.8C137.6,936.9,135.4,938.9,132.8,938.9z"/>
<path fill="#FF0000" d="M106.5,931.1c-0.1,0-0.3,0-0.4,0c-2.8-0.2-4.8-2.6-4.6-5.4c0.6-6.7,1.2-13.4,1.9-20c0.3-2.7,2.8-4.7,5.5-4.4
	c2.7,0.3,4.7,2.8,4.4,5.5c-0.7,6.6-1.4,13.2-1.9,19.8C111.2,929.1,109,931.1,106.5,931.1z"/>
<path fill="#FF0000" d="M81.1,915.1c-0.2,0-0.3,0-0.5,0c-2.7-0.3-4.8-2.7-4.5-5.5c0.7-6.7,1.4-13.5,2.2-20c0.3-2.7,2.8-4.7,5.6-4.4
	c2.7,0.3,4.7,2.8,4.4,5.6c-0.8,6.5-1.5,13.1-2.2,19.8C85.8,913.2,83.6,915.1,81.1,915.1z"/>
<path fill="#FF0000" d="M54.5,914.2c-0.2,0-0.3,0-0.5,0c-2.7-0.3-4.8-2.7-4.5-5.5c0.7-6.6,1.4-13.4,2.2-20c0.3-2.7,2.8-4.7,5.6-4.4
	c2.7,0.3,4.7,2.8,4.4,5.6c-0.8,6.5-1.5,13.2-2.2,19.8C59.2,912.2,57,914.2,54.5,914.2z"/>
<path fill="#FF0000" d="M162.8,907.7c-0.2,0-0.4,0-0.6,0c-2.7-0.3-4.7-2.8-4.4-5.6c0.2-1.3,0.3-2.6,0.5-3.9c0.7-5.3,1.4-10.7,2.1-16
	c0.4-2.7,2.9-4.6,5.7-4.2c2.7,0.4,4.6,2.9,4.2,5.7c-0.8,5.2-1.5,10.6-2.1,15.8c-0.2,1.3-0.3,2.6-0.5,3.9
	C167.4,905.8,165.3,907.7,162.8,907.7z"/>
<path fill="#FF0000" d="M190.7,901.8c-0.2,0-0.4,0-0.7,0c-2.7-0.4-4.7-2.9-4.3-5.6c0.9-6.6,1.8-13.3,2.9-19.9c0.4-2.7,3-4.6,5.7-4.2
	c2.7,0.4,4.6,3,4.2,5.7c-1,6.5-2,13.1-2.8,19.7C195.3,899.9,193.2,901.8,190.7,901.8z"/>
<path fill="#FF0000" d="M136.8,899.1c-0.2,0-0.4,0-0.6,0c-2.7-0.3-4.7-2.8-4.3-5.6c0.8-6.6,1.8-13.3,2.8-19.9c0.4-2.7,3-4.6,5.7-4.2
	c2.7,0.4,4.6,3,4.2,5.7c-1,6.5-1.9,13.1-2.7,19.7C141.4,897.2,139.3,899.1,136.8,899.1z"/>
<path fill="#FF0000" d="M110.8,891.4c-0.2,0-0.4,0-0.7,0c-2.7-0.4-4.7-2.9-4.3-5.6c0.9-6.6,1.8-13.3,2.8-19.9c0.4-2.7,3-4.6,5.7-4.2
	c2.7,0.4,4.6,3,4.2,5.7c-1,6.5-2,13.1-2.8,19.7C115.4,889.5,113.2,891.4,110.8,891.4z"/>
<path fill="#FF0000" d="M85.9,875.4c-0.2,0-0.5,0-0.7-0.1c-2.7-0.4-4.6-2.9-4.2-5.7c1-6.6,2-13.3,3.1-19.9c0.5-2.7,3-4.6,5.8-4.1
	s4.6,3,4.1,5.8c-1.1,6.5-2.1,13.1-3.1,19.6C90.5,873.6,88.4,875.4,85.9,875.4z"/>
<path fill="#FF0000" d="M59.3,874.5c-0.2,0-0.5,0-0.7-0.1c-2.7-0.4-4.6-2.9-4.2-5.7c1-6.6,2-13.3,3.1-19.9c0.5-2.7,3-4.6,5.8-4.1
	c2.7,0.5,4.6,3,4.1,5.8c-1.1,6.5-2.1,13.1-3.1,19.6C63.9,872.7,61.8,874.5,59.3,874.5z"/>
<path fill="#FF0000" d="M168.5,868.1c-0.3,0-0.6,0-0.8-0.1c-2.7-0.5-4.6-3-4.1-5.8c1.1-6.6,2.3-13.3,3.6-19.8
	c0.5-2.7,3.2-4.5,5.9-3.9c2.7,0.5,4.5,3.2,3.9,5.9c-1.3,6.5-2.5,13-3.6,19.5C173,866.3,170.9,868.1,168.5,868.1z"/>
<path fill="#FF0000" d="M196.9,862.3c-0.3,0-0.6,0-0.9-0.1c-2.7-0.5-4.5-3.1-4-5.8c1.2-6.6,2.5-13.2,3.9-19.7
	c0.6-2.7,3.2-4.4,5.9-3.9c2.7,0.6,4.4,3.2,3.9,5.9c-1.4,6.4-2.7,13-3.9,19.5C201.4,860.6,199.3,862.3,196.9,862.3z"/>
<path fill="#FF0000" d="M142.8,859.5c-0.3,0-0.6,0-0.9-0.1c-2.7-0.5-4.5-3.1-4.1-5.8c1.2-6.6,2.4-13.2,3.7-19.8
	c0.5-2.7,3.2-4.5,5.9-3.9c2.7,0.5,4.5,3.2,3.9,5.9c-1.3,6.5-2.5,13-3.7,19.5C147.3,857.8,145.2,859.5,142.8,859.5z"/>
<path fill="#FF0000" d="M116.9,851.8c-0.3,0-0.6,0-0.9-0.1c-2.7-0.5-4.5-3.1-4-5.8c1.2-6.6,2.5-13.2,3.8-19.8
	c0.6-2.7,3.2-4.5,5.9-3.9c2.7,0.6,4.5,3.2,3.9,5.9c-1.3,6.5-2.6,13-3.7,19.5C121.4,850.1,119.3,851.8,116.9,851.8z"/>
<path fill="#FF0000" d="M92.6,836c-0.3,0-0.6,0-1-0.1c-2.7-0.5-4.5-3.1-4-5.9c1.3-6.5,2.6-13.2,4-19.7c0.6-2.7,3.3-4.4,5.9-3.8
	c2.7,0.6,4.4,3.3,3.8,5.9c-1.4,6.4-2.7,13-4,19.5C97,834.3,94.9,836,92.6,836z"/>
<path fill="#FF0000" d="M65.9,835.1c-0.3,0-0.6,0-0.9-0.1c-2.7-0.5-4.5-3.1-4-5.8c1.2-6.6,2.6-13.2,4-19.7c0.6-2.7,3.2-4.4,5.9-3.8
	c2.7,0.6,4.4,3.2,3.9,5.9c-1.4,6.4-2.7,13-3.9,19.5C70.4,833.4,68.3,835.1,65.9,835.1z"/>
<path fill="#FF0000" d="M176.2,828.8c-0.4,0-0.7,0-1.1-0.1c-2.7-0.6-4.4-3.3-3.8-6c1.5-6.5,3-13.1,4.7-19.6c0.7-2.7,3.4-4.3,6.1-3.6
	c2.7,0.7,4.3,3.4,3.6,6.1c-1.6,6.4-3.2,12.9-4.6,19.3C180.6,827.2,178.5,828.8,176.2,828.8z"/>
<path fill="#FF0000" d="M205.2,823.1c-0.4,0-0.8,0-1.2-0.1c-2.7-0.6-4.3-3.3-3.7-6c1.6-6.5,3.2-13.1,5-19.5c0.7-2.7,3.5-4.3,6.1-3.5
	c2.7,0.7,4.2,3.5,3.5,6.1c-1.7,6.4-3.3,12.8-4.9,19.3C209.5,821.6,207.5,823.1,205.2,823.1z"/>
<path fill="#FF0000" d="M150.7,820.3c-0.4,0-0.7,0-1.1-0.1c-2.7-0.6-4.4-3.3-3.8-6c1.5-6.5,3.1-13.1,4.7-19.6
	c0.7-2.7,3.4-4.3,6.1-3.6c2.7,0.7,4.3,3.4,3.6,6.1c-1.6,6.4-3.2,12.9-4.7,19.3C155,818.7,153,820.3,150.7,820.3z"/>
<path fill="#FF0000" d="M124.9,812.6c-0.4,0-0.7,0-1.1-0.1c-2.7-0.6-4.4-3.3-3.8-6c1.5-6.5,3.1-13.1,4.7-19.6
	c0.7-2.7,3.4-4.3,6.1-3.6c2.7,0.7,4.3,3.4,3.6,6.1c-1.6,6.4-3.2,12.9-4.7,19.3C129.2,811.1,127.2,812.6,124.9,812.6z"/>
<path fill="#FF0000" d="M101.1,796.9c-0.4,0-0.8,0-1.2-0.1c-2.7-0.7-4.3-3.4-3.7-6c1.6-6.5,3.2-13.1,5-19.5c0.7-2.7,3.5-4.2,6.1-3.5
	c2.7,0.7,4.3,3.5,3.5,6.1c-1.7,6.4-3.3,12.8-4.9,19.3C105.4,795.4,103.4,796.9,101.1,796.9z"/>
<path fill="#FF0000" d="M74.2,796c-0.4,0-0.8,0-1.2-0.1c-2.7-0.6-4.4-3.3-3.7-6c1.5-6.5,3.2-13.1,4.8-19.5c0.7-2.7,3.4-4.3,6.1-3.6
	c2.7,0.7,4.3,3.4,3.6,6.1c-1.7,6.4-3.3,12.9-4.8,19.3C78.6,794.4,76.5,796,74.2,796z"/>
<path fill="#FF0000" d="M186,790c-0.4,0-0.9-0.1-1.3-0.2c-2.7-0.7-4.2-3.5-3.5-6.2c1.8-6.4,3.7-12.9,5.7-19.3
	c0.8-2.6,3.6-4.1,6.2-3.3c2.6,0.8,4.1,3.6,3.3,6.2c-1.9,6.3-3.8,12.7-5.6,19.1C190.2,788.6,188.2,790,186,790z"/>
<path fill="#FF0000" d="M215.6,784.5c-0.5,0-0.9-0.1-1.4-0.2c-2.6-0.8-4.2-3.6-3.4-6.2c1.9-6.4,3.9-12.9,6-19.2
	c0.9-2.6,3.7-4.1,6.3-3.2c2.6,0.9,4.1,3.7,3.2,6.3c-2,6.3-4,12.6-5.9,19C219.7,783.1,217.7,784.5,215.6,784.5z"/>
<path fill="#FF0000" d="M160.5,781.6c-0.4,0-0.9-0.1-1.4-0.2c-2.7-0.7-4.2-3.5-3.5-6.2c1.8-6.4,3.7-12.9,5.7-19.3
	c0.8-2.6,3.6-4.1,6.2-3.3c2.6,0.8,4.1,3.6,3.3,6.2c-1.9,6.3-3.8,12.7-5.6,19.1C164.7,780.1,162.7,781.6,160.5,781.6z"/>
<path fill="#FF0000" d="M134.8,773.9c-0.4,0-0.9-0.1-1.4-0.2c-2.7-0.7-4.2-3.5-3.5-6.2c1.8-6.4,3.7-12.9,5.7-19.3
	c0.8-2.6,3.6-4.1,6.2-3.3c2.6,0.8,4.1,3.6,3.3,6.2c-1.9,6.3-3.8,12.7-5.6,19.1C139,772.4,137,773.9,134.8,773.9z"/>
<path fill="#FF0000" d="M111.4,758.3c-0.5,0-0.9-0.1-1.4-0.2c-2.7-0.8-4.2-3.6-3.4-6.2c1.9-6.4,3.9-12.9,5.9-19.2
	c0.8-2.6,3.6-4.1,6.3-3.3c2.6,0.8,4.1,3.6,3.3,6.3c-2,6.3-3.9,12.7-5.8,19C115.6,756.8,113.6,758.3,111.4,758.3z"/>
<path fill="#FF0000" d="M84.3,757.3c-0.5,0-0.9-0.1-1.4-0.2c-2.7-0.8-4.2-3.5-3.5-6.2c1.8-6.4,3.7-12.9,5.7-19.3
	c0.8-2.6,3.6-4.1,6.2-3.3c2.6,0.8,4.1,3.6,3.3,6.2c-1.9,6.3-3.8,12.7-5.6,19.1C88.5,755.8,86.4,757.3,84.3,757.3z"/>
<path fill="#FF0000" d="M197.7,751.8c-0.5,0-1.1-0.1-1.6-0.3c-2.6-0.9-4-3.7-3.1-6.3c2.1-6.3,4.4-12.7,6.6-19c0.9-2.6,3.8-3.9,6.4-3
	c2.6,0.9,3.9,3.8,3,6.4c-2.3,6.2-4.5,12.5-6.6,18.8C201.7,750.5,199.8,751.8,197.7,751.8z"/>
<path fill="#FF0000" d="M228,746.5c-0.6,0-1.1-0.1-1.7-0.3c-2.6-0.9-4-3.8-3-6.4c2.2-6.3,4.6-12.6,7-18.9c1-2.6,3.9-3.9,6.5-2.9
	c2.6,1,3.9,3.9,2.9,6.5c-2.4,6.2-4.7,12.4-6.9,18.6C231.9,745.2,230,746.5,228,746.5z"/>
<path fill="#FF0000" d="M172.3,743.3c-0.5,0-1.1-0.1-1.6-0.3c-2.6-0.9-4-3.7-3.1-6.3c2.1-6.3,4.4-12.7,6.6-19c0.9-2.6,3.8-3.9,6.4-3
	c2.6,0.9,3.9,3.8,3,6.4c-2.2,6.2-4.5,12.5-6.6,18.8C176.3,742,174.4,743.3,172.3,743.3z"/>
<path fill="#FF0000" d="M146.5,735.7c-0.5,0-1.1-0.1-1.6-0.3c-2.6-0.9-4-3.7-3.2-6.3c2.1-6.3,4.3-12.7,6.6-19c0.9-2.6,3.8-3.9,6.4-3
	c2.6,0.9,3.9,3.8,3,6.4c-2.2,6.2-4.4,12.5-6.5,18.8C150.6,734.3,148.6,735.7,146.5,735.7z"/>
<path fill="#FF0000" d="M123.5,720.1c-0.5,0-1.1-0.1-1.6-0.3c-2.6-0.9-4-3.7-3.1-6.4c2.2-6.3,4.4-12.7,6.8-18.9c1-2.6,3.8-3.9,6.4-3
	c2.6,1,3.9,3.8,3,6.4c-2.3,6.2-4.5,12.5-6.7,18.7C127.5,718.8,125.6,720.1,123.5,720.1z"/>
<path fill="#FF0000" d="M96,719.1c-0.5,0-1.1-0.1-1.6-0.3c-2.6-0.9-4-3.7-3.2-6.3c2.1-6.3,4.3-12.7,6.5-19c0.9-2.6,3.8-4,6.4-3
	c2.6,0.9,4,3.8,3,6.4c-2.2,6.2-4.4,12.5-6.5,18.8C100,717.7,98.1,719.1,96,719.1z"/>
<path fill="#FF0000" d="M211.4,714.2c-0.6,0-1.2-0.1-1.8-0.3c-2.6-1-3.8-3.9-2.8-6.5c2.4-6.2,5-12.5,7.6-18.6c1.1-2.5,4-3.7,6.6-2.7
	c2.5,1.1,3.7,4,2.7,6.6c-2.6,6.1-5.1,12.3-7.5,18.4C215.3,713,213.4,714.2,211.4,714.2z"/>
<path fill="#FF0000" d="M242.4,709.2c-0.6,0-1.3-0.1-1.9-0.4c-2.5-1.1-3.8-4-2.7-6.5c2.6-6.2,5.3-12.4,8-18.5
	c1.1-2.5,4.1-3.6,6.6-2.5c2.5,1.1,3.6,4.1,2.5,6.6c-2.7,6-5.4,12.2-7.9,18.2C246.2,708,244.3,709.2,242.4,709.2z"/>
<path fill="#FF0000" d="M186,705.7c-0.6,0-1.2-0.1-1.8-0.3c-2.6-1-3.8-3.9-2.8-6.5c2.4-6.2,5-12.5,7.6-18.6c1.1-2.5,4-3.7,6.5-2.7
	c2.5,1.1,3.7,4,2.7,6.5c-2.6,6.1-5.1,12.3-7.5,18.4C189.8,704.5,188,705.7,186,705.7z"/>
<path fill="#FF0000" d="M160.1,698c-0.6,0-1.2-0.1-1.8-0.3c-2.6-1-3.9-3.9-2.9-6.5c2.4-6.2,4.9-12.5,7.5-18.7c1.1-2.5,4-3.8,6.5-2.7
	c2.5,1.1,3.8,4,2.7,6.5c-2.5,6.1-5,12.3-7.4,18.4C164,696.8,162.1,698,160.1,698z"/>
<path fill="#FF0000" d="M137.4,682.6c-0.6,0-1.2-0.1-1.8-0.4c-2.6-1-3.8-3.9-2.8-6.5c2.5-6.2,5-12.5,7.6-18.6c1.1-2.5,4-3.7,6.6-2.7
	c2.5,1.1,3.7,4,2.7,6.6c-2.6,6.1-5.1,12.3-7.5,18.4C141.3,681.4,139.4,682.6,137.4,682.6z"/>
<path fill="#FF0000" d="M109.4,681.4c-0.6,0-1.2-0.1-1.8-0.3c-2.6-1-3.9-3.9-2.9-6.5c2.4-6.2,4.9-12.5,7.4-18.7c1-2.6,4-3.8,6.5-2.7
	c2.6,1,3.8,4,2.7,6.5c-2.5,6.1-4.9,12.3-7.3,18.5C113.3,680.2,111.4,681.4,109.4,681.4z"/>
<path fill="#FF0000" d="M227,677.4c-0.7,0-1.4-0.1-2.1-0.4c-2.5-1.1-3.6-4.1-2.5-6.6c2.8-6.1,5.6-12.2,8.5-18.2
	c1.2-2.5,4.2-3.5,6.7-2.3c2.5,1.2,3.5,4.2,2.3,6.7c-2.9,5.9-5.7,12-8.4,18C230.7,676.3,228.9,677.4,227,677.4z"/>
<path fill="#FF0000" d="M258.7,672.7c-0.7,0-1.5-0.2-2.2-0.5c-2.5-1.2-3.5-4.2-2.3-6.7c2.9-6,5.9-12.1,9-18c1.3-2.5,4.3-3.4,6.7-2.2
	c2.5,1.3,3.4,4.3,2.2,6.7c-3,5.9-6,11.9-8.8,17.8C262.4,671.7,260.6,672.7,258.7,672.7z"/>
<path fill="#FF0000" d="M201.5,668.9c-0.7,0-1.4-0.1-2-0.4c-2.5-1.1-3.6-4.1-2.5-6.6c2.7-6.1,5.6-12.2,8.5-18.2
	c1.2-2.5,4.2-3.5,6.7-2.3c2.5,1.2,3.5,4.2,2.3,6.7c-2.9,6-5.7,12-8.4,18C205.2,667.8,203.4,668.9,201.5,668.9z"/>
<path fill="#FF0000" d="M175.5,661.1c-0.7,0-1.4-0.1-2-0.4c-2.5-1.1-3.7-4.1-2.5-6.6c2.7-6.1,5.5-12.3,8.4-18.3
	c1.2-2.5,4.2-3.6,6.7-2.4c2.5,1.2,3.6,4.2,2.4,6.7c-2.8,6-5.6,12-8.3,18.1C179.2,660,177.4,661.1,175.5,661.1z"/>
<path fill="#FF0000" d="M153,645.8c-0.7,0-1.4-0.1-2.1-0.4c-2.5-1.1-3.6-4.1-2.5-6.6c2.7-6.1,5.6-12.2,8.5-18.2
	c1.2-2.5,4.2-3.5,6.7-2.3c2.5,1.2,3.5,4.2,2.3,6.7c-2.8,5.9-5.7,12-8.4,18C156.7,644.7,154.9,645.8,153,645.8z"/>
<path fill="#FF0000" d="M124.5,644.4c-0.7,0-1.3-0.1-2-0.4c-2.5-1.1-3.7-4-2.6-6.6c2.7-6.1,5.4-12.3,8.2-18.3
	c1.2-2.5,4.1-3.6,6.6-2.5c2.5,1.2,3.6,4.1,2.5,6.6c-2.8,6-5.5,12.1-8.1,18.1C128.2,643.3,126.4,644.4,124.5,644.4z"/>
<path fill="#FF0000" d="M244.4,641.4c-0.8,0-1.6-0.2-2.3-0.6c-2.5-1.3-3.4-4.3-2.1-6.7c3.1-5.9,6.2-11.9,9.5-17.8
	c1.3-2.4,4.4-3.3,6.8-2c2.4,1.3,3.3,4.4,2,6.8c-3.2,5.8-6.3,11.7-9.3,17.5C248,640.4,246.2,641.4,244.4,641.4z"/>
<path fill="#FF0000" d="M277,637.1c-0.8,0-1.6-0.2-2.4-0.6c-2.4-1.3-3.3-4.4-2-6.8c2.9-5.3,5.9-10.6,8.9-15.8l1-1.8
	c1.4-2.4,4.4-3.2,6.8-1.8c2.4,1.4,3.2,4.4,1.8,6.8l-1,1.7c-3,5.1-5.9,10.4-8.8,15.6C280.5,636.2,278.8,637.1,277,637.1z"/>
<path fill="#FF0000" d="M218.8,632.8c-0.8,0-1.5-0.2-2.3-0.5c-2.5-1.3-3.4-4.3-2.2-6.7c3-5.9,6.2-11.9,9.4-17.8
	c1.3-2.4,4.3-3.3,6.8-2c2.4,1.3,3.3,4.3,2,6.8c-3.1,5.8-6.2,11.7-9.2,17.6C222.3,631.8,220.6,632.8,218.8,632.8z"/>
<path fill="#FF0000" d="M192.6,625c-0.8,0-1.5-0.2-2.2-0.5c-2.5-1.2-3.5-4.2-2.2-6.7c3-5.9,6.1-12,9.2-17.9c1.3-2.4,4.3-3.4,6.8-2.1
	c2.4,1.3,3.4,4.3,2.1,6.8c-3.1,5.8-6.2,11.8-9.1,17.7C196.2,624,194.4,625,192.6,625z"/>
<path fill="#FF0000" d="M170.3,609.7c-0.8,0-1.5-0.2-2.3-0.5c-2.5-1.2-3.4-4.3-2.2-6.7c3-6,6.2-12,9.3-17.8c1.3-2.4,4.3-3.3,6.8-2
	c2.4,1.3,3.3,4.3,2,6.8c-3.1,5.8-6.2,11.7-9.2,17.6C173.9,608.7,172.1,609.7,170.3,609.7z"/>
<path fill="#FF0000" d="M141.2,608.1c-0.7,0-1.5-0.2-2.2-0.5c-2.5-1.2-3.5-4.2-2.3-6.7c2.9-6,6-12,9-18c1.3-2.5,4.3-3.4,6.7-2.1
	c2.5,1.3,3.4,4.3,2.1,6.7c-3,5.8-6,11.8-8.9,17.8C144.8,607,143,608.1,141.2,608.1z"/>
<path fill="#FF0000" d="M263.7,606.3c-0.9,0-1.7-0.2-2.5-0.7c-2.4-1.4-3.2-4.4-1.8-6.8c3.4-5.8,6.8-11.6,10.3-17.3
	c1.4-2.4,4.5-3.1,6.9-1.6c2.4,1.4,3.1,4.5,1.6,6.9c-3.4,5.6-6.9,11.3-10.2,17.1C267.1,605.4,265.4,606.3,263.7,606.3z"/>
<path fill="#FF0000" d="M297.1,602.5c-0.9,0-1.8-0.2-2.6-0.7c-2.4-1.4-3.1-4.5-1.6-6.9c3.5-5.7,7.1-11.4,10.8-17
	c1.5-2.3,4.6-3,6.9-1.5c2.3,1.5,3,4.6,1.5,6.9c-3.6,5.5-7.2,11.2-10.6,16.8C300.4,601.7,298.8,602.5,297.1,602.5z"/>
<path fill="#FF0000" d="M237.8,597.6c-0.8,0-1.7-0.2-2.5-0.7c-2.4-1.4-3.2-4.4-1.9-6.8c0.6-1,1.2-2.1,1.8-3.1
	c2.7-4.8,5.6-9.6,8.4-14.3c1.4-2.4,4.5-3.1,6.9-1.7c2.4,1.4,3.1,4.5,1.7,6.9c-2.8,4.7-5.6,9.4-8.3,14.1c-0.6,1-1.2,2-1.8,3.1
	C241.2,596.7,239.5,597.6,237.8,597.6z"/>
<path fill="#FF0000" d="M211.4,589.7c-0.8,0-1.7-0.2-2.4-0.6c-2.4-1.4-3.3-4.4-1.9-6.8c1.6-2.9,3.3-5.8,5-8.8
	c1.7-2.9,3.4-5.8,5.1-8.7c1.4-2.4,4.5-3.2,6.9-1.8c2.4,1.4,3.2,4.5,1.8,6.9c-1.7,2.8-3.4,5.7-5,8.6c-1.7,2.9-3.3,5.8-4.9,8.7
	C214.8,588.7,213.1,589.7,211.4,589.7z"/>
<path fill="#FF0000" d="M189.2,574.5c-0.8,0-1.7-0.2-2.5-0.6c-2.4-1.4-3.2-4.4-1.9-6.8c1.3-2.3,2.6-4.6,4-7c2-3.5,4.1-7,6.1-10.4
	c1.4-2.4,4.5-3.1,6.9-1.7c2.4,1.4,3.2,4.5,1.7,6.9c-2,3.4-4.1,6.9-6.1,10.3c-1.3,2.3-2.6,4.6-3.9,6.9
	C192.6,573.6,190.9,574.5,189.2,574.5z"/>
<path fill="#FF0000" d="M159.5,572.6c-0.8,0-1.6-0.2-2.4-0.6c-2.4-1.3-3.3-4.4-2-6.8c3.2-5.9,6.5-11.8,9.8-17.5
	c1.4-2.4,4.4-3.2,6.8-1.8c2.4,1.4,3.2,4.4,1.8,6.8c-3.3,5.7-6.6,11.5-9.7,17.3C163,571.6,161.3,572.6,159.5,572.6z"/>
<path fill="#FF0000" d="M284.6,572.3c-0.9,0-1.9-0.3-2.7-0.8c-2.3-1.5-3-4.6-1.5-6.9c3.6-5.6,7.4-11.2,11.2-16.7
	c1.6-2.3,4.7-2.9,7-1.3s2.9,4.7,1.3,7c-3.7,5.4-7.4,11-11,16.5C287.8,571.5,286.2,572.3,284.6,572.3z"/>
<path fill="#FF0000" d="M319,569c-1,0-2-0.3-2.8-0.9c-2.3-1.6-2.8-4.7-1.3-7c3.8-5.5,7.7-11,11.6-16.4c1.6-2.2,4.8-2.7,7-1.1
	c2.2,1.6,2.7,4.8,1.1,7c-3.9,5.3-7.7,10.8-11.5,16.2C322.1,568.3,320.5,569,319,569z"/>
<path fill="#FF0000" d="M258.4,563.4c-0.9,0-1.8-0.3-2.7-0.8c-2.3-1.5-3-4.6-1.5-6.9c3.6-5.6,7.3-11.3,11-16.8
	c1.5-2.3,4.6-2.9,6.9-1.4c2.3,1.5,2.9,4.6,1.4,6.9c-3.7,5.5-7.3,11.1-10.9,16.6C261.7,562.6,260.1,563.4,258.4,563.4z"/>
<path fill="#FF0000" d="M231.8,555.2c-0.9,0-1.8-0.2-2.6-0.8c-2.3-1.5-3.1-4.5-1.6-6.9c3.5-5.7,7.2-11.4,10.9-16.9
	c1.5-2.3,4.6-2.9,6.9-1.4c2.3,1.5,2.9,4.6,1.4,6.9c-3.6,5.5-7.2,11.1-10.7,16.7C235.1,554.4,233.4,555.2,231.8,555.2z"/>
<path fill="#FF0000" d="M209.6,540.1c-0.9,0-1.8-0.2-2.6-0.8c-2.3-1.5-3-4.6-1.6-6.9c3.5-5.7,7.2-11.3,10.9-16.9
	c1.5-2.3,4.6-2.9,6.9-1.4c2.3,1.5,2.9,4.6,1.4,6.9c-3.6,5.5-7.2,11.1-10.7,16.7C212.9,539.3,211.3,540.1,209.6,540.1z"/>
<path fill="#FF0000" d="M307.2,539.3c-1,0-2-0.3-2.9-0.9c-2.2-1.6-2.7-4.7-1.1-7c3.9-5.4,8-10.9,12-16.2c1.7-2.2,4.8-2.6,7-0.9
	c2.2,1.7,2.6,4.8,0.9,7c-4,5.2-8,10.6-11.8,16C310.3,538.5,308.8,539.3,307.2,539.3z"/>
<path fill="#FF0000" d="M179.5,537.9c-0.9,0-1.8-0.2-2.6-0.7c-2.4-1.4-3.1-4.5-1.7-6.9c3.5-5.7,7-11.5,10.6-17.1
	c1.5-2.3,4.6-3,6.9-1.5c2.3,1.5,3,4.6,1.5,6.9c-3.5,5.6-7.1,11.3-10.5,16.9C182.8,537,181.1,537.9,179.5,537.9z"/>
<path fill="#FF0000" d="M342.5,536.7c-1.1,0-2.1-0.3-3-1c-2.2-1.7-2.6-4.8-0.9-7c4.1-5.3,8.3-10.6,12.5-15.8c1.7-2.1,4.9-2.5,7-0.7
	c2.1,1.7,2.5,4.9,0.7,7c-4.2,5.1-8.3,10.4-12.3,15.6C345.5,536.1,344,536.7,342.5,536.7z"/>
<path fill="#FF0000" d="M280.7,530.2c-1,0-2-0.3-2.9-0.9c-2.3-1.6-2.8-4.7-1.2-7c3.9-5.5,7.8-10.9,11.8-16.3c1.6-2.2,4.8-2.7,7-1
	c2.2,1.6,2.7,4.8,1,7c-3.9,5.3-7.9,10.7-11.7,16.1C283.9,529.4,282.3,530.2,280.7,530.2z"/>
<path fill="#FF0000" d="M253.8,521.8c-1,0-2-0.3-2.8-0.9c-2.3-1.6-2.8-4.7-1.3-7c3.8-5.5,7.7-11,11.6-16.4c1.6-2.2,4.8-2.7,7-1.1
	c2.2,1.6,2.7,4.8,1.1,7c-3.9,5.3-7.8,10.8-11.5,16.2C256.9,521.1,255.3,521.8,253.8,521.8z"/>
<path fill="#FF0000" d="M331.4,507.5c-1.1,0-2.2-0.4-3.1-1.1c-2.2-1.7-2.5-4.9-0.8-7c4.2-5.2,8.5-10.4,12.8-15.5
	c1.8-2.1,4.9-2.4,7-0.6c2.1,1.8,2.4,4.9,0.6,7c-4.3,5-8.5,10.2-12.6,15.3C334.4,506.8,332.9,507.5,331.4,507.5z"/>
<path fill="#FF0000" d="M231.6,506.7c-1,0-2-0.3-2.8-0.9c-2.3-1.6-2.8-4.7-1.3-7c3.8-5.5,7.7-11,11.6-16.4c1.6-2.2,4.8-2.7,7-1.1
	c2.2,1.6,2.7,4.7,1.1,7c-3.9,5.3-7.7,10.8-11.5,16.2C234.8,506,233.2,506.7,231.6,506.7z"/>
<path fill="#FF0000" d="M367.7,505.7c-1.2,0-2.3-0.4-3.3-1.2c-2.1-1.8-2.3-5-0.5-7.1c4.4-5.1,8.8-10.2,13.3-15.1
	c1.9-2,5-2.2,7.1-0.4c2,1.9,2.2,5,0.4,7.1c-4.4,4.9-8.8,9.9-13.1,14.9C370.6,505.1,369.2,505.7,367.7,505.7z"/>
<path fill="#FF0000" d="M200.9,504.1c-1,0-1.9-0.3-2.8-0.8c-2.3-1.5-2.9-4.6-1.4-6.9c3.7-5.6,7.5-11.1,11.4-16.6
	c1.6-2.3,4.7-2.8,7-1.2c2.3,1.6,2.8,4.7,1.2,7c-3.8,5.4-7.6,10.9-11.2,16.4C204.1,503.3,202.6,504.1,200.9,504.1z"/>
<path fill="#FF0000" d="M304.6,498.1c-1.1,0-2.2-0.3-3.1-1.1c-2.2-1.7-2.6-4.8-0.8-7c4.1-5.3,8.4-10.5,12.6-15.7
	c1.8-2.1,4.9-2.4,7-0.7c2.1,1.8,2.4,4.9,0.7,7c-4.2,5.1-8.4,10.3-12.5,15.5C307.6,497.5,306.1,498.1,304.6,498.1z"/>
<path fill="#FF0000" d="M277.3,489.5c-1.1,0-2.1-0.3-3-1c-2.2-1.7-2.6-4.8-0.9-7c4.1-5.3,8.2-10.6,12.4-15.8c1.7-2.2,4.9-2.5,7-0.8
	c2.2,1.7,2.5,4.9,0.8,7c-4.1,5.1-8.3,10.4-12.3,15.6C280.3,488.8,278.8,489.5,277.3,489.5z"/>
<path fill="#FF0000" d="M357.3,476.9c-1.2,0-2.4-0.4-3.3-1.3c-2.1-1.8-2.2-5-0.4-7.1c4.4-5,9-10,13.6-14.9c1.9-2,5.1-2.1,7.1-0.2
	c2,1.9,2.1,5.1,0.2,7.1c-4.5,4.8-9,9.7-13.4,14.7C360,476.4,358.7,476.9,357.3,476.9z"/>
<path fill="#FF0000" d="M394.6,476c-1.2,0-2.5-0.5-3.5-1.4c-2-1.9-2.1-5.1-0.2-7.1c4.6-4.8,9.4-9.7,14.1-14.4c2-1.9,5.1-1.9,7.1,0
	s1.9,5.1,0,7.1c-4.7,4.6-9.4,9.4-13.9,14.2C397.2,475.5,395.9,476,394.6,476z"/>
<path fill="#FF0000" d="M255.1,474.4c-1.1,0-2.1-0.3-3-1c-2.2-1.7-2.6-4.8-0.9-7c4-5.3,8.2-10.6,12.4-15.9c1.7-2.2,4.9-2.5,7-0.8
	c2.2,1.7,2.5,4.9,0.8,7c-4.1,5.2-8.2,10.4-12.2,15.7C258.1,473.7,256.7,474.4,255.1,474.4z"/>
<path fill="#FF0000" d="M223.9,471.3c-1,0-2.1-0.3-3-1c-2.2-1.6-2.7-4.8-1.1-7c4-5.4,8-10.8,12.1-16.1c1.7-2.2,4.8-2.6,7-0.9
	c2.2,1.7,2.6,4.8,0.9,7c-4,5.2-8,10.6-12,15.9C227,470.6,225.4,471.3,223.9,471.3z"/>
<path fill="#FF0000" d="M330.1,467.3c-1.2,0-2.3-0.4-3.3-1.2c-2.1-1.8-2.3-5-0.5-7.1c4.4-5,8.9-10.1,13.4-15c1.9-2,5-2.2,7.1-0.3
	s2.2,5,0.3,7.1c-4.4,4.9-8.9,9.9-13.2,14.8C332.9,466.7,331.5,467.3,330.1,467.3z"/>
<path fill="#FF0000" d="M302.3,458.3c-1.1,0-2.3-0.4-3.2-1.2c-2.1-1.8-2.4-4.9-0.6-7c4.3-5.1,8.7-10.2,13.2-15.2
	c1.8-2.1,5-2.3,7.1-0.4c2.1,1.8,2.3,5,0.4,7.1c-4.4,4.9-8.7,10-13,15C305.2,457.7,303.8,458.3,302.3,458.3z"/>
<path fill="#FF0000" d="M423,447.9c-1.3,0-2.7-0.5-3.6-1.6c-1.9-2-1.8-5.2,0.2-7.1c4.9-4.6,9.9-9.2,14.8-13.6
	c2.1-1.8,5.2-1.7,7.1,0.4c1.8,2.1,1.7,5.2-0.4,7.1c-4.9,4.4-9.8,8.9-14.6,13.4C425.4,447.4,424.2,447.9,423,447.9z"/>
<path fill="#FF0000" d="M384.7,447.8c-1.3,0-2.5-0.5-3.5-1.4c-2-1.9-2-5.1,0-7.1c4.7-4.7,9.5-9.5,14.3-14.1c2-1.9,5.2-1.8,7.1,0.1
	c1.9,2,1.9,5.2-0.1,7.1c-4.8,4.6-9.5,9.3-14.1,13.9C387.2,447.3,386,447.8,384.7,447.8z"/>
<path fill="#FF0000" d="M280.1,443.1c-1.1,0-2.3-0.4-3.2-1.2c-2.1-1.8-2.4-4.9-0.6-7c4.3-5.1,8.7-10.3,13.1-15.3
	c1.8-2.1,5-2.3,7.1-0.5c2.1,1.8,2.3,5,0.5,7.1c-4.4,5-8.7,10-12.9,15.1C283,442.5,281.5,443.1,280.1,443.1z"/>
<path fill="#FF0000" d="M248.3,439.6c-1.1,0-2.2-0.4-3.1-1.1c-2.2-1.7-2.5-4.9-0.8-7c4.2-5.2,8.5-10.4,12.8-15.5
	c1.8-2.1,4.9-2.4,7-0.6c2.1,1.8,2.4,4.9,0.6,7c-4.3,5-8.5,10.2-12.7,15.4C251.2,438.9,249.8,439.6,248.3,439.6z"/>
<path fill="#FF0000" d="M357.1,437.7c-1.2,0-2.5-0.5-3.5-1.4c-2-1.9-2.1-5.1-0.1-7.1c4.6-4.8,9.4-9.6,14.1-14.3c2-1.9,5.1-1.9,7.1,0
	c1.9,2,1.9,5.1,0,7.1c-4.7,4.6-9.4,9.4-13.9,14.2C359.7,437.2,358.4,437.7,357.1,437.7z"/>
<path fill="#FF0000" d="M328.9,428.4c-1.2,0-2.4-0.4-3.4-1.3c-2-1.9-2.1-5-0.3-7.1c4.5-4.9,9.2-9.8,13.9-14.6c1.9-2,5.1-2,7.1-0.1
	c2,1.9,2,5.1,0.1,7.1c-4.6,4.7-9.2,9.6-13.7,14.4C331.6,427.8,330.2,428.4,328.9,428.4z"/>
<path fill="#FF0000" d="M452.8,421.3c-1.4,0-2.8-0.6-3.8-1.8c-1.8-2.1-1.5-5.3,0.6-7c5.1-4.3,10.3-8.6,15.5-12.8
	c2.2-1.7,5.3-1.4,7,0.8s1.4,5.3-0.8,7c-5.1,4.1-10.3,8.4-15.3,12.6C455.1,420.9,454,421.3,452.8,421.3z"/>
<path fill="#FF0000" d="M413.5,420.1c-1.4,0-2.7-0.5-3.7-1.6c-1.9-2-1.7-5.2,0.3-7.1c4.9-4.5,10-9,15-13.4c2.1-1.8,5.2-1.6,7.1,0.5
	c1.8,2.1,1.6,5.2-0.5,7.1c-5,4.3-10,8.8-14.8,13.2C415.9,419.6,414.7,420.1,413.5,420.1z"/>
<path fill="#FF0000" d="M306.5,413.1c-1.2,0-2.4-0.4-3.4-1.3c-2-1.9-2.2-5-0.3-7.1c4.5-4.9,9.2-9.8,13.8-14.6c1.9-2,5.1-2,7.1-0.1
	c2,1.9,2,5.1,0.1,7.1c-4.6,4.8-9.2,9.6-13.6,14.5C309.2,412.5,307.9,413.1,306.5,413.1z"/>
<path fill="#FF0000" d="M385.5,409.6c-1.3,0-2.7-0.5-3.6-1.6c-1.9-2-1.8-5.2,0.2-7.1c4.9-4.6,9.8-9.2,14.8-13.6
	c2.1-1.8,5.2-1.7,7.1,0.4c1.8,2.1,1.7,5.2-0.4,7.1c-4.9,4.4-9.8,8.9-14.6,13.5C387.9,409.1,386.7,409.6,385.5,409.6z"/>
<path fill="#FF0000" d="M274.1,409c-1.2,0-2.4-0.4-3.3-1.3c-2.1-1.8-2.3-5-0.4-7.1c4.4-5,9-10,13.5-14.9c1.9-2,5-2.2,7.1-0.3
	c2,1.9,2.2,5,0.3,7.1c-4.5,4.9-9,9.8-13.3,14.8C276.9,408.4,275.5,409,274.1,409z"/>
<path fill="#FF0000" d="M356.8,399.8c-1.3,0-2.6-0.5-3.6-1.5c-1.9-2-1.9-5.1,0.1-7.1c4.8-4.7,9.7-9.3,14.6-13.9
	c2-1.9,5.2-1.8,7.1,0.3c1.9,2,1.8,5.2-0.3,7.1c-4.8,4.5-9.7,9.1-14.4,13.7C359.3,399.3,358.1,399.8,356.8,399.8z"/>
<path fill="#FF0000" d="M484,396.3c-1.5,0-3-0.7-4-2c-1.7-2.2-1.2-5.3,1-7l1.2-0.9c4.9-3.7,10-7.5,15-11.1c2.2-1.6,5.4-1.1,7,1.1
	c1.6,2.2,1.1,5.4-1.1,7c-4.9,3.6-9.9,7.2-14.8,10.9l-1.2,0.9C486.2,395.9,485.1,396.3,484,396.3z"/>
<path fill="#FF0000" d="M443.7,393.9c-1.4,0-2.9-0.6-3.9-1.8c-1.8-2.1-1.4-5.3,0.7-7c5.2-4.2,10.4-8.5,15.7-12.6
	c2.2-1.7,5.3-1.3,7,0.9c1.7,2.2,1.3,5.3-0.9,7c-5.2,4.1-10.4,8.2-15.5,12.4C446,393.5,444.9,393.9,443.7,393.9z"/>
<path fill="#FF0000" d="M334.3,384.3c-1.3,0-2.6-0.5-3.6-1.5c-1.9-2-1.9-5.1,0-7.1c4.7-4.7,9.6-9.4,14.5-14c2-1.9,5.2-1.8,7.1,0.2
	c1.9,2,1.8,5.2-0.2,7.1c-4.8,4.5-9.6,9.2-14.3,13.8C336.8,383.8,335.6,384.3,334.3,384.3z"/>
<path fill="#FF0000" d="M415.2,382.8c-1.4,0-2.8-0.6-3.8-1.8c-1.8-2.1-1.5-5.3,0.6-7c5.1-4.3,10.3-8.7,15.5-12.9
	c2.1-1.7,5.3-1.4,7,0.7c1.7,2.1,1.4,5.3-0.7,7c-5.1,4.2-10.3,8.4-15.3,12.7C417.5,382.4,416.4,382.8,415.2,382.8z"/>
<path fill="#FF0000" d="M301.3,379.6c-1.3,0-2.5-0.5-3.5-1.4c-2-1.9-2-5.1-0.1-7.1c4.6-4.8,9.4-9.6,14.1-14.3c2-1.9,5.1-1.9,7.1,0
	c1.9,2,1.9,5.1,0,7.1c-4.7,4.6-9.4,9.4-14,14.2C303.9,379,302.6,379.6,301.3,379.6z"/>
<path fill="#FF0000" d="M516.5,372.9c-1.6,0-3.2-0.8-4.1-2.2c-1.6-2.3-1-5.4,1.3-6.9c5.5-3.8,11.2-7.5,16.8-11.1
	c2.3-1.5,5.4-0.8,6.9,1.5c1.5,2.3,0.8,5.4-1.5,6.9c-5.5,3.6-11.1,7.2-16.6,11C518.5,372.6,517.5,372.9,516.5,372.9z"/>
<path fill="#FF0000" d="M386.1,372.5c-1.4,0-2.8-0.6-3.7-1.7c-1.8-2.1-1.6-5.2,0.4-7.1c5-4.4,10.1-8.9,15.2-13.2
	c2.1-1.8,5.3-1.5,7,0.6s1.5,5.3-0.6,7c-5,4.3-10.1,8.6-15,13C388.5,372.1,387.3,372.5,386.1,372.5z"/>
<path fill="#FF0000" d="M475.3,369.3c-1.5,0-3-0.7-4-2c-1.6-2.2-1.2-5.4,1-7c5.4-4,10.9-7.9,16.3-11.8c2.3-1.6,5.4-1,7,1.2
	c1.6,2.3,1,5.4-1.2,7c-5.4,3.8-10.8,7.7-16.1,11.6C477.3,369,476.3,369.3,475.3,369.3z"/>
<path fill="#FF0000" d="M446.3,357.6c-1.5,0-3-0.7-4-1.9c-1.7-2.2-1.3-5.3,0.9-7c2.3-1.7,4.5-3.5,6.8-5.2c3.1-2.3,6.2-4.6,9.3-6.9
	c2.2-1.6,5.4-1.1,7,1.1c1.6,2.2,1.1,5.4-1.1,7c-3.1,2.2-6.1,4.5-9.2,6.8c-2.2,1.7-4.5,3.4-6.7,5.1
	C448.4,357.3,447.3,357.6,446.3,357.6z"/>
<path fill="#FF0000" d="M363.4,356.8c-1.4,0-2.7-0.6-3.7-1.7c-1.8-2.1-1.7-5.2,0.4-7.1c4.9-4.5,10-8.9,15.1-13.3
	c2.1-1.8,5.3-1.6,7.1,0.5c1.8,2.1,1.6,5.3-0.5,7.1c-5,4.3-10,8.7-14.9,13.1C365.8,356.4,364.6,356.8,363.4,356.8z"/>
<path fill="#FF0000" d="M329.7,351.4c-1.3,0-2.6-0.5-3.6-1.6c-1.9-2-1.8-5.2,0.2-7.1c4.9-4.6,9.8-9.2,14.8-13.7
	c2-1.9,5.2-1.7,7.1,0.4c1.9,2,1.7,5.2-0.4,7.1c-4.9,4.4-9.8,9-14.6,13.5C332.2,350.9,330.9,351.4,329.7,351.4z"/>
<path fill="#FF0000" d="M550.2,351.3c-1.7,0-3.3-0.9-4.3-2.4c-1.4-2.4-0.7-5.4,1.7-6.9c2.5-1.5,5-3,7.5-4.5l1.6-1
	c1.6-1.1,2.8-2.6,3.3-4.5c0.8-2.6,3.6-4.1,6.3-3.3c2.6,0.8,4.1,3.6,3.3,6.3c-1.3,4-3.9,7.5-7.4,9.9c0,0-0.1,0.1-0.2,0.1l-1.8,1.1
	c-2.6,1.5-5,3-7.5,4.5C552,351.1,551.1,351.3,550.2,351.3z"/>
<path fill="#FF0000" d="M416.7,346.7c-1.5,0-2.9-0.6-3.9-1.9c-1.7-2.2-1.4-5.3,0.8-7c5.2-4.2,10.5-8.4,15.8-12.4
	c2.2-1.7,5.3-1.3,7,0.9s1.3,5.3-0.9,7c-5.2,4-10.5,8.1-15.6,12.3C418.9,346.4,417.8,346.7,416.7,346.7z"/>
<path fill="#FF0000" d="M508,346.3c-1.6,0-3.2-0.8-4.2-2.2c-1.5-2.3-0.9-5.4,1.4-6.9c5.6-3.7,11.3-7.4,16.9-10.9
	c2.3-1.5,5.4-0.8,6.9,1.6c1.5,2.3,0.8,5.4-1.6,6.9c-5.6,3.5-11.2,7.1-16.7,10.8C509.9,346,508.9,346.3,508,346.3z"/>
<path fill="#FF0000" d="M478.5,334c-1.6,0-3.1-0.7-4.1-2.1c-1.6-2.3-1-5.4,1.2-7c5.5-3.8,11.1-7.6,16.7-11.3
	c2.3-1.5,5.4-0.9,6.9,1.4c1.5,2.3,0.9,5.4-1.4,6.9c-5.5,3.6-11,7.4-16.5,11.2C480.5,333.7,479.5,334,478.5,334z"/>
<path fill="#FF0000" d="M393.7,330.8c-1.4,0-2.9-0.6-3.9-1.8c-1.8-2.1-1.4-5.3,0.7-7c5.2-4.2,10.4-8.5,15.7-12.6
	c2.2-1.7,5.3-1.3,7,0.9c1.7,2.2,1.3,5.3-0.9,7c-5.2,4.1-10.4,8.3-15.5,12.4C396,330.4,394.8,330.8,393.7,330.8z"/>
<path fill="#FF0000" d="M541.8,325c-1.7,0-3.4-0.9-4.3-2.4c-1.4-2.4-0.6-5.4,1.7-6.9c1.5-0.9,3-1.8,4.4-2.6c0.4-0.3,0.9-0.4,1.4-0.6
	c4.4-1.8,9.4-1.8,13.9,0c2.6,1,3.8,3.9,2.8,6.5c-1,2.6-3.9,3.8-6.5,2.8c-2.4-1-5.1-0.8-7.4,0.5l-0.5,0.3c-0.2,0.2-0.5,0.3-0.8,0.4
	c-0.7,0.4-1.4,0.8-2.1,1.3C543.6,324.7,542.7,325,541.8,325z"/>
<path fill="#FF0000" d="M359.4,324.6c-1.4,0-2.8-0.6-3.8-1.7c-1.8-2.1-1.6-5.2,0.5-7.1c5.1-4.4,10.2-8.7,15.4-13
	c2.1-1.8,5.3-1.5,7,0.7s1.5,5.3-0.7,7c-5.1,4.2-10.2,8.5-15.2,12.8C361.7,324.2,360.5,324.6,359.4,324.6z"/>
<path fill="#FF0000" d="M448.4,322.4c-1.5,0-3.1-0.7-4-2c-1.6-2.2-1.2-5.4,1.1-7c5.7-4.2,11.1-8,16.3-11.7c2.3-1.6,5.4-1,7,1.2
	c1.6,2.3,1,5.4-1.2,7c-5.2,3.7-10.5,7.4-16.2,11.6C450.5,322.1,449.4,322.4,448.4,322.4z"/>
<path fill="#FF0000" d="M511.9,311.9c-1.7,0-3.3-0.8-4.2-2.3c-1.5-2.3-0.8-5.4,1.6-6.9c5.2-3.2,10.5-6.5,15.7-9.6l0.9-0.5
	c0.1,0,0.1-0.1,0.2-0.1c2.2-1.6,5.4-1.1,7,1.2c1.6,2.2,1.1,5.4-1.2,7c-0.2,0.1-0.4,0.3-0.6,0.4c-0.1,0-0.1,0.1-0.2,0.1l-1,0.6
	c-5.2,3.1-10.4,6.3-15.6,9.5C513.7,311.7,512.8,311.9,511.9,311.9z"/>
<path fill="#FF0000" d="M425.2,306.1c-1.5,0-3-0.7-4-2c-1.6-2.2-1.2-5.3,1-7c5.3-3.9,10.8-7.9,16.3-11.8c2.3-1.6,5.4-1.1,7,1.2
	s1.1,5.4-1.2,7c-5.5,3.9-10.9,7.8-16.1,11.7C427.3,305.8,426.3,306.1,425.2,306.1z"/>
<path fill="#FF0000" d="M481.2,299.5c-1.6,0-3.2-0.8-4.2-2.3c-1.5-2.3-0.9-5.4,1.4-6.9c5.6-3.7,11.2-7.2,17-10.8
	c2.4-1.5,5.4-0.7,6.9,1.6c1.5,2.3,0.7,5.4-1.6,6.9c-5.7,3.5-11.2,7-16.7,10.7C483.1,299.3,482.1,299.5,481.2,299.5z"/>
<path fill="#FF0000" d="M390.2,299.1c-1.5,0-2.9-0.7-3.9-1.9c-1.7-2.2-1.3-5.3,0.8-7c5.2-4.1,10.6-8.3,15.9-12.3
	c2.2-1.7,5.3-1.2,7,1c1.7,2.2,1.2,5.3-1,7c-5.3,4-10.6,8.1-15.8,12.1C392.4,298.7,391.3,299.1,390.2,299.1z"/>
<path fill="#FF0000" d="M532.7,283.7c-1.7,0-3.4-0.9-4.3-2.4c-0.1-0.1-0.1-0.2-0.2-0.3c-1.6-2.4-4.2-3.8-7-3.8
	c-1.3,0-2.5,0.3-3.7,0.9c-2.5,1.2-5.5,0.2-6.7-2.3c-1.2-2.5-0.2-5.5,2.3-6.7c2.5-1.2,5.3-1.9,8.1-1.9c6.2,0,11.9,3.1,15.4,8.3
	c0.2,0.2,0.3,0.5,0.4,0.7c1.4,2.4,0.7,5.4-1.7,6.9C534.4,283.4,533.5,283.7,532.7,283.7z"/>
<path fill="#FF0000" d="M457.9,283c-1.6,0-3.2-0.8-4.2-2.2c-1.5-2.3-0.9-5.4,1.4-6.9c5.5-3.7,11.2-7.4,16.8-11.1
	c2.3-1.5,5.4-0.8,6.9,1.5c1.5,2.3,0.8,5.4-1.5,6.9c-5.6,3.6-11.2,7.3-16.6,10.9C459.8,282.7,458.8,283,457.9,283z"/>
<path fill="#FF0000" d="M422.2,275c-1.6,0-3.1-0.7-4.1-2.1c-1.6-2.2-1.1-5.4,1.1-7c5.4-3.9,11-7.8,16.5-11.5c2.3-1.6,5.4-1,6.9,1.3
	c1.6,2.3,1,5.4-1.3,6.9c-5.4,3.7-10.9,7.6-16.3,11.4C424.3,274.7,423.2,275,422.2,275z"/>
<path fill="#FF0000" d="M491.5,261.4c-1.7,0-3.3-0.8-4.3-2.4c-1.4-2.4-0.7-5.4,1.7-6.9c4.6-2.8,9.3-5.6,13.9-8.3
	c0.6-0.4,1.2-0.9,1.7-1.5c1.8-2.1,5-2.3,7-0.6c2.1,1.8,2.3,5,0.6,7c-1.1,1.3-2.4,2.5-3.9,3.4c-0.1,0-0.2,0.1-0.2,0.1
	c-4.6,2.7-9.2,5.5-13.8,8.3C493.3,261.2,492.4,261.4,491.5,261.4z"/>
<path fill="#FF0000" d="M455.3,252.5c-1.6,0-3.2-0.8-4.2-2.3c-1.5-2.3-0.9-5.4,1.5-6.9c5.6-3.6,11.3-7.3,17-10.8
	c2.3-1.5,5.4-0.7,6.9,1.6c1.5,2.3,0.7,5.4-1.6,6.9c-5.6,3.5-11.3,7.1-16.8,10.7C457.1,252.2,456.2,252.5,455.3,252.5z"/>
<path fill="#FF0000" d="M507.5,232.4c-1.3,0-2.6-0.5-3.5-1.5c-1.6-1.6-3.7-2.5-6-2.5c-1.6,0-3.2,0.5-4.6,1.4
	c-0.3,0.2-0.6,0.3-0.9,0.5l-0.7,0.4c-2.4,1.4-5.4,0.6-6.8-1.8c-1.4-2.4-0.6-5.4,1.8-6.8l1.3-0.8c0.2-0.1,0.3-0.2,0.5-0.3
	c2.9-1.7,6.2-2.7,9.5-2.7c4.9,0,9.6,2,13.1,5.4c1.9,2,1.9,5.1,0,7.1C510.1,231.9,508.8,232.4,507.5,232.4z"/>
<path fill="#00FF00" d="M593.6,328.9c-6.1,0-11.7-3-15.1-8c-1.6-2.3-1-5.4,1.3-6.9c2.3-1.6,5.4-1,6.9,1.3c1.6,2.3,4.1,3.6,6.9,3.6
	c1.5,0,2.9-0.4,4.2-1.1c2.4-1.4,5.4-0.6,6.8,1.8c1.4,2.4,0.6,5.4-1.8,6.8C600,328,596.8,328.9,593.6,328.9z"/>
<path fill="#00FF00" d="M1347.8,325.6c-0.8,0-1.7-0.2-2.4-0.6l-1.4-0.8c-2.4-1.3-3.3-4.4-1.9-6.8c1.4-2.4,4.4-3.3,6.8-1.9l1.4,0.8
	c2.4,1.4,3.3,4.4,1.9,6.8C1351.3,324.7,1349.6,325.6,1347.8,325.6z"/>
<path fill="#00FF00" d="M617.8,317.4c-1.8,0-3.5-1-4.4-2.6c-1.3-2.4-0.4-5.5,2.1-6.8c5.9-3.1,11.9-6.3,17.9-9.2
	c2.5-1.2,5.5-0.2,6.7,2.2c1.2,2.5,0.2,5.5-2.2,6.7c-5.9,3-11.8,6-17.6,9.1C619.4,317.2,618.6,317.4,617.8,317.4z"/>
<path fill="#00FF00" d="M1328.9,315.4c-0.8,0-1.6-0.2-2.3-0.6c-5.8-3.1-11.8-6.1-17.7-9c-2.5-1.2-3.5-4.2-2.3-6.7
	c1.2-2.5,4.2-3.5,6.7-2.3c6,2.9,12,6,17.9,9.1c2.4,1.3,3.4,4.3,2.1,6.8C1332.4,314.4,1330.7,315.4,1328.9,315.4z"/>
<path fill="#00FF00" d="M585.1,305.1c-1.5,0-2.9-0.6-3.9-1.9c-1.7-2.2-1.4-5.3,0.8-7c0.3-0.2,0.5-0.4,0.8-0.6
	c0.3-0.3,0.6-0.5,0.9-0.7c5-2.9,10.1-5.7,15.2-8.5c2.4-1.3,5.5-0.4,6.8,2s0.4,5.5-2,6.8c-4.6,2.5-9.3,5.1-13.9,7.7
	c-0.2,0.1-0.3,0.2-0.5,0.3c-0.4,0.2-0.7,0.5-1.1,0.7C587.3,304.7,586.2,305.1,585.1,305.1z"/>
<path fill="#00FF00" d="M1367.5,305.1c-0.3,0-0.6,0-0.8-0.1c-1.7-0.3-3.4-0.8-4.9-1.6c-0.1-0.1-0.3-0.1-0.4-0.2l-0.9-0.6
	c-4.3-2.4-8.7-4.9-13-7.2c-2.4-1.3-3.3-4.3-2-6.8c1.3-2.4,4.4-3.3,6.8-2c4.4,2.4,8.9,4.9,13.3,7.3c0,0,0.1,0,0.1,0.1l0.8,0.5
	c0.7,0.3,1.4,0.5,2.1,0.6c2.7,0.5,4.6,3,4.1,5.8C1372,303.4,1369.9,305.1,1367.5,305.1z"/>
<path fill="#00FF00" d="M653.6,299.5c-1.9,0-3.7-1.1-4.5-2.9c-1.2-2.5-0.1-5.5,2.4-6.6c6-2.8,12.2-5.6,18.3-8.3
	c2.5-1.1,5.5,0.1,6.6,2.6c1.1,2.5-0.1,5.5-2.6,6.6c-6.1,2.7-12.2,5.4-18.1,8.2C655,299.4,654.3,299.5,653.6,299.5z"/>
<path fill="#00FF00" d="M1293,297.7c-0.7,0-1.4-0.1-2.1-0.5c-6-2.8-12.1-5.5-18.2-8.1c-2.5-1.1-3.7-4-2.6-6.6c1.1-2.5,4-3.7,6.6-2.6
	c6.2,2.6,12.3,5.4,18.4,8.2c2.5,1.2,3.6,4.1,2.5,6.6C1296.7,296.6,1294.9,297.7,1293,297.7z"/>
<path fill="#00FF00" d="M1382.8,295.1c-0.4,0-0.8,0-1.2-0.2c-2.7-0.7-4.3-3.4-3.6-6.1c0.2-0.7,0.3-1.4,0.3-2.1
	c0-3.3-1.8-6.2-4.8-7.6c-0.2-0.1-0.3-0.2-0.5-0.3l-1.3-0.8c-2.3-1.4-3.1-4.4-1.8-6.8c1.4-2.4,4.4-3.3,6.8-1.9l0.1,0
	c0.1,0,0.1,0.1,0.2,0.1l1.1,0.7c6.2,3.1,10.2,9.5,10.2,16.5c0,1.5-0.2,3-0.6,4.5C1387,293.6,1385,295.1,1382.8,295.1z"/>
<path fill="#00FF00" d="M1332.1,286.8c-0.8,0-1.5-0.2-2.3-0.5c-5.9-3-11.9-5.9-17.8-8.8c-2.5-1.2-3.5-4.2-2.4-6.7
	c1.2-2.5,4.2-3.5,6.7-2.4c6,2.9,12.1,5.9,18,8.9c2.5,1.3,3.4,4.3,2.2,6.7C1335.6,285.8,1333.9,286.8,1332.1,286.8z"/>
<path fill="#00FF00" d="M619,286.5c-1.8,0-3.6-1-4.5-2.7c-1.3-2.5-0.3-5.5,2.2-6.7c5.9-3,12-6,18.1-8.9c2.5-1.2,5.5-0.1,6.7,2.4
	c1.2,2.5,0.1,5.5-2.4,6.7c-6,2.8-12,5.8-17.8,8.8C620.6,286.4,619.8,286.5,619,286.5z"/>
<path fill="#00FF00" d="M690.2,283.5c-2,0-3.8-1.2-4.6-3.1c-1-2.6,0.2-5.5,2.8-6.5c6.2-2.5,12.5-5,18.8-7.3c2.6-1,5.5,0.3,6.4,2.9
	c1,2.6-0.3,5.5-2.9,6.4c-6.2,2.3-12.4,4.8-18.5,7.2C691.5,283.4,690.8,283.5,690.2,283.5z"/>
<path fill="#00FF00" d="M1256.3,281.9c-0.6,0-1.2-0.1-1.8-0.4c-6.1-2.4-12.4-4.8-18.5-7.1c-2.6-1-3.9-3.8-3-6.4c1-2.6,3.8-3.9,6.4-3
	c6.3,2.3,12.6,4.7,18.8,7.2c2.6,1,3.8,3.9,2.8,6.5C1260.1,280.7,1258.2,281.9,1256.3,281.9z"/>
<path fill="#00FF00" d="M570.6,281.2c-2.4,0-4.5-1.7-4.9-4.2c-0.5-2.7,1.4-5.3,4.1-5.8c1-0.2,2-0.5,2.9-1.1c0,0,0.1,0,0.1-0.1
	c4.3-2.4,8.8-4.9,13.3-7.3c2.4-1.3,5.5-0.4,6.8,2.1s0.4,5.5-2.1,6.8c-4.5,2.4-8.9,4.8-13.1,7.2c-1.9,1.1-4,1.9-6.2,2.3
	C571.2,281.1,570.9,281.2,570.6,281.2z"/>
<path fill="#00FF00" d="M555.3,271.3c-2.2,0-4.2-1.4-4.8-3.6c-0.5-1.8-0.8-3.6-0.8-5.4c0-6,2.9-11.3,7.8-14.2
	c1.3-0.7,2.5-1.4,3.8-2.1c2.4-1.4,5.5-0.5,6.8,1.9c1.4,2.4,0.5,5.5-1.9,6.8c-1.2,0.7-2.5,1.4-3.7,2.1c-1.7,1-2.8,3.1-2.8,5.5
	c0,0.8,0.1,1.7,0.4,2.6c0.8,2.6-0.7,5.4-3.4,6.2C556.2,271.2,555.8,271.3,555.3,271.3z"/>
<path fill="#00FF00" d="M1296,269.5c-0.7,0-1.4-0.1-2-0.4c-4.8-2.1-9.7-4.3-14.5-6.3c-1.2-0.5-2.5-1-3.7-1.6c-2.5-1.1-3.8-4-2.7-6.5
	c1.1-2.5,4-3.8,6.5-2.7c1.3,0.5,2.5,1,3.7,1.6c4.9,2.1,9.9,4.2,14.7,6.4c2.5,1.1,3.7,4.1,2.5,6.6
	C1299.7,268.4,1297.9,269.5,1296,269.5z"/>
<path fill="#00FF00" d="M727.7,269.4c-2.1,0-4-1.3-4.7-3.4c-0.9-2.6,0.5-5.5,3.1-6.4c6.3-2.2,12.7-4.3,19.1-6.3
	c2.6-0.8,5.4,0.6,6.3,3.3c0.8,2.6-0.6,5.4-3.3,6.3c-6.3,2-12.6,4.1-18.9,6.2C728.7,269.4,728.2,269.4,727.7,269.4z"/>
<path fill="#00FF00" d="M655.1,269.3c-1.9,0-3.7-1.1-4.6-3c-1.1-2.5,0-5.5,2.5-6.6c4.7-2.1,9.5-4.2,14.3-6.2
	c1.4-0.6,2.8-1.2,4.2-1.8c2.6-1.1,5.5,0.1,6.5,2.7c1.1,2.6-0.1,5.5-2.7,6.5c-1.4,0.6-2.8,1.1-4.1,1.7c-4.7,2-9.5,4.1-14.1,6.1
	C656.5,269.2,655.8,269.3,655.1,269.3z"/>
<path fill="#00FF00" d="M1356.6,269.3c-0.8,0-1.6-0.2-2.3-0.6c-5.8-3.1-11.8-6.2-17.7-9.1c-2.5-1.2-3.5-4.2-2.2-6.7
	c1.2-2.5,4.2-3.5,6.7-2.2c6,3,12,6.1,17.9,9.2c2.4,1.3,3.4,4.3,2.1,6.8C1360.1,268.3,1358.4,269.3,1356.6,269.3z"/>
<path fill="#00FF00" d="M1218.7,268.1c-0.5,0-1.1-0.1-1.6-0.3c-6.2-2.1-12.6-4.2-18.9-6.1c-2.6-0.8-4.1-3.6-3.3-6.3
	c0.8-2.6,3.6-4.1,6.3-3.3c6.4,2,12.8,4.1,19.2,6.2c2.6,0.9,4,3.7,3.1,6.3C1222.8,266.8,1220.8,268.1,1218.7,268.1z"/>
<path fill="#00FF00" d="M606.2,263c-1.8,0-3.6-1-4.5-2.7c-1.2-2.5-0.3-5.5,2.2-6.7c5.9-3,12-6,18.1-8.9c2.5-1.2,5.5-0.1,6.7,2.4
	c1.2,2.5,0.1,5.5-2.4,6.7c-6,2.9-12,5.8-17.9,8.8C607.7,262.8,607,263,606.2,263z"/>
<path fill="#00FF00" d="M765.8,257.4c-2.2,0-4.2-1.4-4.8-3.6c-0.8-2.7,0.8-5.4,3.4-6.2c6.4-1.8,13-3.6,19.4-5.3
	c2.7-0.7,5.4,0.9,6.1,3.6c0.7,2.7-0.9,5.4-3.6,6.1c-6.4,1.6-12.8,3.4-19.2,5.2C766.7,257.3,766.2,257.4,765.8,257.4z"/>
<path fill="#00FF00" d="M1394,257.2c-2.6,0-5.2-0.6-7.6-1.7c-0.3-0.1-0.7-0.2-1-0.4l-1.1-0.6c-2.4-1.3-3.3-4.4-1.9-6.8
	c1.3-2.4,4.4-3.3,6.8-1.9l0,0c0.3,0.1,0.5,0.2,0.8,0.4c1.3,0.7,2.6,1.1,4.1,1.1c2.4,0,4.7-1,6.3-2.8c1.9-2,5-2.2,7.1-0.3
	c2,1.9,2.2,5,0.3,7.1C1404.2,255,1399.2,257.2,1394,257.2z"/>
<path fill="#00FF00" d="M1180.5,256.3c-0.4,0-0.9-0.1-1.4-0.2c-6.3-1.8-12.8-3.5-19.2-5.1c-2.7-0.7-4.3-3.4-3.6-6.1
	c0.7-2.7,3.4-4.3,6.1-3.6c6.5,1.6,13,3.4,19.5,5.2c2.7,0.7,4.2,3.5,3.5,6.2C1184.7,254.8,1182.7,256.3,1180.5,256.3z"/>
<path fill="#00FF00" d="M1259.1,254.1c-0.6,0-1.2-0.1-1.8-0.3c-6.2-2.4-12.4-4.7-18.6-6.9c-2.6-0.9-4-3.8-3-6.4c0.9-2.6,3.8-4,6.4-3
	c6.3,2.3,12.6,4.6,18.9,7c2.6,1,3.9,3.9,2.9,6.5C1263,252.9,1261.1,254.1,1259.1,254.1z"/>
<path fill="#00FF00" d="M692.1,254c-2,0-3.9-1.2-4.7-3.2c-1-2.6,0.3-5.5,2.9-6.5c6.2-2.4,12.6-4.8,18.9-7c2.6-0.9,5.5,0.4,6.4,3
	c0.9,2.6-0.4,5.5-3,6.4c-6.2,2.2-12.5,4.5-18.6,6.9C693.3,253.9,692.7,254,692.1,254z"/>
<path fill="#00FF00" d="M1320.8,251.4c-0.7,0-1.4-0.2-2.1-0.5c-6-2.8-12-5.6-18.1-8.2c-2.5-1.1-3.7-4.1-2.6-6.6
	c1.1-2.5,4.1-3.7,6.6-2.6c6.1,2.7,12.3,5.5,18.3,8.3c2.5,1.2,3.6,4.2,2.4,6.7C1324.5,250.4,1322.7,251.4,1320.8,251.4z"/>
<path fill="#00FF00" d="M804.5,247.4c-2.3,0-4.3-1.6-4.9-3.9c-0.6-2.7,1.1-5.4,3.8-6c6.5-1.5,13.1-2.9,19.7-4.2
	c2.7-0.5,5.3,1.2,5.9,3.9c0.5,2.7-1.2,5.3-3.9,5.9c-6.5,1.3-13,2.7-19.4,4.2C805.3,247.4,804.9,247.4,804.5,247.4z"/>
<path fill="#00FF00" d="M1141.7,246.5c-0.4,0-0.7,0-1.1-0.1c-6.4-1.4-13-2.8-19.4-4.1c-2.7-0.5-4.5-3.2-3.9-5.9
	c0.5-2.7,3.2-4.5,5.9-3.9c6.6,1.3,13.2,2.7,19.7,4.1c2.7,0.6,4.4,3.3,3.8,6C1146.1,244.9,1144,246.5,1141.7,246.5z"/>
<path fill="#00FF00" d="M581.3,245.8c-1.8,0-3.5-1-4.4-2.7c-1.3-2.4-0.4-5.5,2.1-6.8c5.9-3.1,11.9-6.2,17.9-9.2
	c2.5-1.2,5.5-0.2,6.7,2.2c1.2,2.5,0.2,5.5-2.2,6.7c-5.9,3-11.8,6-17.7,9.1C582.9,245.6,582.1,245.8,581.3,245.8z"/>
<path fill="#00FF00" d="M642.3,245.7c-1.9,0-3.7-1.1-4.6-2.9c-1.1-2.5,0-5.5,2.5-6.6c5.6-2.5,11.3-5,16.7-7.3l1.7-0.7
	c2.5-1.1,5.5,0.1,6.5,2.7c1.1,2.5-0.1,5.5-2.7,6.5l-1.7,0.7c-5.4,2.3-11,4.7-16.5,7.3C643.7,245.6,643,245.7,642.3,245.7z"/>
<path fill="#00FF00" d="M1369.1,245.5c-0.8,0-1.6-0.2-2.3-0.6c-5.8-3.1-11.8-6.1-17.7-9.1c-2.5-1.2-3.5-4.2-2.2-6.7
	c1.2-2.5,4.2-3.5,6.7-2.2c6,3,12,6.1,17.9,9.2c2.4,1.3,3.4,4.3,2.1,6.8C1372.6,244.6,1370.9,245.5,1369.1,245.5z"/>
<path fill="#00FF00" d="M1221.4,240.6c-0.5,0-1-0.1-1.6-0.3c-6.3-2.1-12.6-4.1-18.9-6c-2.6-0.8-4.1-3.6-3.3-6.2
	c0.8-2.6,3.6-4.1,6.2-3.3c6.4,1.9,12.8,4,19.2,6.1c2.6,0.9,4,3.7,3.2,6.3C1225.5,239.3,1223.5,240.6,1221.4,240.6z"/>
<path fill="#00FF00" d="M729.7,240.5c-2.1,0-4.1-1.3-4.7-3.4c-0.9-2.6,0.6-5.4,3.2-6.3c6.4-2.1,12.8-4.1,19.2-6
	c2.6-0.8,5.4,0.7,6.2,3.3c0.8,2.6-0.7,5.4-3.3,6.2c-6.3,1.9-12.7,3.9-19,6C730.8,240.4,730.2,240.5,729.7,240.5z"/>
<path fill="#00FF00" d="M843.7,239.5c-2.4,0-4.5-1.7-4.9-4.1c-0.5-2.7,1.3-5.3,4.1-5.8c6.6-1.1,13.3-2.2,19.9-3.2
	c2.7-0.4,5.3,1.5,5.7,4.2c0.4,2.7-1.5,5.3-4.2,5.7c-6.5,1-13.1,2-19.6,3.1C844.3,239.5,844,239.5,843.7,239.5z"/>
<path fill="#00FF00" d="M1102.5,238.8c-0.3,0-0.6,0-0.8-0.1c-6.5-1.1-13.1-2.1-19.6-3c-2.7-0.4-4.6-2.9-4.3-5.6
	c0.4-2.7,2.9-4.6,5.7-4.3c6.6,0.9,13.3,2,19.9,3.1c2.7,0.5,4.6,3,4.1,5.8C1107,237.1,1104.9,238.8,1102.5,238.8z"/>
<path fill="#00FF00" d="M1284.2,235.3c-0.6,0-1.3-0.1-1.9-0.4c-6.1-2.5-12.3-5-18.5-7.3c-2.6-1-3.9-3.9-2.9-6.5
	c1-2.6,3.9-3.9,6.5-2.9c6.2,2.4,12.5,4.9,18.7,7.4c2.6,1.1,3.8,4,2.7,6.5C1288.1,234.2,1286.2,235.3,1284.2,235.3z"/>
<path fill="#00FF00" d="M543.8,235.3c-2.3,0-4.4-1.6-4.9-4c-0.5-2.7,1.2-5.3,3.9-5.9c0.9-0.2,1.8-0.5,2.6-1l0.5-0.3
	c0.1-0.1,0.2-0.1,0.3-0.2c4.3-2.4,8.6-4.8,12.9-7.2c2.4-1.3,5.5-0.4,6.8,2c1.3,2.4,0.4,5.5-2,6.8c-4.2,2.3-8.5,4.7-12.6,7l-0.4,0.3
	c-0.1,0-0.1,0.1-0.2,0.1c-1.8,1.1-3.8,1.8-5.8,2.2C544.5,235.2,544.1,235.3,543.8,235.3z"/>
<path fill="#00FF00" d="M1403.8,234.6c-1.3,0-2.7-0.5-3.6-1.6c-0.5-0.5-1.1-1-1.8-1.4l-0.6-0.3c-0.1-0.1-0.3-0.1-0.4-0.2
	c-4.3-2.4-8.7-4.8-13.1-7.2c-2.4-1.3-3.3-4.3-2-6.8s4.3-3.3,6.8-2c4.4,2.4,8.8,4.8,13.1,7.2l0.7,0.3c0.2,0.1,0.3,0.2,0.5,0.2
	c1.6,0.9,3,2,4.2,3.3c1.9,2,1.8,5.2-0.2,7.1C1406.3,234.1,1405.1,234.6,1403.8,234.6z"/>
<path fill="#00FF00" d="M883.3,233.7c-2.5,0-4.7-1.9-5-4.4c-0.3-2.7,1.6-5.2,4.4-5.6c6.6-0.8,13.4-1.5,20-2.1
	c2.7-0.3,5.2,1.8,5.4,4.5c0.3,2.7-1.8,5.2-4.5,5.4c-6.6,0.6-13.2,1.3-19.8,2.1C883.7,233.7,883.5,233.7,883.3,233.7z"/>
<path fill="#00FF00" d="M1062.9,233.2c-0.2,0-0.4,0-0.6,0c-6.5-0.7-13.2-1.4-19.8-2c-2.8-0.2-4.8-2.7-4.5-5.4
	c0.2-2.8,2.7-4.8,5.4-4.5c6.7,0.6,13.4,1.3,20,2c2.7,0.3,4.7,2.8,4.4,5.5C1067.6,231.3,1065.4,233.2,1062.9,233.2z"/>
<path fill="#00FF00" d="M679.2,230.2c-2,0-3.9-1.2-4.7-3.2c-1-2.6,0.3-5.5,2.8-6.5c6.2-2.4,12.6-4.8,18.8-7.1c2.6-0.9,5.5,0.4,6.4,3
	c0.9,2.6-0.4,5.5-3,6.4c-6.2,2.3-12.4,4.6-18.6,7C680.4,230.1,679.8,230.2,679.2,230.2z"/>
<path fill="#00FF00" d="M923.1,230c-2.6,0-4.8-2-5-4.7c-0.2-2.8,1.9-5.1,4.7-5.3c6.7-0.4,13.4-0.8,20.1-1.1c2.7-0.1,5.1,2,5.2,4.8
	c0.1,2.8-2,5.1-4.8,5.2c-6.6,0.3-13.3,0.6-19.8,1.1C923.3,230,923.2,230,923.1,230z"/>
<path fill="#00FF00" d="M1023.1,229.7c-0.1,0-0.2,0-0.3,0c-6.6-0.4-13.3-0.7-19.8-1c-2.8-0.1-4.9-2.4-4.8-5.2
	c0.1-2.8,2.4-4.9,5.2-4.8c6.7,0.2,13.4,0.6,20.1,1c2.8,0.2,4.9,2.5,4.7,5.3C1027.9,227.7,1025.7,229.7,1023.1,229.7z"/>
<path fill="#00FF00" d="M1183.1,229.1c-0.4,0-0.9-0.1-1.3-0.2c-6.4-1.7-12.8-3.4-19.2-5c-2.7-0.7-4.3-3.4-3.7-6s3.4-4.3,6-3.7
	c6.5,1.6,13,3.3,19.5,5.1c2.7,0.7,4.2,3.5,3.5,6.1C1187.3,227.6,1185.3,229.1,1183.1,229.1z"/>
<path fill="#00FF00" d="M768,229c-2.2,0-4.2-1.5-4.8-3.7c-0.7-2.7,0.8-5.4,3.5-6.1c6.4-1.8,13-3.5,19.5-5c2.7-0.7,5.4,1,6,3.7
	c0.7,2.7-1,5.4-3.7,6c-6.4,1.6-12.9,3.2-19.2,5C768.9,228.9,768.5,229,768,229z"/>
<path fill="#00FF00" d="M963.1,228.3c-2.7,0-5-2.2-5-4.9c0-2.8,2.2-5,4.9-5.1c6.7-0.1,13.4-0.1,20.1-0.1c2.8,0,5,2.3,5,5
	c0,2.7-2.3,5-5,5c0,0,0,0-0.1,0C976.4,228.2,969.7,228.2,963.1,228.3C963.1,228.3,963.1,228.3,963.1,228.3z"/>
<path fill="#00FF00" d="M617.1,227.8c-1.9,0-3.7-1.1-4.5-2.9c-1.2-2.5-0.1-5.5,2.4-6.7c6-2.9,12.2-5.7,18.3-8.4
	c2.5-1.1,5.5,0,6.6,2.5c1.1,2.5,0,5.5-2.5,6.6c-6,2.7-12.1,5.5-18.1,8.3C618.5,227.7,617.8,227.8,617.1,227.8z"/>
<path fill="#00FF00" d="M1333.3,227.7c-0.7,0-1.4-0.2-2.1-0.5c-6-2.8-12-5.6-18.1-8.3c-2.5-1.1-3.7-4.1-2.5-6.6
	c1.1-2.5,4.1-3.7,6.6-2.5c6.1,2.7,12.3,5.5,18.3,8.4c2.5,1.2,3.6,4.2,2.4,6.7C1337,226.6,1335.2,227.7,1333.3,227.7z"/>
<path fill="#00FF00" d="M528.2,225.8c-2.1,0-4.1-1.3-4.8-3.5c-0.6-1.9-0.9-3.9-0.9-5.9c0-5.9,2.8-11.1,7.5-14l0.6-0.4
	c0.2-0.1,0.3-0.2,0.5-0.3l2.5-1.4c2.4-1.4,5.5-0.5,6.8,1.9c1.4,2.4,0.5,5.5-1.9,6.8l-2.2,1.3l-0.5,0.4c-0.2,0.1-0.3,0.2-0.5,0.3
	c-1.8,1-2.8,3.1-2.8,5.5c0,0.9,0.2,1.9,0.4,2.8c0.8,2.6-0.6,5.4-3.2,6.3C529.2,225.7,528.7,225.8,528.2,225.8z"/>
<path fill="#00FF00" d="M1246.9,221c-0.6,0-1.1-0.1-1.7-0.3c-6.2-2.2-12.5-4.4-18.8-6.4c-2.6-0.9-4.1-3.7-3.2-6.3
	c0.9-2.6,3.7-4.1,6.3-3.2c6.4,2.1,12.8,4.3,19,6.5c2.6,0.9,4,3.8,3,6.4C1250.9,219.7,1248.9,221,1246.9,221z"/>
<path fill="#00FF00" d="M1144.3,219.5c-0.4,0-0.7,0-1.1-0.1c-6.4-1.4-13-2.8-19.5-4c-2.7-0.5-4.5-3.1-4-5.9c0.5-2.7,3.1-4.5,5.9-4
	c6.6,1.3,13.2,2.6,19.7,4c2.7,0.6,4.4,3.3,3.8,6C1148.7,217.9,1146.6,219.5,1144.3,219.5z"/>
<path fill="#00FF00" d="M806.9,219.5c-2.3,0-4.4-1.6-4.9-3.9c-0.6-2.7,1.1-5.4,3.8-6c6.5-1.4,13.2-2.8,19.7-4c2.7-0.5,5.3,1.3,5.9,4
	c0.5,2.7-1.3,5.3-4,5.9c-6.5,1.2-13,2.6-19.5,4C807.6,219.4,807.2,219.5,806.9,219.5z"/>
<path fill="#00FF00" d="M579.2,216.7c-1.8,0-3.6-1-4.4-2.7c-1.3-2.5-0.3-5.5,2.2-6.7c5.9-3,12-6.1,18-9c2.5-1.2,5.5-0.2,6.7,2.3
	c1.2,2.5,0.2,5.5-2.3,6.7c-5.9,2.9-11.9,5.9-17.8,8.9C580.7,216.6,580,216.7,579.2,216.7z"/>
<path fill="#00FF00" d="M716.7,216.5c-2.1,0-4-1.3-4.7-3.4c-0.9-2.6,0.5-5.5,3.1-6.3c6.3-2.1,12.8-4.2,19.2-6.2
	c2.6-0.8,5.4,0.7,6.3,3.3c0.8,2.6-0.7,5.4-3.3,6.3c-6.3,1.9-12.7,4-18.9,6.1C717.8,216.5,717.3,216.5,716.7,216.5z"/>
<path fill="#00FF00" d="M1368.9,215.2c-0.8,0-1.5-0.2-2.3-0.5c-5.8-3-11.8-5.9-17.8-8.8c-2.5-1.2-3.5-4.2-2.3-6.7
	c1.2-2.5,4.2-3.5,6.7-2.3c6,2.9,12.1,5.9,18,8.9c2.5,1.3,3.4,4.3,2.2,6.7C1372.5,214.2,1370.7,215.2,1368.9,215.2z"/>
<path fill="#00FF00" d="M1105,212c-0.3,0-0.5,0-0.8-0.1c-6.5-1.1-13.1-2.1-19.6-3c-2.7-0.4-4.6-2.9-4.3-5.6c0.4-2.7,2.9-4.6,5.6-4.3
	c6.6,0.9,13.3,1.9,19.9,3c2.7,0.4,4.6,3,4.1,5.7C1109.5,210.3,1107.4,212,1105,212z"/>
<path fill="#00FF00" d="M846.1,212c-2.4,0-4.5-1.7-4.9-4.2c-0.4-2.7,1.4-5.3,4.1-5.7c6.6-1.1,13.3-2.1,19.9-3
	c2.7-0.4,5.3,1.5,5.6,4.3c0.4,2.7-1.5,5.3-4.3,5.6c-6.5,0.9-13.2,1.9-19.6,3C846.7,211.9,846.4,212,846.1,212z"/>
<path fill="#00FF00" d="M653.6,211.6c-2,0-3.8-1.2-4.6-3.1c-1.1-2.5,0.1-5.5,2.7-6.5c6.2-2.6,12.4-5.1,18.7-7.5
	c2.6-1,5.5,0.3,6.5,2.9c1,2.6-0.3,5.5-2.9,6.5c-6.1,2.4-12.4,4.9-18.4,7.4C654.9,211.5,654.3,211.6,653.6,211.6z"/>
<path fill="#00FF00" d="M1296.8,211.4c-0.6,0-1.3-0.1-1.9-0.4c-6.1-2.5-12.3-5-18.5-7.4c-2.6-1-3.9-3.9-2.9-6.5
	c1-2.6,3.9-3.9,6.5-2.9c6.2,2.4,12.5,4.9,18.7,7.5c2.6,1.1,3.8,4,2.7,6.5C1300.6,210.3,1298.7,211.4,1296.8,211.4z"/>
<path fill="#00FF00" d="M1416,210.1c-0.9,0-1.8-0.2-2.6-0.7c-0.7-0.4-1.4-0.8-2.1-1.2c-0.8-0.4-1.5-0.9-2.3-1.3
	c-4.3-2.4-8.6-4.7-12.8-7c-2.4-1.3-3.3-4.3-2-6.8c1.3-2.4,4.3-3.3,6.8-2c4.3,2.3,8.7,4.7,13,7.2c0,0,0.1,0,0.1,0.1
	c0.7,0.4,1.4,0.8,2.1,1.2c0.8,0.4,1.6,0.9,2.4,1.4c2.4,1.4,3.1,4.5,1.7,6.9C1419.4,209.3,1417.7,210.1,1416,210.1z"/>
<path fill="#00FF00" d="M1208.9,208.6c-0.5,0-1-0.1-1.4-0.2c-6.3-1.9-12.7-3.7-19.1-5.5c-2.7-0.7-4.2-3.5-3.5-6.1
	c0.7-2.7,3.5-4.2,6.1-3.5c6.4,1.8,12.9,3.6,19.3,5.5c2.6,0.8,4.1,3.6,3.4,6.2C1213,207.2,1211,208.6,1208.9,208.6z"/>
<path fill="#00FF00" d="M1065.4,206.5c-0.2,0-0.4,0-0.6,0c-6.6-0.7-13.2-1.4-19.8-2c-2.8-0.2-4.8-2.7-4.5-5.4
	c0.2-2.8,2.7-4.8,5.4-4.5c6.7,0.6,13.4,1.3,20,2c2.7,0.3,4.7,2.8,4.4,5.5C1070.1,204.6,1067.9,206.5,1065.4,206.5z"/>
<path fill="#00FF00" d="M885.8,206.5c-2.5,0-4.7-1.9-5-4.4c-0.3-2.7,1.7-5.2,4.4-5.5c6.6-0.7,13.4-1.4,20-2c2.8-0.2,5.2,1.8,5.4,4.5
	s-1.8,5.2-4.5,5.4c-6.6,0.6-13.2,1.2-19.8,2C886.1,206.4,885.9,206.5,885.8,206.5z"/>
<path fill="#00FF00" d="M755,204.7c-2.2,0-4.2-1.4-4.8-3.6c-0.7-2.7,0.8-5.4,3.5-6.2c6.4-1.8,13-3.6,19.4-5.2
	c2.7-0.7,5.4,0.9,6.1,3.6c0.7,2.7-0.9,5.4-3.6,6.1c-6.4,1.6-12.9,3.4-19.2,5.1C755.9,204.7,755.4,204.7,755,204.7z"/>
<path fill="#00FF00" d="M1025.6,203c-0.1,0-0.2,0-0.3,0c-6.6-0.4-13.3-0.7-19.8-1c-2.8-0.1-4.9-2.4-4.8-5.2s2.4-4.9,5.2-4.8
	c6.7,0.2,13.4,0.6,20.1,1c2.8,0.2,4.9,2.5,4.7,5.3C1030.4,201,1028.2,203,1025.6,203z"/>
<path fill="#00FF00" d="M925.6,203c-2.6,0-4.8-2-5-4.7c-0.2-2.8,1.9-5.1,4.7-5.3c6.6-0.4,13.4-0.7,20.1-1c2.8-0.1,5.1,2.1,5.2,4.8
	c0.1,2.8-2.1,5.1-4.8,5.2c-6.6,0.2-13.3,0.6-19.9,1C925.8,203,925.7,203,925.6,203z"/>
<path fill="#00FF00" d="M985.6,201.5C985.6,201.5,985.5,201.5,985.6,201.5c-6.7-0.1-13.3-0.1-19.9,0c0,0,0,0-0.1,0
	c-2.7,0-5-2.2-5-4.9c0-2.8,2.2-5,4.9-5.1c6.7-0.1,13.4-0.1,20.1,0c2.8,0,5,2.3,4.9,5.1C990.5,199.3,988.3,201.5,985.6,201.5z"/>
<path fill="#00FF00" d="M553.7,200c-1.8,0-3.5-1-4.4-2.6c-1.3-2.4-0.4-5.5,2-6.8c5.9-3.1,11.9-6.3,17.8-9.3c2.5-1.2,5.5-0.3,6.7,2.2
	c1.2,2.5,0.3,5.5-2.2,6.7c-5.9,3-11.8,6.1-17.6,9.2C555.3,199.8,554.5,200,553.7,200z"/>
<path fill="#00FF00" d="M615.2,199.3c-1.9,0-3.7-1.1-4.5-2.9c-1.1-2.5,0-5.5,2.5-6.6c6-2.8,12.2-5.5,18.4-8.2
	c2.5-1.1,5.5,0.1,6.6,2.6c1.1,2.5-0.1,5.5-2.6,6.6c-6.1,2.6-12.2,5.3-18.2,8.1C616.6,199.1,615.9,199.3,615.2,199.3z"/>
<path fill="#00FF00" d="M1170.3,198c-0.4,0-0.8,0-1.2-0.1c-6.4-1.6-12.9-3.1-19.4-4.5c-2.7-0.6-4.4-3.3-3.8-6c0.6-2.7,3.3-4.4,6-3.8
	c6.5,1.4,13.1,3,19.6,4.6c2.7,0.7,4.3,3.4,3.7,6.1C1174.6,196.5,1172.5,198,1170.3,198z"/>
<path fill="#00FF00" d="M1332.9,197.9c-0.7,0-1.4-0.1-2.1-0.4c-6-2.7-12.1-5.4-18.2-8c-2.5-1.1-3.7-4-2.6-6.6c1.1-2.5,4-3.7,6.6-2.6
	c6.2,2.6,12.4,5.4,18.4,8.1c2.5,1.1,3.6,4.1,2.5,6.6C1336.6,196.8,1334.8,197.9,1332.9,197.9z"/>
<path fill="#00FF00" d="M690.9,197.2c-2,0-4-1.3-4.7-3.3c-0.9-2.6,0.4-5.5,3-6.4c6.3-2.3,12.7-4.5,19-6.6c2.6-0.9,5.5,0.5,6.3,3.2
	c0.9,2.6-0.5,5.5-3.2,6.3c-6.2,2.1-12.6,4.3-18.8,6.5C692,197.1,691.5,197.2,690.9,197.2z"/>
<path fill="#00FF00" d="M1259.5,197c-0.6,0-1.1-0.1-1.7-0.3c-6.2-2.2-12.5-4.4-18.8-6.5c-2.6-0.9-4-3.7-3.2-6.3
	c0.9-2.6,3.7-4,6.3-3.2c6.3,2.1,12.7,4.3,19,6.6c2.6,0.9,3.9,3.8,3,6.4C1263.5,195.7,1261.5,197,1259.5,197z"/>
<path fill="#00FF00" d="M793.7,194.9c-2.3,0-4.3-1.6-4.9-3.9c-0.6-2.7,1.1-5.4,3.8-6c6.5-1.5,13.1-2.9,19.7-4.2
	c2.7-0.5,5.3,1.2,5.9,3.9c0.5,2.7-1.2,5.3-3.9,5.9c-6.5,1.3-13,2.7-19.4,4.2C794.5,194.8,794.1,194.9,793.7,194.9z"/>
<path fill="#00FF00" d="M1380.8,191.2c-0.8,0-1.5-0.2-2.3-0.5c-5.9-3-11.9-6-17.8-8.8c-2.5-1.2-3.5-4.2-2.3-6.7
	c1.2-2.5,4.2-3.5,6.7-2.3c6,2.9,12.1,5.9,18,8.9c2.5,1.3,3.4,4.3,2.2,6.7C1384.4,190.2,1382.7,191.2,1380.8,191.2z"/>
<path fill="#00FF00" d="M1131.2,189.4c-0.3,0-0.6,0-1-0.1c-6.5-1.3-13-2.4-19.6-3.5c-2.7-0.5-4.6-3-4.1-5.8c0.5-2.7,3-4.6,5.8-4.1
	c6.6,1.1,13.3,2.3,19.8,3.6c2.7,0.5,4.5,3.2,4,5.9C1135.7,187.8,1133.6,189.4,1131.2,189.4z"/>
<path fill="#00FF00" d="M832.9,186.9c-2.4,0-4.5-1.7-4.9-4.1c-0.5-2.7,1.3-5.3,4.1-5.8c6.6-1.2,13.3-2.3,19.9-3.3
	c2.7-0.4,5.3,1.5,5.7,4.2c0.4,2.7-1.5,5.3-4.2,5.7c-6.5,1-13.1,2.1-19.6,3.2C833.5,186.9,833.2,186.9,832.9,186.9z"/>
<path fill="#00FF00" d="M728.8,184.5c-2.1,0-4.1-1.4-4.8-3.5c-0.8-2.6,0.7-5.4,3.3-6.2c6.4-2,12.9-3.9,19.3-5.7
	c2.7-0.7,5.4,0.8,6.2,3.5s-0.8,5.4-3.5,6.2c-6.4,1.8-12.8,3.7-19.1,5.6C729.8,184.4,729.3,184.5,728.8,184.5z"/>
<path fill="#00FF00" d="M1221.5,184.3c-0.5,0-1-0.1-1.5-0.2c-6.3-1.9-12.7-3.8-19.1-5.6c-2.7-0.7-4.2-3.5-3.5-6.2
	c0.7-2.7,3.5-4.2,6.2-3.5c6.4,1.8,12.9,3.7,19.3,5.7c2.6,0.8,4.1,3.6,3.3,6.2C1225.7,183,1223.7,184.3,1221.5,184.3z"/>
<path fill="#00FF00" d="M651.9,183.4c-2,0-3.9-1.2-4.6-3.1c-1-2.6,0.2-5.5,2.8-6.5c6.2-2.5,12.5-5,18.7-7.3c2.6-1,5.5,0.3,6.4,2.9
	c1,2.6-0.3,5.5-2.9,6.4c-6.2,2.3-12.4,4.8-18.5,7.2C653.2,183.3,652.5,183.4,651.9,183.4z"/>
<path fill="#00FF00" d="M1091.8,182.8c-0.2,0-0.5,0-0.7-0.1c-6.5-0.9-13.2-1.8-19.7-2.6c-2.7-0.3-4.7-2.8-4.4-5.6
	c0.3-2.7,2.8-4.7,5.6-4.4c6.6,0.8,13.3,1.7,20,2.6c2.7,0.4,4.6,2.9,4.2,5.7C1096.4,181,1094.3,182.8,1091.8,182.8z"/>
<path fill="#00FF00" d="M1296.1,182.2c-0.6,0-1.2-0.1-1.9-0.4c-6.1-2.4-12.4-4.8-18.5-7.2c-2.6-1-3.9-3.8-2.9-6.4
	c1-2.6,3.8-3.9,6.4-2.9c6.3,2.3,12.6,4.8,18.8,7.2c2.6,1,3.8,3.9,2.8,6.5C1299.9,181,1298.1,182.2,1296.1,182.2z"/>
<path fill="#00FF00" d="M589.4,181.9c-1.9,0-3.7-1-4.5-2.8c-1.2-2.5-0.1-5.5,2.4-6.7c6-2.9,12.2-5.7,18.2-8.5c2.5-1.1,5.5,0,6.6,2.5
	c1.1,2.5,0,5.5-2.5,6.6c-6,2.7-12.1,5.5-18,8.4C590.8,181.8,590.1,181.9,589.4,181.9z"/>
<path fill="#00FF00" d="M872.5,181c-2.5,0-4.6-1.8-5-4.4c-0.3-2.7,1.6-5.2,4.3-5.6c6.6-0.8,13.4-1.6,20-2.3c2.8-0.3,5.2,1.7,5.5,4.5
	c0.3,2.7-1.7,5.2-4.5,5.5c-6.6,0.7-13.2,1.4-19.7,2.2C872.9,180.9,872.7,181,872.5,181z"/>
<path fill="#00FF00" d="M1052.1,178.1c-0.2,0-0.3,0-0.5,0c-6.6-0.6-13.2-1.1-19.8-1.6c-2.8-0.2-4.8-2.6-4.6-5.3
	c0.2-2.8,2.6-4.8,5.3-4.6c6.7,0.5,13.4,1,20.1,1.6c2.7,0.3,4.8,2.7,4.5,5.4C1056.8,176.2,1054.6,178.1,1052.1,178.1z"/>
<path fill="#00FF00" d="M912.2,176.9c-2.6,0-4.8-2-5-4.6c-0.2-2.8,1.9-5.2,4.6-5.4c6.6-0.5,13.4-0.9,20.1-1.3c2.7-0.2,5.1,2,5.3,4.7
	c0.1,2.8-2,5.1-4.7,5.3c-6.6,0.3-13.3,0.8-19.8,1.3C912.5,176.9,912.4,176.9,912.2,176.9z"/>
<path fill="#00FF00" d="M1012.2,175.4c-0.1,0-0.1,0-0.2,0c-6.6-0.3-13.3-0.5-19.9-0.6c-2.8-0.1-5-2.3-4.9-5.1s2.4-4.9,5.1-4.9
	c6.7,0.1,13.5,0.4,20.1,0.6c2.8,0.1,4.9,2.5,4.8,5.2C1017.1,173.3,1014.8,175.4,1012.2,175.4z"/>
<path fill="#00FF00" d="M952.2,174.9c-2.7,0-4.9-2.1-5-4.9c-0.1-2.8,2.1-5.1,4.9-5.1c6.7-0.2,13.4-0.3,20.1-0.3c0,0,0,0,0,0
	c2.8,0,5,2.2,5,5c0,2.8-2.2,5-5,5c-6.6,0-13.3,0.1-19.9,0.3C952.3,174.9,952.2,174.9,952.2,174.9z"/>
<path fill="#00FF00" d="M1344.8,173.8c-0.7,0-1.4-0.1-2.1-0.4c-6-2.7-12.1-5.4-18.2-8c-2.5-1.1-3.7-4-2.6-6.6c1.1-2.5,4-3.7,6.6-2.6
	c6.1,2.6,12.3,5.3,18.4,8.1c2.5,1.1,3.6,4.1,2.5,6.6C1348.5,172.7,1346.7,173.8,1344.8,173.8z"/>
<path fill="#00FF00" d="M767.3,173.7c-2.2,0-4.3-1.5-4.8-3.8c-0.7-2.7,0.9-5.4,3.6-6.1c6.5-1.7,13-3.2,19.6-4.7
	c2.7-0.6,5.4,1.1,6,3.8c0.6,2.7-1.1,5.4-3.8,6c-6.4,1.5-12.9,3.1-19.3,4.7C768.2,173.6,767.7,173.7,767.3,173.7z"/>
<path fill="#00FF00" d="M1183,173.5c-0.4,0-0.8-0.1-1.2-0.2c-6.4-1.6-12.9-3.2-19.3-4.7c-2.7-0.6-4.4-3.3-3.8-6
	c0.6-2.7,3.3-4.4,6-3.8c6.5,1.5,13.1,3.1,19.6,4.7c2.7,0.7,4.3,3.4,3.6,6.1C1187.3,172,1185.3,173.5,1183,173.5z"/>
<path fill="#00FF00" d="M689.3,169.3c-2.1,0-4-1.3-4.7-3.3c-0.9-2.6,0.5-5.5,3.1-6.4c6.3-2.2,12.7-4.4,19.1-6.4
	c2.6-0.9,5.4,0.6,6.3,3.2c0.9,2.6-0.6,5.4-3.2,6.3c-6.3,2-12.6,4.2-18.8,6.4C690.4,169.3,689.9,169.3,689.3,169.3z"/>
<path fill="#00FF00" d="M1258.6,168.2c-0.5,0-1.1-0.1-1.6-0.3c-6.2-2.2-12.6-4.3-18.9-6.3c-2.6-0.8-4.1-3.7-3.2-6.3
	c0.8-2.6,3.7-4.1,6.3-3.2c6.4,2,12.8,4.2,19.1,6.4c2.6,0.9,4,3.8,3.1,6.4C1262.6,166.9,1260.7,168.2,1258.6,168.2z"/>
<path fill="#00FF00" d="M625.8,165.4c-1.9,0-3.8-1.1-4.6-3c-1.1-2.5,0.1-5.5,2.6-6.6c6.1-2.6,12.4-5.2,18.6-7.7
	c2.6-1,5.5,0.2,6.5,2.8c1,2.6-0.2,5.5-2.8,6.5c-6.1,2.5-12.3,5-18.4,7.6C627.2,165.3,626.5,165.4,625.8,165.4z"/>
<path fill="#00FF00" d="M806.3,164.7c-2.3,0-4.4-1.6-4.9-4c-0.6-2.7,1.2-5.3,3.9-5.9c6.5-1.3,13.2-2.6,19.8-3.8
	c2.7-0.5,5.3,1.3,5.8,4c0.5,2.7-1.3,5.3-4,5.8c-6.5,1.2-13.1,2.4-19.5,3.7C807,164.7,806.6,164.7,806.3,164.7z"/>
<path fill="#00FF00" d="M1144.1,164.6c-0.3,0-0.7,0-1-0.1c-6.5-1.3-13-2.6-19.5-3.7c-2.7-0.5-4.5-3.1-4-5.8c0.5-2.7,3.1-4.5,5.8-4
	c6.6,1.2,13.2,2.4,19.8,3.8c2.7,0.6,4.5,3.2,3.9,5.9C1148.5,163,1146.4,164.6,1144.1,164.6z"/>
<path fill="#00FF00" d="M1308.1,158.1c-0.6,0-1.2-0.1-1.9-0.4c-6.1-2.5-12.4-4.9-18.5-7.2c-2.6-1-3.9-3.9-2.9-6.4
	c1-2.6,3.9-3.9,6.4-2.9c6.2,2.3,12.5,4.8,18.7,7.3c2.6,1,3.8,3.9,2.8,6.5C1311.9,156.9,1310,158.1,1308.1,158.1z"/>
<path fill="#00FF00" d="M845.7,157.7c-2.4,0-4.6-1.8-4.9-4.2c-0.4-2.7,1.4-5.3,4.2-5.7c6.6-1,13.3-2,19.9-2.8
	c2.7-0.4,5.2,1.6,5.6,4.3c0.4,2.7-1.6,5.2-4.3,5.6c-6.5,0.9-13.2,1.8-19.7,2.8C846.2,157.6,845.9,157.7,845.7,157.7z"/>
<path fill="#00FF00" d="M1104.7,157.6c-0.3,0-0.5,0-0.8-0.1c-6.5-1-13.1-1.9-19.7-2.8c-2.7-0.4-4.7-2.9-4.3-5.6
	c0.4-2.7,2.9-4.7,5.6-4.3c6.6,0.9,13.3,1.8,19.9,2.8c2.7,0.4,4.6,3,4.2,5.7C1109.2,155.8,1107.1,157.6,1104.7,157.6z"/>
<path fill="#00FF00" d="M727.4,157c-2.2,0-4.1-1.4-4.8-3.6c-0.8-2.6,0.7-5.4,3.4-6.2c6.4-1.9,12.9-3.8,19.3-5.5
	c2.7-0.7,5.4,0.8,6.1,3.5c0.7,2.7-0.8,5.4-3.5,6.1c-6.4,1.7-12.8,3.6-19.1,5.5C728.3,156.9,727.8,157,727.4,157z"/>
<path fill="#00FF00" d="M1220.5,156c-0.5,0-0.9-0.1-1.4-0.2c-6.3-1.9-12.8-3.7-19.1-5.4c-2.7-0.7-4.2-3.5-3.5-6.1
	c0.7-2.7,3.5-4.2,6.1-3.5c6.5,1.7,13,3.6,19.4,5.5c2.6,0.8,4.2,3.6,3.4,6.2C1224.7,154.6,1222.7,156,1220.5,156z"/>
<path fill="#00FF00" d="M885.3,152.5c-2.5,0-4.7-1.9-5-4.5c-0.3-2.7,1.7-5.2,4.4-5.5c6.6-0.7,13.4-1.3,20-1.9
	c2.8-0.2,5.2,1.8,5.4,4.6c0.2,2.8-1.8,5.2-4.6,5.4c-6.6,0.5-13.2,1.2-19.8,1.9C885.7,152.5,885.5,152.5,885.3,152.5z"/>
<path fill="#00FF00" d="M1065,152.4c-0.2,0-0.4,0-0.5,0c-6.5-0.7-13.2-1.3-19.8-1.9c-2.8-0.2-4.8-2.6-4.6-5.4s2.6-4.8,5.4-4.6
	c6.7,0.5,13.4,1.2,20,1.9c2.7,0.3,4.7,2.8,4.4,5.5C1069.7,150.5,1067.6,152.4,1065,152.4z"/>
<path fill="#00FF00" d="M663,150.6c-2,0-3.9-1.2-4.7-3.3c-1-2.6,0.3-5.5,2.9-6.4c6.3-2.3,12.6-4.6,18.9-6.8c2.6-0.9,5.5,0.5,6.4,3.1
	c0.9,2.6-0.5,5.5-3.1,6.4c-6.2,2.2-12.5,4.4-18.7,6.8C664.2,150.5,663.6,150.6,663,150.6z"/>
<path fill="#00FF00" d="M925.2,149.2c-2.6,0-4.8-2.1-5-4.7c-0.2-2.8,1.9-5.1,4.7-5.3c6.7-0.4,13.4-0.7,20.1-0.9
	c2.7-0.1,5.1,2.1,5.2,4.8c0.1,2.8-2.1,5.1-4.8,5.2c-6.6,0.2-13.3,0.5-19.9,0.9C925.4,149.2,925.3,149.2,925.2,149.2z"/>
<path fill="#00FF00" d="M1025.2,149.2c-0.1,0-0.2,0-0.3,0c-6.6-0.4-13.3-0.7-19.9-0.9c-2.8-0.1-4.9-2.4-4.8-5.2
	c0.1-2.8,2.4-4.9,5.2-4.8c6.7,0.2,13.4,0.5,20.1,0.9c2.8,0.2,4.9,2.5,4.7,5.3C1030,147.1,1027.8,149.2,1025.2,149.2z"/>
<path fill="#00FF00" d="M965.2,147.8c-2.7,0-5-2.2-5-4.9c0-2.8,2.2-5,4.9-5.1c6.7-0.1,13.4-0.1,20.1,0c2.8,0,5,2.3,4.9,5.1
	c0,2.7-2.3,4.9-5,4.9c0,0,0,0-0.1,0C978.5,147.7,971.9,147.7,965.2,147.8C965.2,147.8,965.2,147.8,965.2,147.8z"/>
<path fill="#00FF00" d="M765.9,146.4c-2.2,0-4.3-1.5-4.8-3.8c-0.7-2.7,1-5.4,3.6-6.1c6.5-1.6,13.1-3.2,19.6-4.6
	c2.7-0.6,5.4,1.1,6,3.8s-1.1,5.4-3.8,6c-6.4,1.4-13,3-19.3,4.6C766.7,146.4,766.3,146.4,765.9,146.4z"/>
<path fill="#00FF00" d="M1181.9,145.6c-0.4,0-0.8,0-1.2-0.1c-6.4-1.6-12.9-3.1-19.4-4.5c-2.7-0.6-4.4-3.3-3.8-6
	c0.6-2.7,3.3-4.4,6-3.8c6.5,1.4,13.1,3,19.6,4.6c2.7,0.7,4.3,3.4,3.7,6C1186.2,144.1,1184.1,145.6,1181.9,145.6z"/>
<path fill="#00FF00" d="M1270.6,144c-0.5,0-1.1-0.1-1.7-0.3c-6.2-2.2-12.6-4.3-18.8-6.4c-2.6-0.9-4.1-3.7-3.2-6.3
	c0.9-2.6,3.7-4.1,6.3-3.2c6.4,2.1,12.8,4.2,19,6.4c2.6,0.9,4,3.8,3.1,6.4C1274.6,142.8,1272.7,144,1270.6,144z"/>
<path fill="#00FF00" d="M805,137.7c-2.3,0-4.4-1.6-4.9-4c-0.5-2.7,1.2-5.3,3.9-5.9c6.5-1.3,13.2-2.6,19.8-3.7
	c2.7-0.5,5.3,1.3,5.8,4.1c0.5,2.7-1.3,5.3-4.1,5.8c-6.5,1.1-13.1,2.4-19.5,3.7C805.6,137.7,805.3,137.7,805,137.7z"/>
<path fill="#00FF00" d="M700.8,137.5c-2.1,0-4.1-1.3-4.8-3.5c-0.8-2.6,0.6-5.4,3.2-6.3c6.3-2.1,12.8-4.1,19.2-6
	c2.6-0.8,5.4,0.7,6.2,3.4c0.8,2.6-0.7,5.4-3.4,6.2c-6.3,1.9-12.7,3.9-19,5.9C701.8,137.4,701.3,137.5,700.8,137.5z"/>
<path fill="#00FF00" d="M1142.8,137c-0.3,0-0.6,0-1-0.1c-6.5-1.3-13-2.5-19.6-3.6c-2.7-0.5-4.5-3.1-4.1-5.8c0.5-2.7,3-4.5,5.8-4.1
	c6.6,1.1,13.2,2.4,19.8,3.6c2.7,0.5,4.5,3.2,3.9,5.9C1147.3,135.4,1145.2,137,1142.8,137z"/>
<path fill="#00FF00" d="M1232.6,131.7c-0.5,0-1-0.1-1.4-0.2c-6.3-1.9-12.7-3.7-19.1-5.5c-2.7-0.7-4.2-3.5-3.5-6.1
	c0.7-2.7,3.5-4.2,6.1-3.5c6.4,1.8,12.9,3.6,19.3,5.6c2.6,0.8,4.1,3.6,3.4,6.2C1236.8,130.3,1234.8,131.7,1232.6,131.7z"/>
<path fill="#00FF00" d="M844.4,130.8c-2.4,0-4.6-1.8-4.9-4.3c-0.4-2.7,1.5-5.3,4.2-5.7c6.6-1,13.3-1.9,19.9-2.8
	c2.7-0.4,5.2,1.6,5.6,4.3c0.4,2.7-1.6,5.2-4.3,5.6c-6.6,0.8-13.2,1.8-19.7,2.8C844.9,130.8,844.6,130.8,844.4,130.8z"/>
<path fill="#00FF00" d="M1103.4,130.3c-0.2,0-0.5,0-0.7-0.1c-6.5-1-13.1-1.9-19.7-2.7c-2.7-0.3-4.7-2.8-4.3-5.6
	c0.3-2.7,2.8-4.7,5.6-4.3c6.6,0.8,13.3,1.7,19.9,2.7c2.7,0.4,4.6,2.9,4.2,5.7C1108,128.5,1105.9,130.3,1103.4,130.3z"/>
<path fill="#00FF00" d="M739.1,126c-2.2,0-4.2-1.5-4.8-3.7c-0.7-2.7,0.8-5.4,3.5-6.1c6.4-1.8,13-3.5,19.5-5.1c2.7-0.7,5.4,1,6.1,3.6
	c0.7,2.7-1,5.4-3.6,6.1c-6.4,1.6-12.9,3.3-19.2,5.1C740,125.9,739.6,126,739.1,126z"/>
<path fill="#00FF00" d="M884,125.7c-2.5,0-4.7-1.9-5-4.5c-0.3-2.7,1.7-5.2,4.5-5.5c6.6-0.7,13.4-1.3,20-1.9c2.7-0.2,5.2,1.8,5.4,4.6
	c0.2,2.8-1.8,5.2-4.6,5.4c-6.6,0.5-13.2,1.2-19.8,1.8C884.4,125.7,884.2,125.7,884,125.7z"/>
<path fill="#00FF00" d="M1063.7,125.4c-0.2,0-0.3,0-0.5,0c-6.6-0.7-13.2-1.3-19.8-1.8c-2.8-0.2-4.8-2.6-4.6-5.4
	c0.2-2.8,2.6-4.8,5.4-4.6c6.7,0.5,13.4,1.1,20,1.8c2.7,0.3,4.8,2.7,4.5,5.5C1068.4,123.4,1066.3,125.4,1063.7,125.4z"/>
<path fill="#00FF00" d="M923.9,122.4c-2.6,0-4.8-2.1-5-4.7c-0.2-2.8,1.9-5.1,4.7-5.3c6.7-0.4,13.4-0.7,20.1-0.9
	c2.8-0.1,5.1,2.1,5.2,4.8s-2.1,5.1-4.8,5.2c-6.6,0.2-13.3,0.5-19.9,0.9C924.1,122.4,924,122.4,923.9,122.4z"/>
<path fill="#00FF00" d="M1023.8,122.3c-0.1,0-0.2,0-0.3,0c-6.6-0.4-13.3-0.6-19.9-0.9c-2.8-0.1-4.9-2.4-4.8-5.2
	c0.1-2.8,2.4-4.9,5.2-4.8c6.7,0.2,13.4,0.5,20.1,0.9c2.8,0.2,4.9,2.5,4.7,5.3C1028.7,120.2,1026.5,122.3,1023.8,122.3z"/>
<path fill="#00FF00" d="M1194.1,121.1c-0.4,0-0.8,0-1.2-0.2c-6.4-1.6-12.9-3.2-19.3-4.6c-2.7-0.6-4.4-3.3-3.8-6
	c0.6-2.7,3.3-4.4,6-3.8c6.5,1.5,13.1,3.1,19.5,4.7c2.7,0.7,4.3,3.4,3.6,6.1C1198.4,119.6,1196.3,121.1,1194.1,121.1z"/>
<path fill="#00FF00" d="M963.9,121c-2.7,0-5-2.2-5-4.9c0-2.8,2.2-5,4.9-5.1c3.9,0,7.8-0.1,11.6-0.1c2.8,0,5.7,0,8.5,0
	c2.8,0,5,2.3,5,5c0,2.7-2.3,5-5,5c0,0,0,0,0,0c-2.8,0-5.7-0.1-8.5,0C971.5,120.9,967.7,121,963.9,121C963.9,121,963.9,121,963.9,121
	z"/>
<path fill="#00FF00" d="M778,116.3c-2.3,0-4.3-1.6-4.9-3.9c-0.6-2.7,1.1-5.4,3.8-6c6.5-1.5,13.1-2.9,19.7-4.2
	c2.7-0.6,5.3,1.2,5.9,3.9c0.6,2.7-1.2,5.3-3.9,5.9c-6.5,1.3-13,2.7-19.5,4.2C778.7,116.2,778.3,116.3,778,116.3z"/>
<path fill="#00FF00" d="M1155.1,112.2c-0.3,0-0.7,0-1-0.1c-6.5-1.3-13-2.6-19.5-3.8c-2.7-0.5-4.5-3.1-4-5.8c0.5-2.7,3.1-4.5,5.8-4
	c6.6,1.2,13.2,2.5,19.7,3.8c2.7,0.6,4.5,3.2,3.9,5.9C1159.5,110.6,1157.4,112.2,1155.1,112.2z"/>
<path fill="#00FF00" d="M817.2,108.3c-2.4,0-4.5-1.7-4.9-4.1c-0.5-2.7,1.3-5.3,4-5.8c6.6-1.2,13.2-2.3,19.8-3.3
	c2.7-0.4,5.3,1.4,5.7,4.2c0.4,2.7-1.4,5.3-4.2,5.7c-6.5,1-13.1,2.1-19.6,3.3C817.8,108.3,817.5,108.3,817.2,108.3z"/>
<path fill="#00FF00" d="M1115.8,105.1c-0.3,0-0.5,0-0.8-0.1c-6.5-1-13.1-2-19.7-2.9c-2.7-0.4-4.7-2.9-4.3-5.6
	c0.4-2.7,2.9-4.7,5.6-4.3c6.6,0.9,13.3,1.9,19.9,2.9c2.7,0.4,4.6,3,4.2,5.7C1120.3,103.3,1118.2,105.1,1115.8,105.1z"/>
<path fill="#00FF00" d="M856.7,102.1c-2.5,0-4.6-1.8-4.9-4.3c-0.4-2.7,1.6-5.3,4.3-5.6c6.6-0.9,13.4-1.7,20-2.5
	c2.7-0.3,5.2,1.7,5.5,4.4c0.3,2.7-1.7,5.2-4.4,5.5c-6.5,0.7-13.2,1.5-19.8,2.4C857.2,102.1,856.9,102.1,856.7,102.1z"/>
<path fill="#00FF00" d="M1076.2,99.8c-0.2,0-0.4,0-0.6,0c-6.6-0.7-13.2-1.4-19.8-2c-2.8-0.2-4.8-2.7-4.5-5.4
	c0.2-2.8,2.7-4.8,5.4-4.5c6.6,0.6,13.4,1.3,20,2c2.7,0.3,4.7,2.8,4.4,5.5C1080.9,97.9,1078.7,99.8,1076.2,99.8z"/>
<path fill="#00FF00" d="M896.5,97.6c-2.6,0-4.7-2-5-4.6c-0.2-2.8,1.8-5.2,4.5-5.4c6.7-0.6,13.4-1.1,20.1-1.6
	c2.8-0.2,5.1,1.9,5.3,4.7c0.2,2.8-1.9,5.1-4.7,5.3c-6.6,0.4-13.3,1-19.8,1.5C896.8,97.6,896.7,97.6,896.5,97.6z"/>
<path fill="#00FF00" d="M1036.4,96.2c-0.1,0-0.2,0-0.3,0c-6.6-0.4-13.3-0.8-19.8-1.1c-2.8-0.1-4.9-2.5-4.8-5.2
	c0.1-2.8,2.5-4.9,5.2-4.8c6.7,0.3,13.4,0.7,20.1,1.1c2.8,0.2,4.8,2.6,4.7,5.3C1041.2,94.2,1039,96.2,1036.4,96.2z"/>
<path fill="#00FF00" d="M936.5,95c-2.7,0-4.9-2.1-5-4.8c-0.1-2.8,2-5.1,4.8-5.2c6.7-0.3,13.4-0.5,20.1-0.7c2.8,0,5,2.1,5.1,4.9
	s-2.1,5-4.9,5.1c-6.6,0.1-13.3,0.4-19.9,0.6C936.6,95,936.5,95,936.5,95z"/>
<path fill="#00FF00" d="M996.5,94.4c0,0-0.1,0-0.1,0c-6.6-0.2-13.3-0.2-19.9-0.2c-2.8,0-5-2.2-5-5c0-2.8,2.2-5,5-5c0,0,0,0,0,0
	c6.7,0,13.4,0.1,20.1,0.2c2.8,0.1,4.9,2.4,4.9,5.1C1001.4,92.2,999.2,94.4,996.5,94.4z"/>
<path fill="#0000FF" d="M1800.9,1005.4c-2.5,0-4.9-0.5-7.2-1.5c-2.5-1.1-3.7-4-2.6-6.6c1.1-2.5,4-3.7,6.6-2.6c1,0.4,2.1,0.7,3.3,0.7
	c3.1,0,6-1.7,7.4-4.5c1.3-2.4,4.3-3.4,6.8-2.1c2.4,1.3,3.4,4.3,2.1,6.8C1814,1001.7,1807.8,1005.4,1800.9,1005.4z"/>
<path fill="#0000FF" d="M1852.8,1005.3c-0.2,0-0.4,0-0.7,0c-9.1-1.2-15.9-9.1-15.9-18.2l0-0.7c0-2.8,2.2-5,5-5c0,0,0,0,0,0
	c2.7,0,5,2.2,5,5l0,0.8c0,4.2,3.1,7.8,7.3,8.4c2.7,0.4,4.7,2.9,4.3,5.6C1857.4,1003.5,1855.3,1005.3,1852.8,1005.3z"/>
<path fill="#0000FF" d="M1867.7,994.9c-0.4,0-0.7,0-1.1-0.1c-2.7-0.6-4.4-3.2-3.8-5.9c0.1-0.6,0.2-1.2,0.2-1.8
	c-0.1-5.6-0.2-11.3-0.4-17c-0.1-2.8,2.1-5.1,4.8-5.2c2.8-0.1,5.1,2.1,5.2,4.8c0.2,5.7,0.3,11.5,0.4,17.2c0,1.4-0.1,2.7-0.4,4
	C1872.1,993.3,1870,994.9,1867.7,994.9z"/>
<path fill="#0000FF" d="M1894.7,992.5c-2.8,0-5-2.2-5-5v-0.5c-0.1-5.9-0.2-11.9-0.4-17.8c-0.1-2.8,2.1-5.1,4.8-5.2
	c2.8-0.1,5.1,2.1,5.2,4.8c0.2,5.7,0.3,11.5,0.4,17.3c0,0.1,0,0.2,0,0.3v1C1899.7,990.2,1897.5,992.5,1894.7,992.5z"/>
<path fill="#0000FF" d="M1787.5,987.7c-2.7,0-5-2.2-5-4.9c-0.1-6.6-0.3-13.3-0.5-19.9c-0.1-2.8,2-5.1,4.8-5.2c2.8-0.1,5.1,2,5.2,4.8
	c0.3,6.6,0.4,13.4,0.5,20.1C1792.5,985.4,1790.3,987.7,1787.5,987.7C1787.5,987.7,1787.5,987.7,1787.5,987.7z"/>
<path fill="#0000FF" d="M1760.6,981.1c-2.7,0-4.9-2.2-5-4.9c-0.2-6.6-0.4-13.2-0.8-19.8c-0.1-2.8,2-5.1,4.7-5.3
	c2.8-0.2,5.1,2,5.3,4.7c0.4,6.7,0.6,13.5,0.8,20.1c0.1,2.8-2.1,5.1-4.9,5.1C1760.7,981.1,1760.7,981.1,1760.6,981.1z"/>
<path fill="#0000FF" d="M1814,978.5c-2.7,0-4.9-2.1-5-4.9c-0.2-6.6-0.5-13.3-0.8-19.9c-0.1-2.8,2-5.1,4.7-5.3c2.7-0.2,5.1,2,5.3,4.7
	c0.3,6.7,0.6,13.4,0.8,20.1c0.1,2.8-2.1,5.1-4.9,5.1C1814.1,978.5,1814.1,978.5,1814,978.5z"/>
<path fill="#0000FF" d="M1840.8,971.3c-2.7,0-4.9-2.1-5-4.8c-0.2-6.6-0.5-13.3-0.9-19.9c-0.2-2.8,1.9-5.1,4.7-5.3
	c2.7-0.2,5.1,1.9,5.3,4.7c0.4,6.7,0.7,13.4,0.9,20.1c0.1,2.8-2.1,5.1-4.8,5.2C1840.9,971.3,1840.8,971.3,1840.8,971.3z"/>
<path fill="#0000FF" d="M1866.8,954.9c-2.6,0-4.8-2.1-5-4.7c-0.4-6.6-0.8-13.3-1.3-19.9c-0.2-2.8,1.9-5.2,4.6-5.4
	c2.7-0.2,5.2,1.9,5.4,4.6c0.5,6.6,0.9,13.4,1.3,20.1c0.1,2.8-2,5.1-4.7,5.3C1867,954.9,1866.9,954.9,1866.8,954.9z"/>
<path fill="#0000FF" d="M1893.4,954c-2.6,0-4.8-2.1-5-4.7c-0.4-6.6-0.8-13.3-1.3-19.8c-0.2-2.8,1.8-5.2,4.6-5.4
	c2.7-0.2,5.2,1.8,5.4,4.6c0.5,6.6,1,13.4,1.3,20.1c0.2,2.8-2,5.1-4.7,5.3C1893.6,954,1893.5,954,1893.4,954z"/>
<path fill="#0000FF" d="M1785.9,947.7c-2.6,0-4.8-2-5-4.7c-0.4-6.5-1-13.2-1.6-19.8c-0.3-2.7,1.7-5.2,4.5-5.5
	c2.7-0.3,5.2,1.7,5.5,4.5c0.6,6.7,1.2,13.5,1.7,20.1c0.2,2.8-1.9,5.1-4.6,5.3C1786.1,947.7,1786,947.7,1785.9,947.7z"/>
<path fill="#0000FF" d="M1758.5,941.2c-2.6,0-4.8-2-5-4.6c-0.5-6.5-1.1-13.1-1.8-19.8c-0.3-2.7,1.7-5.2,4.4-5.5
	c2.8-0.3,5.2,1.7,5.5,4.4c0.7,6.7,1.3,13.5,1.9,20c0.2,2.8-1.8,5.2-4.6,5.4C1758.8,941.2,1758.6,941.2,1758.5,941.2z"/>
<path fill="#0000FF" d="M1811.9,938.6c-2.6,0-4.8-2-5-4.6c-0.5-6.6-1.1-13.3-1.8-19.8c-0.3-2.7,1.7-5.2,4.5-5.5
	c2.8-0.3,5.2,1.7,5.5,4.5c0.7,6.6,1.3,13.4,1.8,20c0.2,2.8-1.9,5.2-4.6,5.4C1812.2,938.6,1812.1,938.6,1811.9,938.6z"/>
<path fill="#0000FF" d="M1838.4,931.4c-2.6,0-4.8-2-5-4.6c-0.5-6.6-1.2-13.2-1.9-19.8c-0.3-2.7,1.7-5.2,4.4-5.5
	c2.8-0.3,5.2,1.7,5.5,4.4c0.7,6.6,1.4,13.4,1.9,20c0.2,2.8-1.8,5.2-4.6,5.4C1838.7,931.4,1838.6,931.4,1838.4,931.4z"/>
<path fill="#0000FF" d="M1863.8,915.1c-2.5,0-4.7-1.9-5-4.5c-0.7-6.6-1.4-13.3-2.2-19.8c-0.3-2.7,1.6-5.2,4.4-5.6
	c2.7-0.3,5.2,1.6,5.6,4.4c0.8,6.6,1.5,13.3,2.2,20c0.3,2.7-1.7,5.2-4.5,5.5C1864.1,915.1,1863.9,915.1,1863.8,915.1z"/>
<path fill="#0000FF" d="M1890.3,914.2c-2.5,0-4.7-1.9-5-4.5c-0.7-6.6-1.4-13.2-2.2-19.8c-0.3-2.7,1.6-5.2,4.4-5.6
	c2.7-0.3,5.2,1.6,5.6,4.4c0.8,6.6,1.6,13.3,2.2,20c0.3,2.7-1.7,5.2-4.5,5.5C1890.6,914.2,1890.5,914.2,1890.3,914.2z"/>
<path fill="#0000FF" d="M1782,907.9c-2.5,0-4.7-1.9-5-4.4c-0.2-1.4-0.3-2.8-0.5-4.2c-0.6-5.2-1.3-10.4-2.1-15.6
	c-0.4-2.7,1.5-5.3,4.2-5.7c2.7-0.4,5.3,1.5,5.7,4.2c0.8,5.2,1.5,10.5,2.1,15.7c0.2,1.4,0.4,2.8,0.5,4.2c0.3,2.7-1.6,5.2-4.4,5.6
	C1782.4,907.9,1782.2,907.9,1782,907.9z"/>
<path fill="#0000FF" d="M1754.3,901.4c-2.5,0-4.6-1.8-5-4.3c-0.9-6.6-1.8-13.2-2.9-19.7c-0.4-2.7,1.4-5.3,4.2-5.7
	c2.7-0.4,5.3,1.4,5.7,4.2c1,6.6,2,13.3,2.9,19.9c0.4,2.7-1.6,5.2-4.3,5.6C1754.7,901.4,1754.5,901.4,1754.3,901.4z"/>
<path fill="#0000FF" d="M1807.9,898.8c-2.5,0-4.6-1.8-5-4.4c-0.8-6.6-1.7-13.2-2.7-19.7c-0.4-2.7,1.5-5.3,4.2-5.7
	c2.7-0.4,5.3,1.5,5.7,4.2c1,6.6,1.9,13.3,2.8,19.9c0.3,2.7-1.6,5.2-4.3,5.6C1808.3,898.8,1808.1,898.8,1807.9,898.8z"/>
<path fill="#0000FF" d="M1834.1,891.6c-2.5,0-4.6-1.8-5-4.4c-0.9-6.6-1.8-13.2-2.8-19.7c-0.4-2.7,1.4-5.3,4.2-5.7
	c2.7-0.4,5.3,1.4,5.7,4.2c1,6.6,2,13.3,2.8,19.9c0.4,2.7-1.6,5.2-4.3,5.6C1834.6,891.6,1834.3,891.6,1834.1,891.6z"/>
<path fill="#0000FF" d="M1858.9,875.4c-2.4,0-4.6-1.8-4.9-4.3c-1-6.5-2-13.1-3.1-19.6c-0.5-2.7,1.4-5.3,4.1-5.8
	c2.7-0.5,5.3,1.4,5.8,4.1c1.1,6.6,2.2,13.3,3.1,19.9c0.4,2.7-1.5,5.3-4.2,5.7C1859.4,875.3,1859.2,875.4,1858.9,875.4z"/>
<path fill="#0000FF" d="M1885.4,874.5c-2.4,0-4.6-1.8-4.9-4.3c-0.9-6.5-2-13.1-3.1-19.6c-0.5-2.7,1.4-5.3,4.1-5.8
	c2.7-0.5,5.3,1.4,5.8,4.1c1.1,6.6,2.1,13.3,3.1,19.9c0.4,2.7-1.5,5.3-4.2,5.7C1885.9,874.5,1885.7,874.5,1885.4,874.5z"/>
<path fill="#0000FF" d="M1776.3,868.3c-2.4,0-4.5-1.7-4.9-4.2c-1.1-6.5-2.3-13.1-3.6-19.5c-0.5-2.7,1.2-5.3,3.9-5.9
	c2.7-0.5,5.3,1.2,5.9,3.9c1.3,6.5,2.5,13.2,3.6,19.8c0.5,2.7-1.4,5.3-4.1,5.8C1776.9,868.3,1776.6,868.3,1776.3,868.3z"/>
<path fill="#0000FF" d="M1748,861.9c-2.4,0-4.5-1.7-4.9-4.1c-1.2-6.5-2.5-13-3.9-19.5c-0.6-2.7,1.1-5.4,3.8-5.9
	c2.7-0.6,5.4,1.1,5.9,3.8c1.4,6.5,2.7,13.2,3.9,19.7c0.5,2.7-1.3,5.3-4,5.8C1748.6,861.9,1748.3,861.9,1748,861.9z"/>
<path fill="#0000FF" d="M1801.9,859.2c-2.4,0-4.5-1.7-4.9-4.1c-1.1-6.5-2.4-13.1-3.7-19.5c-0.5-2.7,1.2-5.3,3.9-5.9
	c2.7-0.6,5.3,1.2,5.9,3.9c1.3,6.6,2.6,13.2,3.7,19.8c0.5,2.7-1.3,5.3-4.1,5.8C1802.5,859.2,1802.2,859.2,1801.9,859.2z"/>
<path fill="#0000FF" d="M1828,852.1c-2.4,0-4.5-1.7-4.9-4.1c-1.2-6.5-2.4-13.1-3.7-19.5c-0.6-2.7,1.2-5.3,3.9-5.9
	c2.7-0.6,5.3,1.2,5.9,3.9c1.3,6.5,2.6,13.2,3.8,19.8c0.5,2.7-1.3,5.3-4,5.8C1828.6,852,1828.3,852.1,1828,852.1z"/>
<path fill="#0000FF" d="M1852.2,835.9c-2.3,0-4.4-1.7-4.9-4.1c-1.3-6.5-2.6-13-4-19.5c-0.6-2.7,1.1-5.4,3.8-6c2.7-0.6,5.4,1.1,6,3.8
	c1.4,6.5,2.8,13.1,4.1,19.7c0.5,2.7-1.2,5.3-4,5.9C1852.9,835.9,1852.6,835.9,1852.2,835.9z"/>
<path fill="#0000FF" d="M1878.8,835.1c-2.4,0-4.5-1.7-4.9-4.1c-1.2-6.5-2.6-13-3.9-19.5c-0.6-2.7,1.1-5.4,3.8-5.9
	c2.7-0.6,5.4,1.1,5.9,3.8c1.4,6.5,2.7,13.1,4,19.7c0.5,2.7-1.3,5.3-4,5.8C1879.5,835,1879.2,835.1,1878.8,835.1z"/>
<path fill="#0000FF" d="M1768.6,829.1c-2.3,0-4.4-1.6-4.9-3.9c-1.4-6.4-3-12.9-4.6-19.3c-0.7-2.7,1-5.4,3.6-6.1
	c2.7-0.7,5.4,1,6.1,3.6c1.6,6.5,3.2,13.1,4.6,19.6c0.6,2.7-1.1,5.4-3.8,6C1769.3,829.1,1769,829.1,1768.6,829.1z"/>
<path fill="#0000FF" d="M1739.7,822.8c-2.3,0-4.3-1.5-4.9-3.8c-1.5-6.4-3.2-12.9-4.9-19.2c-0.7-2.7,0.9-5.4,3.5-6.1
	c2.7-0.7,5.4,0.9,6.1,3.5c1.7,6.4,3.4,13,5,19.5c0.6,2.7-1,5.4-3.7,6C1740.5,822.8,1740.1,822.8,1739.7,822.8z"/>
<path fill="#0000FF" d="M1794,820c-2.3,0-4.3-1.6-4.9-3.9c-1.5-6.4-3-12.9-4.7-19.3c-0.7-2.7,0.9-5.4,3.6-6.1
	c2.7-0.7,5.4,0.9,6.1,3.6c1.6,6.5,3.2,13,4.7,19.6c0.6,2.7-1.1,5.4-3.8,6C1794.8,820,1794.4,820,1794,820z"/>
<path fill="#0000FF" d="M1820,812.9c-2.3,0-4.3-1.6-4.9-3.9c-1.5-6.5-3.1-13-4.7-19.3c-0.7-2.7,0.9-5.4,3.6-6.1
	c2.7-0.7,5.4,0.9,6.1,3.6c1.6,6.4,3.2,13,4.7,19.6c0.6,2.7-1.1,5.4-3.8,6C1820.7,812.8,1820.4,812.9,1820,812.9z"/>
<path fill="#0000FF" d="M1843.7,796.9c-2.3,0-4.3-1.5-4.9-3.8c-1.6-6.4-3.2-12.9-4.9-19.3c-0.7-2.7,0.9-5.4,3.5-6.1
	c2.7-0.7,5.4,0.9,6.1,3.5c1.7,6.5,3.4,13,5,19.5c0.7,2.7-1,5.4-3.7,6C1844.5,796.8,1844.1,796.9,1843.7,796.9z"/>
<path fill="#0000FF" d="M1870.5,796c-2.3,0-4.3-1.6-4.9-3.9c-1.5-6.4-3.1-12.9-4.8-19.3c-0.7-2.7,0.9-5.4,3.6-6.1
	c2.7-0.7,5.4,0.9,6.1,3.6c1.7,6.5,3.3,13,4.8,19.5c0.6,2.7-1,5.4-3.7,6C1871.3,795.9,1870.9,796,1870.5,796z"/>
<path fill="#0000FF" d="M1758.9,790.3c-2.2,0-4.2-1.4-4.8-3.7c-1.8-6.3-3.6-12.8-5.6-19.1c-0.8-2.6,0.7-5.4,3.3-6.2
	c2.6-0.8,5.4,0.7,6.2,3.3c2,6.4,3.9,12.9,5.7,19.3c0.7,2.7-0.8,5.4-3.5,6.2C1759.8,790.3,1759.3,790.3,1758.9,790.3z"/>
<path fill="#0000FF" d="M1729.3,784.2c-2.2,0-4.1-1.4-4.8-3.6c-1.9-6.3-3.9-12.7-5.9-19c-0.9-2.6,0.6-5.4,3.2-6.3
	c2.6-0.9,5.4,0.6,6.3,3.2c2.1,6.4,4.1,12.8,6,19.2c0.8,2.6-0.7,5.4-3.4,6.2C1730.2,784.1,1729.7,784.2,1729.3,784.2z"/>
<path fill="#0000FF" d="M1784.1,781.3c-2.2,0-4.2-1.4-4.8-3.6c-1.8-6.3-3.7-12.8-5.6-19.1c-0.8-2.6,0.7-5.4,3.3-6.3
	c2.6-0.8,5.4,0.7,6.3,3.3c2,6.4,3.9,12.9,5.7,19.3c0.7,2.7-0.8,5.4-3.5,6.2C1785.1,781.2,1784.6,781.3,1784.1,781.3z"/>
<path fill="#0000FF" d="M1810.1,774.1c-2.2,0-4.2-1.4-4.8-3.6c-1.8-6.3-3.7-12.8-5.6-19.1c-0.8-2.6,0.7-5.4,3.3-6.2
	c2.6-0.8,5.4,0.7,6.2,3.3c2,6.4,3.9,12.9,5.7,19.3c0.7,2.7-0.8,5.4-3.5,6.2C1811,774.1,1810.6,774.1,1810.1,774.1z"/>
<path fill="#0000FF" d="M1833.4,758.2c-2.2,0-4.2-1.4-4.8-3.6c-1.8-6.3-3.8-12.7-5.8-19c-0.8-2.6,0.6-5.4,3.2-6.3
	c2.6-0.8,5.4,0.6,6.3,3.2c2,6.4,4,12.8,5.9,19.2c0.8,2.7-0.7,5.4-3.4,6.2C1834.3,758.2,1833.9,758.2,1833.4,758.2z"/>
<path fill="#0000FF" d="M1860.5,757.3c-2.2,0-4.2-1.4-4.8-3.6c-1.8-6.3-3.7-12.8-5.6-19.1c-0.8-2.6,0.7-5.4,3.3-6.2
	c2.6-0.8,5.4,0.7,6.2,3.3c2,6.4,3.9,12.9,5.7,19.3c0.8,2.7-0.8,5.4-3.5,6.2C1861.4,757.2,1861,757.3,1860.5,757.3z"/>
<path fill="#0000FF" d="M1747.2,752.1c-2.1,0-4-1.3-4.7-3.4c-2.1-6.2-4.3-12.5-6.6-18.8c-0.9-2.6,0.4-5.5,3-6.4
	c2.6-0.9,5.5,0.4,6.4,3c2.3,6.3,4.5,12.7,6.6,19c0.9,2.6-0.5,5.5-3.2,6.3C1748.2,752,1747.7,752.1,1747.2,752.1z"/>
<path fill="#0000FF" d="M1716.8,746.2c-2.1,0-4-1.3-4.7-3.3c-2.2-6.2-4.6-12.5-6.9-18.6c-1-2.6,0.3-5.5,2.9-6.5
	c2.6-1,5.5,0.3,6.5,2.9c2.4,6.2,4.8,12.6,7,18.9c0.9,2.6-0.4,5.5-3,6.4C1717.9,746.1,1717.4,746.2,1716.8,746.2z"/>
<path fill="#0000FF" d="M1772.4,743.1c-2.1,0-4-1.3-4.7-3.4c-2.1-6.2-4.3-12.5-6.6-18.8c-0.9-2.6,0.4-5.5,3-6.4
	c2.6-0.9,5.5,0.4,6.4,3c2.3,6.3,4.5,12.7,6.6,19c0.9,2.6-0.5,5.5-3.1,6.3C1773.4,743,1772.9,743.1,1772.4,743.1z"/>
<path fill="#0000FF" d="M1798.4,735.9c-2.1,0-4-1.3-4.7-3.4c-2.1-6.3-4.3-12.6-6.5-18.8c-0.9-2.6,0.4-5.5,3-6.4
	c2.6-0.9,5.5,0.4,6.4,3c2.3,6.3,4.5,12.7,6.6,19c0.9,2.6-0.5,5.5-3.2,6.3C1799.4,735.8,1798.9,735.9,1798.4,735.9z"/>
<path fill="#0000FF" d="M1821.3,720.1c-2.1,0-4-1.3-4.7-3.4c-2.2-6.3-4.4-12.6-6.7-18.7c-1-2.6,0.4-5.5,3-6.4c2.6-1,5.5,0.4,6.4,3
	c2.3,6.2,4.6,12.6,6.8,18.9c0.9,2.6-0.5,5.5-3.1,6.4C1822.4,720,1821.8,720.1,1821.3,720.1z"/>
<path fill="#0000FF" d="M1848.8,719.1c-2.1,0-4-1.3-4.7-3.4c-2.1-6.3-4.2-12.6-6.5-18.8c-0.9-2.6,0.4-5.5,3-6.4
	c2.6-0.9,5.5,0.4,6.4,3c2.2,6.3,4.4,12.7,6.5,19c0.9,2.6-0.6,5.5-3.2,6.3C1849.8,719,1849.3,719.1,1848.8,719.1z"/>
<path fill="#0000FF" d="M1733.5,714.5c-2,0-3.9-1.2-4.7-3.2c-2.4-6.1-4.9-12.3-7.5-18.4c-1.1-2.5,0.1-5.5,2.7-6.6
	c2.5-1.1,5.5,0.1,6.6,2.7c2.6,6.2,5.2,12.4,7.6,18.6c1,2.6-0.3,5.5-2.8,6.5C1734.7,714.4,1734.1,714.5,1733.5,714.5z"/>
<path fill="#0000FF" d="M1702.3,708.9c-2,0-3.8-1.2-4.6-3.1c-2.5-6.1-5.2-12.2-7.9-18.2c-1.1-2.5,0-5.5,2.5-6.6
	c2.5-1.1,5.5,0,6.6,2.5c2.7,6.1,5.4,12.3,8,18.5c1.1,2.5-0.1,5.5-2.7,6.5C1703.6,708.8,1703,708.9,1702.3,708.9z"/>
<path fill="#0000FF" d="M1758.7,705.5c-2,0-3.9-1.2-4.7-3.2c-2.4-6.1-4.9-12.3-7.5-18.4c-1.1-2.5,0.1-5.5,2.7-6.5
	c2.5-1.1,5.5,0.1,6.5,2.7c2.6,6.1,5.1,12.4,7.6,18.6c1,2.6-0.3,5.5-2.8,6.5C1759.9,705.4,1759.3,705.5,1758.7,705.5z"/>
<path fill="#0000FF" d="M1784.8,698.3c-2,0-3.9-1.2-4.7-3.2c-2.4-6.2-4.9-12.4-7.4-18.4c-1.1-2.5,0.1-5.5,2.7-6.5
	c2.5-1.1,5.5,0.1,6.5,2.7c2.6,6.2,5.1,12.4,7.5,18.7c1,2.6-0.3,5.5-2.9,6.5C1786,698.2,1785.4,698.3,1784.8,698.3z"/>
<path fill="#0000FF" d="M1807.4,682.6c-2,0-3.9-1.2-4.6-3.2c-2.4-6.1-5-12.3-7.5-18.4c-1.1-2.5,0.1-5.5,2.7-6.6
	c2.5-1.1,5.5,0.1,6.6,2.7c2.6,6.2,5.2,12.4,7.6,18.6c1,2.6-0.2,5.5-2.8,6.5C1808.7,682.5,1808,682.6,1807.4,682.6z"/>
<path fill="#0000FF" d="M1835.4,681.4c-2,0-3.9-1.2-4.7-3.2c-2.4-6.2-4.8-12.4-7.3-18.5c-1-2.6,0.2-5.5,2.7-6.5
	c2.6-1,5.5,0.2,6.5,2.7c2.5,6.2,5,12.5,7.4,18.7c1,2.6-0.3,5.5-2.9,6.5C1836.6,681.3,1836,681.4,1835.4,681.4z"/>
<path fill="#0000FF" d="M1717.9,677.7c-1.9,0-3.7-1.1-4.6-2.9c-2.7-6-5.6-12.1-8.4-18c-1.2-2.5-0.2-5.5,2.3-6.7
	c2.5-1.2,5.5-0.2,6.7,2.3c2.9,6,5.8,12.1,8.5,18.2c1.1,2.5,0,5.5-2.5,6.6C1719.3,677.5,1718.6,677.7,1717.9,677.7z"/>
<path fill="#0000FF" d="M1685.9,672.4c-1.9,0-3.6-1-4.5-2.8c-2.9-5.9-5.9-11.9-8.9-17.8c-1.3-2.5-0.3-5.5,2.2-6.7
	c2.5-1.3,5.5-0.3,6.7,2.2c3.1,5.9,6.1,12,9,18c1.2,2.5,0.2,5.5-2.3,6.7C1687.4,672.3,1686.6,672.4,1685.9,672.4z"/>
<path fill="#0000FF" d="M1743.2,668.6c-1.9,0-3.7-1.1-4.6-2.9c-2.7-6-5.5-12.1-8.4-18c-1.2-2.5-0.1-5.5,2.3-6.7
	c2.5-1.2,5.5-0.1,6.7,2.3c2.9,6,5.7,12.2,8.5,18.2c1.1,2.5,0,5.5-2.5,6.6C1744.6,668.5,1743.9,668.6,1743.2,668.6z"/>
<path fill="#0000FF" d="M1769.4,661.4c-1.9,0-3.7-1.1-4.6-3c-2.7-6-5.5-12.1-8.3-18.1c-1.2-2.5-0.1-5.5,2.4-6.7
	c2.5-1.2,5.5-0.1,6.7,2.4c2.9,6,5.7,12.2,8.4,18.3c1.1,2.5,0,5.5-2.5,6.6C1770.8,661.2,1770.1,661.4,1769.4,661.4z"/>
<path fill="#0000FF" d="M1791.8,645.8c-1.9,0-3.7-1.1-4.6-2.9c-2.7-6-5.5-12.1-8.4-18c-1.2-2.5-0.1-5.5,2.3-6.7
	c2.5-1.2,5.5-0.1,6.7,2.3c2.9,6,5.7,12.2,8.5,18.2c1.1,2.5,0,5.5-2.5,6.6C1793.2,645.6,1792.5,645.8,1791.8,645.8z"/>
<path fill="#0000FF" d="M1820.3,644.4c-1.9,0-3.8-1.1-4.6-3c-2.6-6.1-5.4-12.2-8.1-18.1c-1.2-2.5-0.1-5.5,2.5-6.6
	c2.5-1.2,5.5-0.1,6.6,2.5c2.8,6,5.5,12.2,8.2,18.3c1.1,2.5-0.1,5.5-2.6,6.6C1821.7,644.3,1821,644.4,1820.3,644.4z"/>
<path fill="#0000FF" d="M1700.5,641.7c-1.8,0-3.6-1-4.4-2.7c-3-5.8-6.2-11.7-9.3-17.5c-1.3-2.4-0.4-5.5,2-6.8c2.4-1.3,5.5-0.4,6.8,2
	c3.2,5.9,6.4,11.9,9.4,17.8c1.3,2.5,0.3,5.5-2.2,6.7C1702,641.5,1701.2,641.7,1700.5,641.7z"/>
<path fill="#0000FF" d="M1667.6,636.9c-1.8,0-3.5-0.9-4.4-2.6c-2.8-5.1-5.7-10.2-8.6-15.3l-1.2-2c-1.4-2.4-0.6-5.4,1.8-6.8
	c2.4-1.4,5.4-0.6,6.8,1.8l1.2,2c3,5.1,5.9,10.4,8.7,15.5c1.3,2.4,0.4,5.5-2,6.8C1669.3,636.7,1668.4,636.9,1667.6,636.9z"/>
<path fill="#0000FF" d="M1725.9,632.6c-1.8,0-3.6-1-4.5-2.7c-3-5.9-6.1-11.8-9.2-17.6c-1.3-2.4-0.4-5.5,2-6.8c2.4-1.3,5.5-0.4,6.8,2
	c3.2,5.9,6.3,11.9,9.4,17.8c1.3,2.5,0.3,5.5-2.2,6.7C1727.4,632.4,1726.7,632.6,1725.9,632.6z"/>
<path fill="#0000FF" d="M1752.3,625.2c-1.8,0-3.6-1-4.5-2.8c-3-5.9-6-11.8-9.1-17.7c-1.3-2.4-0.4-5.5,2.1-6.8
	c2.4-1.3,5.5-0.4,6.8,2.1c3.1,5.9,6.2,11.9,9.2,17.9c1.2,2.5,0.2,5.5-2.2,6.7C1753.9,625,1753.1,625.2,1752.3,625.2z"/>
<path fill="#0000FF" d="M1774.5,609.7c-1.8,0-3.6-1-4.5-2.7c-3-5.9-6.1-11.8-9.2-17.6c-1.3-2.4-0.4-5.5,2-6.8c2.4-1.3,5.5-0.4,6.8,2
	c3.2,5.9,6.3,11.9,9.3,17.8c1.2,2.5,0.3,5.5-2.2,6.7C1776.1,609.5,1775.3,609.7,1774.5,609.7z"/>
<path fill="#0000FF" d="M1803.6,608.1c-1.9,0-3.6-1-4.5-2.8c-2.9-5.9-5.9-11.9-8.9-17.8c-1.3-2.5-0.3-5.5,2.1-6.7
	c2.5-1.3,5.5-0.3,6.7,2.1c3.1,5.9,6.1,12,9,18c1.2,2.5,0.2,5.5-2.3,6.7C1805.1,607.9,1804.3,608.1,1803.6,608.1z"/>
<path fill="#0000FF" d="M1681.3,606.6c-1.7,0-3.4-0.9-4.3-2.5c-3.3-5.7-6.8-11.5-10.2-17.1c-1.4-2.4-0.7-5.4,1.6-6.9
	c2.4-1.4,5.4-0.7,6.9,1.6c3.5,5.7,7,11.5,10.3,17.3c1.4,2.4,0.6,5.4-1.8,6.8C1683,606.4,1682.1,606.6,1681.3,606.6z"/>
<path fill="#0000FF" d="M1647.5,602.3c-1.7,0-3.3-0.8-4.3-2.4c-3.5-5.6-7-11.3-10.6-16.8c-1.5-2.3-0.9-5.4,1.5-6.9
	c2.3-1.5,5.4-0.9,6.9,1.5c3.6,5.6,7.3,11.3,10.8,17c1.4,2.4,0.7,5.4-1.6,6.9C1649.3,602.1,1648.4,602.3,1647.5,602.3z"/>
<path fill="#0000FF" d="M1706.9,597.4c-1.7,0-3.4-0.9-4.3-2.5l-1.6-2.8c-2.8-4.8-5.6-9.6-8.5-14.3c-1.4-2.4-0.7-5.4,1.7-6.9
	c2.4-1.4,5.4-0.7,6.9,1.7c2.9,4.8,5.8,9.7,8.6,14.5l1.6,2.8c1.4,2.4,0.5,5.5-1.9,6.8C1708.6,597.2,1707.7,597.4,1706.9,597.4z"/>
<path fill="#0000FF" d="M1733.6,589.9c-1.7,0-3.4-0.9-4.4-2.6c-1.6-2.9-3.3-5.9-5-8.8c-1.6-2.8-3.3-5.6-4.9-8.4
	c-1.4-2.4-0.6-5.4,1.8-6.8c2.4-1.4,5.4-0.6,6.8,1.8c1.7,2.8,3.3,5.7,5,8.5c1.7,3,3.4,5.9,5.1,8.9c1.4,2.4,0.5,5.5-1.9,6.8
	C1735.2,589.7,1734.4,589.9,1733.6,589.9z"/>
<path fill="#0000FF" d="M1755.6,574.4c-1.7,0-3.4-0.9-4.4-2.5c-1.3-2.3-2.6-4.5-3.9-6.8c-2-3.5-4.1-7-6.1-10.5
	c-1.4-2.4-0.6-5.4,1.7-6.9c2.4-1.4,5.4-0.6,6.9,1.7c2.1,3.5,4.2,7,6.2,10.6c1.3,2.3,2.6,4.6,3.9,6.8c1.4,2.4,0.5,5.5-1.9,6.8
	C1757.3,574.2,1756.5,574.4,1755.6,574.4z"/>
<path fill="#0000FF" d="M1785.3,572.6c-1.8,0-3.5-0.9-4.4-2.6c-3.2-5.8-6.4-11.6-9.7-17.3c-1.4-2.4-0.6-5.5,1.8-6.8
	c2.4-1.4,5.5-0.6,6.8,1.8c3.3,5.8,6.6,11.7,9.8,17.5c1.3,2.4,0.4,5.5-2,6.8C1786.9,572.4,1786.1,572.6,1785.3,572.6z"/>
<path fill="#0000FF" d="M1660.3,572.5c-1.6,0-3.2-0.8-4.2-2.3c-3.6-5.5-7.3-11.1-11-16.5c-1.6-2.3-1-5.4,1.3-7c2.3-1.6,5.4-1,7,1.3
	c3.8,5.5,7.5,11.1,11.2,16.7c1.5,2.3,0.8,5.4-1.5,6.9C1662.2,572.2,1661.3,572.5,1660.3,572.5z"/>
<path fill="#0000FF" d="M1625.7,568.8c-1.6,0-3.1-0.8-4.1-2.2c-3.7-5.4-7.6-10.9-11.5-16.2c-1.6-2.2-1.1-5.4,1.1-7
	c2.2-1.6,5.4-1.1,7,1.1c3.9,5.4,7.9,10.9,11.6,16.4c1.6,2.3,1,5.4-1.3,7C1627.6,568.5,1626.6,568.8,1625.7,568.8z"/>
<path fill="#0000FF" d="M1686.2,563.1c-1.7,0-3.3-0.8-4.2-2.3c-3.5-5.6-7.2-11.2-10.9-16.6c-1.5-2.3-0.9-5.4,1.4-6.9
	c2.3-1.5,5.4-0.9,6.9,1.4c3.7,5.5,7.4,11.2,11,16.8c1.5,2.3,0.8,5.4-1.5,6.9C1688,562.9,1687.1,563.1,1686.2,563.1z"/>
<path fill="#0000FF" d="M1713.2,555.5c-1.7,0-3.3-0.8-4.2-2.4c-3.5-5.6-7.1-11.2-10.7-16.7c-1.5-2.3-0.9-5.4,1.4-6.9
	c2.3-1.5,5.4-0.9,6.9,1.4c3.7,5.6,7.3,11.3,10.9,16.9c1.5,2.3,0.8,5.4-1.6,6.9C1715,555.2,1714.1,555.5,1713.2,555.5z"/>
<path fill="#0000FF" d="M1735.1,540.1c-1.7,0-3.3-0.8-4.2-2.3c-3.5-5.6-7.1-11.2-10.7-16.7c-1.5-2.3-0.9-5.4,1.4-6.9
	c2.3-1.5,5.4-0.9,6.9,1.4c3.7,5.6,7.3,11.3,10.9,16.9c1.5,2.3,0.8,5.4-1.6,6.9C1737,539.8,1736.1,540.1,1735.1,540.1z"/>
<path fill="#0000FF" d="M1637.7,539.5c-1.6,0-3.1-0.7-4.1-2.1c-3.9-5.4-7.9-10.7-11.8-16c-1.7-2.2-1.2-5.3,0.9-7
	c2.2-1.7,5.3-1.2,7,0.9c4,5.3,8.1,10.7,12,16.2c1.6,2.2,1.1,5.4-1.1,7C1639.8,539.2,1638.7,539.5,1637.7,539.5z"/>
<path fill="#0000FF" d="M1765.3,537.9c-1.7,0-3.3-0.9-4.3-2.4c-3.4-5.7-7-11.4-10.5-16.9c-1.5-2.3-0.8-5.4,1.5-6.9s5.4-0.8,6.9,1.5
	c3.6,5.6,7.1,11.4,10.6,17.1c1.4,2.4,0.7,5.4-1.7,6.9C1767.1,537.6,1766.2,537.9,1765.3,537.9z"/>
<path fill="#0000FF" d="M1602.1,536.5c-1.5,0-3-0.7-4-1.9c-4-5.2-8.2-10.5-12.3-15.6c-1.7-2.1-1.4-5.3,0.7-7c2.1-1.7,5.3-1.4,7,0.7
	c4.2,5.2,8.4,10.5,12.5,15.8c1.7,2.2,1.3,5.3-0.9,7C1604.2,536.2,1603.1,536.5,1602.1,536.5z"/>
<path fill="#0000FF" d="M1663.9,529.9c-1.6,0-3.1-0.7-4.1-2.1c-3.8-5.4-7.8-10.8-11.7-16.1c-1.7-2.2-1.2-5.3,1-7
	c2.2-1.7,5.3-1.2,7,1c4,5.3,8,10.8,11.8,16.3c1.6,2.3,1.1,5.4-1.2,7C1665.9,529.6,1664.9,529.9,1663.9,529.9z"/>
<path fill="#0000FF" d="M1691.2,522.1c-1.6,0-3.1-0.8-4.1-2.2c-3.8-5.4-7.6-10.9-11.5-16.2c-1.6-2.2-1.1-5.4,1.1-7
	c2.2-1.6,5.4-1.1,7,1.1c3.9,5.4,7.8,10.9,11.6,16.4c1.6,2.3,1,5.4-1.3,7C1693.2,521.8,1692.2,522.1,1691.2,522.1z"/>
<path fill="#0000FF" d="M1613.5,507.7c-1.5,0-2.9-0.6-3.9-1.9c-4.1-5.1-8.4-10.3-12.6-15.3c-1.8-2.1-1.5-5.3,0.6-7
	c2.1-1.8,5.3-1.5,7,0.6c4.3,5.1,8.6,10.3,12.8,15.5c1.7,2.2,1.4,5.3-0.8,7C1615.7,507.3,1614.6,507.7,1613.5,507.7z"/>
<path fill="#0000FF" d="M1713.1,506.7c-1.6,0-3.1-0.8-4.1-2.2c-3.8-5.4-7.6-10.9-11.5-16.2c-1.6-2.2-1.1-5.4,1.1-7
	c2.2-1.6,5.4-1.1,7,1.1c3.9,5.4,7.8,10.9,11.6,16.4c1.6,2.3,1,5.4-1.3,7C1715.1,506.4,1714.1,506.7,1713.1,506.7z"/>
<path fill="#0000FF" d="M1576.8,505.5c-1.4,0-2.8-0.6-3.8-1.7c-4.3-5-8.7-10-13.1-14.9c-1.9-2-1.7-5.2,0.3-7.1
	c2-1.9,5.2-1.7,7.1,0.3c4.5,4.9,9,10,13.3,15.1c1.8,2.1,1.6,5.3-0.5,7.1C1579.1,505.1,1578,505.5,1576.8,505.5z"/>
<path fill="#0000FF" d="M1743.8,504.1c-1.6,0-3.2-0.8-4.2-2.2c-3.7-5.5-7.5-11-11.2-16.4c-1.6-2.3-1-5.4,1.2-7c2.3-1.6,5.4-1,7,1.2
	c3.8,5.5,7.6,11,11.4,16.6c1.5,2.3,0.9,5.4-1.4,6.9C1745.7,503.8,1744.8,504.1,1743.8,504.1z"/>
<path fill="#0000FF" d="M1639.9,497.9c-1.5,0-2.9-0.7-3.9-1.9c-4.1-5.2-8.3-10.4-12.5-15.5c-1.8-2.1-1.5-5.3,0.7-7
	c2.1-1.8,5.3-1.5,7,0.7c4.2,5.1,8.5,10.4,12.6,15.7c1.7,2.2,1.3,5.3-0.8,7C1642.1,497.5,1641,497.9,1639.9,497.9z"/>
<path fill="#0000FF" d="M1667.7,489.7c-1.5,0-3-0.7-4-2c-4-5.3-8.2-10.5-12.3-15.6c-1.7-2.2-1.4-5.3,0.8-7c2.2-1.7,5.3-1.4,7,0.8
	c4.2,5.2,8.3,10.5,12.4,15.8c1.7,2.2,1.3,5.3-0.9,7C1669.8,489.4,1668.7,489.7,1667.7,489.7z"/>
<path fill="#0000FF" d="M1587.7,477.1c-1.4,0-2.7-0.6-3.7-1.7c-4.4-4.9-8.9-9.9-13.4-14.7c-1.9-2-1.8-5.2,0.2-7.1
	c2-1.9,5.2-1.8,7.1,0.2c4.6,4.9,9.1,9.9,13.6,14.9c1.8,2.1,1.7,5.2-0.4,7.1C1590,476.7,1588.9,477.1,1587.7,477.1z"/>
<path fill="#0000FF" d="M1550,475.8c-1.3,0-2.6-0.5-3.6-1.5c-4.5-4.8-9.2-9.5-13.9-14.2c-2-1.9-2-5.1,0-7.1c1.9-2,5.1-2,7.1,0
	c4.8,4.7,9.5,9.5,14.1,14.4c1.9,2,1.8,5.2-0.2,7.1C1552.5,475.4,1551.2,475.8,1550,475.8z"/>
<path fill="#0000FF" d="M1689.6,474.3c-1.5,0-3-0.7-4-2c-4-5.3-8.1-10.5-12.2-15.7c-1.7-2.2-1.4-5.3,0.8-7c2.2-1.7,5.3-1.4,7,0.8
	c4.2,5.2,8.3,10.5,12.4,15.9c1.7,2.2,1.3,5.3-0.9,7C1691.8,474,1690.7,474.3,1689.6,474.3z"/>
<path fill="#0000FF" d="M1720.9,471.3c-1.5,0-3.1-0.7-4-2c-3.9-5.3-7.9-10.7-12-15.9c-1.7-2.2-1.3-5.3,0.9-7s5.3-1.3,7,0.9
	c4.1,5.3,8.2,10.7,12.1,16.1c1.6,2.2,1.2,5.4-1.1,7C1722.9,471,1721.9,471.3,1720.9,471.3z"/>
<path fill="#0000FF" d="M1614.5,467c-1.4,0-2.8-0.6-3.8-1.7c-4.3-5-8.8-10-13.2-14.8c-1.9-2-1.7-5.2,0.3-7.1c2-1.9,5.2-1.7,7.1,0.3
	c4.5,4.9,9,10,13.4,15c1.8,2.1,1.6,5.2-0.5,7.1C1616.8,466.6,1615.6,467,1614.5,467z"/>
<path fill="#0000FF" d="M1642.6,458.5c-1.4,0-2.8-0.6-3.8-1.8c-4.3-5-8.6-10.1-13-15c-1.8-2.1-1.6-5.2,0.4-7.1
	c2.1-1.8,5.2-1.6,7.1,0.4c4.4,5,8.9,10.1,13.2,15.2c1.8,2.1,1.5,5.3-0.6,7C1644.9,458.1,1643.8,458.5,1642.6,458.5z"/>
<path fill="#0000FF" d="M1560.3,448c-1.3,0-2.6-0.5-3.6-1.5c-4.6-4.7-9.4-9.4-14.1-14c-2-1.9-2.1-5.1-0.1-7.1c1.9-2,5.1-2.1,7.1-0.1
	c4.8,4.6,9.6,9.4,14.3,14.1c1.9,2,1.9,5.1,0,7.1C1562.8,447.5,1561.6,448,1560.3,448z"/>
<path fill="#0000FF" d="M1521.6,447.7c-1.2,0-2.5-0.4-3.4-1.4c-4.8-4.5-9.7-9-14.7-13.4c-2.1-1.8-2.2-5-0.4-7.1
	c1.8-2.1,5-2.2,7.1-0.4c5,4.5,10,9,14.9,13.6c2,1.9,2.1,5.1,0.2,7.1C1524.2,447.2,1522.9,447.7,1521.6,447.7z"/>
<path fill="#0000FF" d="M1664.7,443.1c-1.4,0-2.8-0.6-3.8-1.8c-4.2-5.1-8.6-10.1-13-15.1c-1.8-2.1-1.6-5.2,0.5-7.1
	c2.1-1.8,5.2-1.6,7.1,0.5c4.4,5,8.8,10.1,13.1,15.3c1.8,2.1,1.5,5.3-0.6,7C1666.9,442.7,1665.8,443.1,1664.7,443.1z"/>
<path fill="#0000FF" d="M1696.5,439.6c-1.5,0-2.9-0.6-3.9-1.9c-4.1-5.1-8.4-10.3-12.7-15.4c-1.8-2.1-1.5-5.3,0.6-7
	c2.1-1.8,5.3-1.5,7,0.6c4.3,5.1,8.6,10.3,12.8,15.5c1.7,2.2,1.4,5.3-0.8,7C1698.7,439.2,1697.6,439.6,1696.5,439.6z"/>
<path fill="#0000FF" d="M1587.5,437.5c-1.3,0-2.6-0.5-3.6-1.5c-4.6-4.8-9.3-9.5-13.9-14.2c-2-1.9-2-5.1,0-7.1c1.9-2,5.1-2,7.1,0
	c4.7,4.7,9.5,9.5,14.1,14.3c1.9,2,1.8,5.2-0.1,7.1C1590,437,1588.8,437.5,1587.5,437.5z"/>
<path fill="#0000FF" d="M1616.1,428.6c-1.3,0-2.7-0.5-3.7-1.6c-4.5-4.8-9.1-9.7-13.7-14.4c-1.9-2-1.9-5.1,0.1-7.1
	c2-1.9,5.1-1.9,7.1,0.1c4.7,4.8,9.3,9.7,13.9,14.6c1.9,2,1.8,5.2-0.3,7.1C1618.5,428.1,1617.3,428.6,1616.1,428.6z"/>
<path fill="#0000FF" d="M1491.7,421.1c-1.1,0-2.3-0.4-3.2-1.2c-5-4.3-10.2-8.5-15.3-12.6c-2.2-1.7-2.5-4.9-0.8-7
	c1.7-2.2,4.9-2.5,7-0.8c5.2,4.2,10.4,8.5,15.6,12.8c2.1,1.8,2.4,4.9,0.6,7C1494.6,420.5,1493.1,421.1,1491.7,421.1z"/>
<path fill="#0000FF" d="M1531.5,420.3c-1.2,0-2.4-0.4-3.4-1.3c-4.9-4.4-9.9-8.9-14.8-13.2c-2.1-1.8-2.3-5-0.5-7.1
	c1.8-2.1,5-2.3,7.1-0.5c5,4.4,10.1,8.9,15,13.4c2,1.9,2.2,5,0.3,7.1C1534.2,419.7,1532.8,420.3,1531.5,420.3z"/>
<path fill="#0000FF" d="M1638.3,413c-1.3,0-2.7-0.5-3.7-1.6c-4.5-4.9-9.1-9.7-13.6-14.5c-1.9-2-1.9-5.2,0.1-7.1
	c2-1.9,5.2-1.9,7.1,0.1c4.6,4.8,9.3,9.7,13.8,14.6c1.9,2,1.7,5.2-0.3,7.1C1640.7,412.6,1639.5,413,1638.3,413z"/>
<path fill="#0000FF" d="M1559.1,409.4c-1.2,0-2.5-0.5-3.4-1.4c-4.8-4.5-9.7-9-14.6-13.5c-2.1-1.8-2.2-5-0.4-7.1
	c1.8-2.1,5-2.2,7.1-0.4c5,4.5,10,9.1,14.8,13.6c2,1.9,2.1,5.1,0.2,7.1C1561.8,408.8,1560.4,409.4,1559.1,409.4z"/>
<path fill="#0000FF" d="M1670.7,409c-1.4,0-2.8-0.6-3.8-1.7c-4.4-5-8.9-9.9-13.3-14.8c-1.9-2-1.7-5.2,0.3-7.1c2-1.9,5.2-1.7,7.1,0.3
	c4.5,4.9,9.1,9.9,13.5,14.9c1.8,2.1,1.6,5.2-0.4,7.1C1673,408.5,1671.8,409,1670.7,409z"/>
<path fill="#0000FF" d="M1588.2,400c-1.3,0-2.5-0.5-3.5-1.4c-4.7-4.6-9.6-9.2-14.4-13.7c-2-1.9-2.1-5-0.3-7.1c1.9-2,5-2.1,7.1-0.3
	c4.9,4.5,9.8,9.2,14.6,13.9c2,1.9,2,5.1,0.1,7.1C1590.8,399.5,1589.5,400,1588.2,400z"/>
<path fill="#0000FF" d="M1460.5,396.1c-1.1,0-2.1-0.3-3-1l-1-0.7c-4.9-3.7-10-7.5-15-11.1c-2.2-1.6-2.8-4.7-1.1-7
	c1.6-2.2,4.7-2.8,7-1.1c5.1,3.7,10.2,7.4,15.2,11.2l1,0.7c2.2,1.7,2.6,4.8,1,7C1463.5,395.4,1462,396.1,1460.5,396.1z"/>
<path fill="#0000FF" d="M1501.3,394.1c-1.1,0-2.2-0.4-3.2-1.1c-5.1-4.2-10.3-8.4-15.5-12.4c-2.2-1.7-2.6-4.8-0.9-7
	c1.7-2.2,4.8-2.6,7-0.9c5.3,4.1,10.6,8.4,15.7,12.6c2.1,1.8,2.4,4.9,0.7,7C1504.1,393.4,1502.7,394.1,1501.3,394.1z"/>
<path fill="#0000FF" d="M1610.5,384.3c-1.3,0-2.5-0.5-3.5-1.4c-4.7-4.6-9.5-9.3-14.3-13.8c-2-1.9-2.1-5.1-0.2-7.1
	c1.9-2,5.1-2.1,7.1-0.2c4.8,4.6,9.7,9.3,14.5,14c2,1.9,2,5.1,0,7.1C1613.1,383.8,1611.8,384.3,1610.5,384.3z"/>
<path fill="#0000FF" d="M1529.3,382.7c-1.1,0-2.3-0.4-3.2-1.2c-5-4.3-10.2-8.6-15.3-12.7c-2.1-1.7-2.5-4.9-0.7-7
	c1.7-2.1,4.9-2.5,7-0.7c5.2,4.2,10.4,8.5,15.5,12.9c2.1,1.8,2.4,4.9,0.6,7C1532.1,382.1,1530.7,382.7,1529.3,382.7z"/>
<path fill="#0000FF" d="M1643.5,379.6c-1.3,0-2.6-0.5-3.6-1.5c-4.6-4.7-9.3-9.5-14-14.2c-2-1.9-2-5.1,0-7.1c1.9-2,5.1-2,7.1,0
	c4.8,4.7,9.5,9.5,14.1,14.3c1.9,2,1.9,5.2-0.1,7.1C1646,379.1,1644.8,379.6,1643.5,379.6z"/>
<path fill="#0000FF" d="M1428,372.7c-1,0-1.9-0.3-2.8-0.9c-5.5-3.7-11.1-7.4-16.6-11c-2.3-1.5-3-4.6-1.5-6.9c1.5-2.3,4.6-3,6.9-1.5
	c5.6,3.6,11.2,7.3,16.8,11.1c2.3,1.6,2.9,4.7,1.3,6.9C1431.2,372,1429.6,372.7,1428,372.7z"/>
<path fill="#0000FF" d="M1558.9,372.7c-1.2,0-2.4-0.4-3.3-1.3c-4.9-4.4-10-8.7-15-13c-2.1-1.8-2.4-4.9-0.6-7c1.8-2.1,4.9-2.4,7-0.6
	c5.1,4.3,10.2,8.7,15.2,13.2c2.1,1.8,2.3,5,0.4,7.1C1561.6,372.2,1560.3,372.7,1558.9,372.7z"/>
<path fill="#0000FF" d="M1469.7,369.4c-1,0-2.1-0.3-3-1c-5.3-3.9-10.7-7.8-16.1-11.6c-2.3-1.6-2.8-4.7-1.2-7c1.6-2.3,4.7-2.8,7-1.2
	c5.5,3.8,10.9,7.8,16.3,11.8c2.2,1.6,2.7,4.8,1,7C1472.8,368.7,1471.3,369.4,1469.7,369.4z"/>
<path fill="#0000FF" d="M1498.3,357.4c-1.1,0-2.1-0.3-3-1c-2.2-1.7-4.3-3.3-6.5-5c-3.1-2.3-6.3-4.7-9.4-7c-2.2-1.6-2.7-4.8-1.1-7
	s4.8-2.7,7-1.1c3.2,2.3,6.4,4.7,9.5,7.1c2.2,1.7,4.4,3.3,6.6,5c2.2,1.7,2.6,4.8,0.9,7C1501.3,356.8,1499.8,357.4,1498.3,357.4z"/>
<path fill="#0000FF" d="M1581.4,356.8c-1.2,0-2.4-0.4-3.3-1.3c-4.9-4.4-9.9-8.8-14.9-13.1c-2.1-1.8-2.3-5-0.5-7.1
	c1.8-2.1,5-2.3,7.1-0.5c5.1,4.3,10.1,8.8,15.1,13.3c2.1,1.8,2.2,5,0.4,7.1C1584.1,356.3,1582.8,356.8,1581.4,356.8z"/>
<path fill="#0000FF" d="M1615.1,351.4c-1.2,0-2.5-0.5-3.4-1.4c-4.8-4.5-9.7-9.1-14.6-13.5c-2-1.9-2.2-5-0.4-7.1c1.9-2,5-2.2,7.1-0.4
	c5,4.5,9.9,9.1,14.8,13.7c2,1.9,2.1,5.1,0.2,7.1C1617.7,350.9,1616.4,351.4,1615.1,351.4z"/>
<path fill="#0000FF" d="M1394.3,351.1c-0.9,0-1.8-0.2-2.6-0.7c-2.4-1.4-4.8-2.9-7.2-4.3l-1.9-1.1c-0.1,0-0.1-0.1-0.2-0.1
	c-3.7-2.4-6.3-6.1-7.6-10.3c-0.8-2.7,0.8-5.4,3.4-6.2c2.7-0.8,5.4,0.8,6.2,3.4c0.5,1.9,1.8,3.5,3.4,4.7l1.7,1
	c2.4,1.4,4.8,2.8,7.2,4.3c2.4,1.4,3.1,4.5,1.7,6.9C1397.7,350.3,1396,351.1,1394.3,351.1z"/>
<path fill="#0000FF" d="M1528.3,346.9c-1.1,0-2.2-0.4-3.1-1.1c-5.1-4.1-10.4-8.3-15.6-12.3c-2.2-1.7-2.6-4.8-0.9-7
	c1.7-2.2,4.8-2.6,7-0.9c5.3,4.1,10.6,8.2,15.8,12.4c2.2,1.7,2.5,4.9,0.8,7C1531.2,346.3,1529.8,346.9,1528.3,346.9z"/>
<path fill="#0000FF" d="M1437,346.4c-1,0-1.9-0.3-2.8-0.8c-5.5-3.7-11.1-7.3-16.7-10.8c-2.3-1.5-3-4.6-1.6-6.9
	c1.5-2.3,4.6-3,6.9-1.6c5.6,3.6,11.3,7.2,16.9,11c2.3,1.5,2.9,4.6,1.4,6.9C1440.2,345.7,1438.6,346.4,1437,346.4z"/>
<path fill="#0000FF" d="M1466,333.8c-1,0-2-0.3-2.9-0.9c-5.4-3.8-10.9-7.5-16.5-11.2c-2.3-1.5-2.9-4.6-1.4-6.9
	c1.5-2.3,4.6-2.9,6.9-1.4c5.6,3.7,11.2,7.5,16.7,11.3c2.3,1.6,2.8,4.7,1.3,7C1469.1,333.1,1467.6,333.8,1466,333.8z"/>
<path fill="#0000FF" d="M1551.1,330.7c-1.1,0-2.2-0.4-3.2-1.1c-5.1-4.2-10.3-8.4-15.5-12.4c-2.2-1.7-2.6-4.8-0.9-7
	c1.7-2.2,4.8-2.6,7-0.9c5.3,4.1,10.6,8.3,15.7,12.6c2.1,1.8,2.4,4.9,0.7,7C1553.9,330.1,1552.5,330.7,1551.1,330.7z"/>
<path fill="#0000FF" d="M1403.2,325.1c-0.9,0-1.8-0.2-2.6-0.7c-0.8-0.5-1.6-0.9-2.4-1.4c-0.3-0.1-0.5-0.2-0.8-0.4l-0.5-0.3
	c-2.2-1.3-4.9-1.5-7.2-0.6c-2.6,1-5.5-0.3-6.4-2.9c-1-2.6,0.3-5.5,2.9-6.4c4.3-1.6,9.2-1.6,13.5,0.2c0.5,0.1,0.9,0.3,1.4,0.6
	c1.6,0.9,3.1,1.8,4.7,2.8c2.4,1.4,3.1,4.5,1.7,6.9C1406.5,324.2,1404.9,325.1,1403.2,325.1z"/>
<path fill="#0000FF" d="M1585.4,324.6c-1.2,0-2.3-0.4-3.3-1.2c-5-4.3-10.1-8.6-15.2-12.8c-2.1-1.8-2.4-4.9-0.7-7
	c1.8-2.1,4.9-2.4,7-0.7c5.1,4.2,10.3,8.6,15.4,13c2.1,1.8,2.3,5,0.5,7.1C1588.2,324,1586.8,324.6,1585.4,324.6z"/>
<path fill="#0000FF" d="M1496.6,322.6c-1,0-2.1-0.3-3-1c-5.6-4.1-10.9-7.9-16.2-11.6c-2.3-1.6-2.8-4.7-1.2-7c1.6-2.3,4.7-2.8,7-1.2
	c5.3,3.7,10.6,7.5,16.3,11.7c2.2,1.6,2.7,4.8,1.1,7C1499.6,321.9,1498.1,322.6,1496.6,322.6z"/>
<path fill="#0000FF" d="M1432.6,311.8c-0.9,0-1.8-0.2-2.7-0.8c-5-3.2-10.2-6.3-15.3-9.4l-1-0.6c-0.1,0-0.1-0.1-0.2-0.1
	c-0.3-0.2-0.6-0.4-0.9-0.6c-2.2-1.7-2.7-4.8-1-7c1.7-2.2,4.8-2.7,7-1c0.1,0.1,0.2,0.2,0.3,0.2l0.9,0.5c5.2,3.1,10.4,6.3,15.5,9.5
	c2.3,1.5,3,4.6,1.6,6.9C1435.9,310.9,1434.3,311.8,1432.6,311.8z"/>
<path fill="#0000FF" d="M1519.5,306.1c-1,0-2.1-0.3-3-1c-5.2-3.9-10.7-7.8-16.1-11.7c-2.3-1.6-2.8-4.7-1.2-7c1.6-2.3,4.7-2.8,7-1.2
	c5.5,3.9,11,7.9,16.3,11.8c2.2,1.6,2.7,4.8,1,7C1522.6,305.4,1521.1,306.1,1519.5,306.1z"/>
<path fill="#0000FF" d="M1463.8,299.7c-0.9,0-1.9-0.3-2.7-0.8c-5.5-3.6-11-7.1-16.7-10.7c-2.3-1.5-3.1-4.5-1.6-6.9
	c1.5-2.3,4.5-3.1,6.9-1.6c5.8,3.6,11.4,7.1,17,10.8c2.3,1.5,2.9,4.6,1.4,6.9C1467,298.9,1465.4,299.7,1463.8,299.7z"/>
<path fill="#0000FF" d="M1554.5,299.1c-1.1,0-2.2-0.4-3.1-1.1c-5.2-4.1-10.5-8.2-15.8-12.1c-2.2-1.7-2.7-4.8-1-7
	c1.7-2.2,4.8-2.7,7-1c5.3,4,10.7,8.1,15.9,12.3c2.2,1.7,2.5,4.9,0.8,7C1557.5,298.4,1556,299.1,1554.5,299.1z"/>
<path fill="#0000FF" d="M1412.3,283.4c-0.9,0-1.8-0.2-2.6-0.8c-2.3-1.5-3.1-4.5-1.6-6.9c0.1-0.1,0.2-0.3,0.2-0.4
	c3.4-5.2,9.2-8.3,15.4-8.3c0,0,0,0,0,0c2.9,0,5.9,0.7,8.5,2.1c2.4,1.3,3.4,4.3,2.1,6.7c-1.3,2.4-4.3,3.4-6.7,2.1
	c-1.2-0.6-2.5-0.9-3.9-0.9c-2.8,0-5.5,1.4-7,3.8l-0.1,0.2C1415.6,282.6,1413.9,283.4,1412.3,283.4z"/>
<path fill="#0000FF" d="M1486.9,283c-1,0-1.9-0.3-2.8-0.9c-5.5-3.7-11.1-7.4-16.6-10.9c-2.3-1.5-3-4.6-1.5-6.9
	c1.5-2.3,4.6-3,6.9-1.5c5.6,3.6,11.3,7.3,16.8,11.1c2.3,1.5,2.9,4.7,1.4,6.9C1490.1,282.2,1488.5,283,1486.9,283z"/>
<path fill="#0000FF" d="M1522.5,275c-1,0-2-0.3-2.9-0.9c-5.4-3.9-10.9-7.7-16.3-11.4c-2.3-1.6-2.9-4.7-1.3-6.9
	c1.6-2.3,4.7-2.9,6.9-1.3c5.5,3.8,11,7.6,16.5,11.5c2.2,1.6,2.8,4.7,1.1,7C1525.6,274.3,1524.1,275,1522.5,275z"/>
<path fill="#0000FF" d="M1453.2,261.4c-0.9,0-1.8-0.2-2.6-0.7c-4.6-2.8-9.2-5.6-13.8-8.3c-0.1,0-0.2-0.1-0.2-0.1
	c-1.4-1-2.8-2.1-3.9-3.4c-1.8-2.1-1.5-5.3,0.6-7c2.1-1.8,5.3-1.5,7,0.6c0.5,0.6,1.1,1.1,1.7,1.5c4.6,2.7,9.3,5.5,13.9,8.3
	c2.4,1.4,3.1,4.5,1.7,6.9C1456.6,260.5,1454.9,261.4,1453.2,261.4z"/>
<path fill="#0000FF" d="M1489.5,252.5c-0.9,0-1.9-0.3-2.7-0.8c-5.5-3.6-11.2-7.2-16.8-10.7c-2.3-1.5-3.1-4.5-1.6-6.9
	c1.5-2.3,4.5-3.1,6.9-1.6c5.7,3.5,11.4,7.1,17,10.8c2.3,1.5,3,4.6,1.5,6.9C1492.7,251.7,1491.1,252.5,1489.5,252.5z"/>
<path fill="#0000FF" d="M1437.2,232.4c-1.3,0-2.5-0.5-3.5-1.5c-2-1.9-2-5.1,0-7.1c3.4-3.5,8.2-5.4,13.1-5.4c3.4,0,6.6,0.9,9.5,2.7
	c0.2,0.1,0.3,0.2,0.5,0.3l1.3,0.8c2.4,1.4,3.2,4.5,1.8,6.8c-1.4,2.4-4.5,3.2-6.8,1.8l-0.7-0.4c-0.3-0.1-0.6-0.3-0.9-0.5
	c-1.4-0.9-3-1.4-4.6-1.4c-2.2,0-4.4,0.9-6,2.5C1439.8,231.9,1438.5,232.4,1437.2,232.4z"/>
</svg>
