<?xml version="1.0" encoding="utf-8"?>
<!-- Generator: Adobe Illustrator 18.0.0, SVG Export Plug-In . SVG Version: 6.00 Build 0)  -->
<!DOCTYPE svg PUBLIC "-//W3C//DTD SVG 1.1 Tiny//EN" "http://www.w3.org/Graphics/SVG/1.1/DTD/svg11-tiny.dtd">
<svg version="1.1" baseProfile="tiny" id="Layer_1" xmlns="http://www.w3.org/2000/svg" xmlns:xlink="http://www.w3.org/1999/xlink"
	 x="0px" y="0px" width="450px" height="640px" viewBox="0 0 450 640" xml:space="preserve">
<g>
	<path fill="none" stroke="#00FFFF" stroke-width="7" stroke-linecap="round" stroke-linejoin="round" stroke-miterlimit="10" d="
		M72.8,541.8h-1.9c-23.2,0-42-17.8-42-40.7v-67.8c0-22.9,18.7-40.5,42-40.5h1.9c20.9,0,41.8,14.8,41.8,35.4v0.6
		c0,6.4-3.7,11-10.5,11c-5.6,0-8.8-3.4-10.1-8.7c-1.9-10.4-9.9-18.2-21.1-18.2h-1.9c-11.8,0-21.3,8.7-21.3,20.1v68.3
		c0,11.7,9.7,20.4,21.3,20.4h1.9c11.2,0,19.2-7.8,21.1-18.2c1.3-5.3,4.5-8.7,10.1-8.7c6.9,0,10.5,4.7,10.5,11v0.6
		C114.6,527,93.7,541.8,72.8,541.8z"/>
</g>
<g>
	<path fill="none" stroke="#00FFFF" stroke-width="7" stroke-linecap="round" stroke-linejoin="round" stroke-miterlimit="10" d="
		M175.3,541.8h-2.2c-23,0-42-17.8-42-40.7v-67.8c0-22.9,18.9-40.5,42.2-40.5h1.9c23.2,0,42,17.6,42,40.5v67.8
		C217.3,524,198.5,541.8,175.3,541.8z M196.6,433.3c0-11.7-9.7-20.4-21.3-20.4h-2.2c-11.6,0-21.3,8.9-21.3,20.4v67.8
		c0,11.7,9.7,20.6,21.3,20.6h2.2c11.6,0,21.3-8.9,21.3-20.6V433.3z"/>
</g>
<g>
	<path fill="none" stroke="#00FFFF" stroke-width="7" stroke-linecap="round" stroke-linejoin="round" stroke-miterlimit="10" d="
		M311.1,540.6h-57.7c-5.6,0-10.3-4.9-10.3-10.2V403c0-6.8,5.2-10.2,10.3-10.2c5.2,0,10.1,3.4,10.1,10.2v117.5h47.6
		c6.9,0,10.3,5.1,10.3,10.2C321.4,535.5,318,540.6,311.1,540.6z"/>
</g>
<g>
	<path fill="none" stroke="#00FFFF" stroke-width="7" stroke-linecap="round" stroke-linejoin="round" stroke-miterlimit="10" d="
		M383.2,540.6h-33.8c-5.4,0-10.3-4.9-10.3-10.2V404.2c0-5.3,5-10.2,10.3-10.2h33.8c23.2,0,42,16.5,42,41.3v63.8
		C425.2,524,406.5,540.6,383.2,540.6z M404.5,435.4c0-11.7-9.7-21.2-21.3-21.2h-23.5v106.2h23.5c11.6,0,21.3-9.8,21.3-21.2V435.4z"
		/>
</g>
<path fill="none" stroke="#FFFFFF" stroke-width="6" stroke-miterlimit="10" d="M310.6,198.6c-0.9-3.3-4.3-5.3-7.6-4.4l-22.1,5.9
	L251.2,183l29.2-16.8l22.1,5.9c0.5,0.1,1.1,0.2,1.6,0.2c2.7,0,5.2-1.8,6-4.6c0.9-3.3-1.1-6.7-4.4-7.6l-10.2-2.7l12.4-7.2
	c3-1.7,4-5.5,2.3-8.4c-1.7-3-5.5-4-8.4-2.3l-12.4,7.2l2.7-10.2c0.9-3.3-1.1-6.7-4.4-7.6c-3.3-0.9-6.7,1.1-7.6,4.4l-5.9,22.1
	L245.4,172v-34l16.2-16.2c2.4-2.4,2.4-6.3,0-8.7c-2.4-2.4-6.3-2.4-8.7,0l-7.5,7.5V107c0-3.4-2.8-6.2-6.2-6.2s-6.2,2.8-6.2,6.2v13.4
	l-7.5-7.5c-2.4-2.4-6.3-2.4-8.7,0s-2.4,6.3,0,8.7L233,138v34.6l-29-16.8l-5.9-22.1c-0.9-3.3-4.3-5.3-7.6-4.4
	c-3.3,0.9-5.2,4.3-4.4,7.6l2.7,10.2l-12.4-7.2c-3-1.7-6.7-0.7-8.4,2.3s-0.7,6.7,2.3,8.4l12.4,7.2l-10.2,2.7
	c-3.3,0.9-5.2,4.3-4.4,7.6c0.7,2.8,3.2,4.6,6,4.6c0.5,0,1.1-0.1,1.6-0.2l22.1-5.9l28.6,16.5l-29.2,16.8l-22.1-5.9
	c-3.3-0.9-6.7,1.1-7.6,4.4c-0.9,3.3,1.1,6.7,4.4,7.6l10.2,2.7l-11.6,6.7c-3,1.7-4,5.5-2.3,8.4c1.1,2,3.2,3.1,5.4,3.1
	c1,0,2.1-0.3,3.1-0.8l11.6-6.7l-2.7,10.2c-0.9,3.3,1.1,6.7,4.4,7.6c0.5,0.1,1.1,0.2,1.6,0.2c2.7,0,5.2-1.8,6-4.6l5.9-22.1l29.6-17.1
	v33.3l-16.2,16.2c-2.4,2.4-2.4,6.3,0,8.7c1.2,1.2,2.8,1.8,4.4,1.8s3.2-0.6,4.4-1.8l7.5-7.5v14.3c0,3.4,2.8,6.2,6.2,6.2
	s6.2-2.8,6.2-6.2v-14.3l7.5,7.5c1.2,1.2,2.8,1.8,4.4,1.8c1.6,0,3.2-0.6,4.4-1.8c2.4-2.4,2.4-6.3,0-8.7l-16.2-16.2v-32.8l29.4,16.9
	l5.9,22.1c0.7,2.8,3.2,4.6,6,4.6c0.5,0,1.1-0.1,1.6-0.2c3.3-0.9,5.2-4.3,4.4-7.6l-2.7-10.2l11.6,6.7c1,0.6,2,0.8,3.1,0.8
	c2.1,0,4.2-1.1,5.4-3.1c1.7-3,0.7-6.7-2.3-8.4l-11.6-6.7l10.2-2.7C309.5,205.3,311.5,201.9,310.6,198.6z"/>
</svg>
