<?xml version="1.0" encoding="utf-8"?>
<!-- Generator: Adobe Illustrator 18.0.0, SVG Export Plug-In . SVG Version: 6.00 Build 0)  -->
<!DOCTYPE svg PUBLIC "-//W3C//DTD SVG 1.1 Tiny//EN" "http://www.w3.org/Graphics/SVG/1.1/DTD/svg11-tiny.dtd">
<svg version="1.1" baseProfile="tiny" id="Layer_1" xmlns="http://www.w3.org/2000/svg" xmlns:xlink="http://www.w3.org/1999/xlink"
	 x="0px" y="0px" width="410px" height="252px" viewBox="0 0 410 252" xml:space="preserve">
<g>
	<path fill="none" stroke="#FFFFFF" stroke-width="5.6" stroke-linecap="round" stroke-linejoin="round" stroke-miterlimit="10" d="
		M139.2,113.1h-1.5c-15.8,0-28.5-12.1-28.5-27.6V39.4c0-15.6,12.9-27.5,28.5-27.5h1.5c15.2,0,27.1,10.1,28.4,22.6v0.7
		c0,4.3-3.4,6.5-6.9,6.5c-3.1,0-6.3-1.9-6.9-6.2c-0.7-6.5-7.5-9.9-14.6-9.9h-1.5c-7.9,0-14.5,6-14.5,13.8v46.1c0,7.9,6.6,14,14.5,14
		h1.5c7.9,0,14.5-6.6,14.5-14.4V70.2h-11.8c-4.7,0-7-3.5-7-6.9c0-3.5,2.3-6.8,7-6.8h18.7c3.8,0,7.2,3.2,7.2,6.9V85
		C167.7,100.6,155,113.1,139.2,113.1z"/>
	<path fill="none" stroke="#FFFFFF" stroke-width="5.6" stroke-linecap="round" stroke-linejoin="round" stroke-miterlimit="10" d="
		M233.8,112.3h-44.5c-3.7,0-7-3.3-7-6.9V19.7c0-3.6,3.4-6.9,7-6.9h44.5c4.7,0,7,3.5,7,6.9c0,3.3-2.3,6.8-7,6.8h-37.4v27.8h25.4
		c4.7,0,7,3.3,7,6.8c0,3.5-2.3,6.9-7,6.9h-25.4v30.7h37.4c4.7,0,7,3.5,7,6.9C240.8,108.8,238.5,112.3,233.8,112.3z"/>
	<path fill="none" stroke="#FFFFFF" stroke-width="5.6" stroke-linecap="round" stroke-linejoin="round" stroke-miterlimit="10" d="
		M301.2,26.4h-13.9v79.8c0,4.6-3.5,6.9-7,6.9c-3.5,0-7-2.3-7-6.9V26.4h-13.9c-4.7,0-7-3.5-7-6.8c0-3.5,2.3-6.9,7-6.9h41.8
		c4.7,0,7,3.5,7,6.9C308.2,23,305.9,26.4,301.2,26.4z"/>
	<path fill="none" stroke="#FFFFFF" stroke-width="5.6" stroke-linecap="round" stroke-linejoin="round" stroke-miterlimit="10" d="
		M52.7,195.8l16.7,34.4c0.4,1,0.7,2,0.7,3c0,3.7-3.1,6.9-7.5,6.9c-2.3,0-4.7-1.2-6-3.9L37.8,197H26v36.1c0,4.6-3.4,6.9-6.9,6.9
		c-3.7,0-7.2-2.3-7.2-6.9v-86.5c0-3.6,3.4-6.9,7-6.9h23.8c15.8,0,28.5,12.5,28.5,28.1v1.3C71.3,181.5,63.8,191.9,52.7,195.8z
		 M57.2,167.8c0-7.9-6.1-14.4-14-14.4H26v30h17.4c7.9,0,13.9-6.5,13.9-14.3V167.8z"/>
	<path fill="none" stroke="#FFFFFF" stroke-width="5.6" stroke-linecap="round" stroke-linejoin="round" stroke-miterlimit="10" d="
		M137.1,239.2H92.6c-3.7,0-7-3.3-7-6.9v-85.7c0-3.6,3.4-6.9,7-6.9h44.5c4.7,0,7,3.5,7,6.9c0,3.3-2.3,6.8-7,6.8H99.6v27.8h25.4
		c4.7,0,7,3.3,7,6.8c0,3.5-2.3,6.9-7,6.9H99.6v30.7h37.4c4.7,0,7,3.5,7,6.9C144.1,235.8,141.8,239.2,137.1,239.2z"/>
	<path fill="none" stroke="#FFFFFF" stroke-width="5.6" stroke-linecap="round" stroke-linejoin="round" stroke-miterlimit="10" d="
		M222.5,240.1c-2.8,0-5.6-1.6-6.7-5l-6-19h-32.5l-5.8,19c-1,3.5-4.1,5-6.9,5c-4.2,0-7.2-2.9-7.2-6.5c0-0.7,0.1-1.6,0.3-2.3l27.8-87
		c1.2-3.6,4.7-5.5,8-5.5c3.5,0,6.9,1.7,8,5.5l27.8,87c0.1,0.7,0.3,1.6,0.3,2.2C229.6,237.2,226.7,240.1,222.5,240.1z M193.5,164.2
		l-11.8,38.2h23.7L193.5,164.2z"/>
	<path fill="none" stroke="#FFFFFF" stroke-width="5.6" stroke-linecap="round" stroke-linejoin="round" stroke-miterlimit="10" d="
		M271.6,239.2h-23c-3.7,0-7-3.3-7-6.9v-85.7c0-3.6,3.4-6.9,7-6.9h23c15.8,0,28.5,11.2,28.5,28.1v43.3
		C300.1,228,287.4,239.2,271.6,239.2z M286.1,167.8c0-7.9-6.6-14.4-14.5-14.4h-15.9v72.1h15.9c7.9,0,14.5-6.6,14.5-14.4V167.8z"/>
	<path fill="none" stroke="#FFFFFF" stroke-width="5.6" stroke-linecap="round" stroke-linejoin="round" stroke-miterlimit="10" d="
		M370.3,148.5l-22.1,52.3v32.4c0,4.6-3.5,6.9-7,6.9c-3.5,0-7-2.3-7-6.9v-32.4l-22.1-52.3c-0.4-0.9-0.6-1.9-0.6-2.7
		c0-3.7,2.9-6.9,7.3-6.9c2.5,0,5,1.3,6.3,4.3l16.1,38.2l16.1-38.2c1.3-3,3.8-4.3,6.3-4.3c4.4,0,7.3,3.2,7.3,6.9
		C370.9,146.6,370.6,147.7,370.3,148.5z"/>
	<path fill="none" stroke="#FFFFFF" stroke-width="5.6" stroke-linecap="round" stroke-linejoin="round" stroke-miterlimit="10" d="
		M391.1,210c-3.5,0-7-2.2-7-6.9v-57.3c0-4.6,3.5-6.9,7-6.9s7,2.3,7,6.9v57.3C398.1,207.8,394.6,210,391.1,210z M391.2,240.1
		c-3.7,0-7.2-2.3-7.2-6.9V230c0-4.6,3.5-6.9,7-6.9s7,2.3,7,6.9v3.2C398.1,237.8,394.7,240.1,391.2,240.1z"/>
</g>
</svg>
