<?xml version="1.0" encoding="utf-8"?>
<!-- Generator: Adobe Illustrator 18.0.0, SVG Export Plug-In . SVG Version: 6.00 Build 0)  -->
<!DOCTYPE svg PUBLIC "-//W3C//DTD SVG 1.1 Tiny//EN" "http://www.w3.org/Graphics/SVG/1.1/DTD/svg11-tiny.dtd">
<svg version="1.1" baseProfile="tiny" id="Layer_1" xmlns="http://www.w3.org/2000/svg" xmlns:xlink="http://www.w3.org/1999/xlink"
	 x="0px" y="0px" width="450px" height="640px" viewBox="0 0 450 640" xml:space="preserve">
<g>
	<path fill="none" stroke="#FF00FF" stroke-width="7" stroke-linecap="round" stroke-linejoin="round" stroke-miterlimit="10" d="
		M161.5,541.8c-5.4,0-10.3-3.4-10.3-10.2v-56.4h-44.8v56.4c0,6.8-5.2,10.2-10.3,10.2c-5.2,0-10.3-3.4-10.3-10.2V403
		c0-6.8,5.2-10.2,10.3-10.2c5.2,0,10.3,3.4,10.3,10.2v52.2h44.8V403c0-6.8,5.2-10.2,10.3-10.2c5.2,0,10.3,3.4,10.3,10.2v128.7
		C171.8,538.4,166.7,541.8,161.5,541.8z"/>
</g>
<g>
	<path fill="none" stroke="#FF00FF" stroke-width="7" stroke-linecap="round" stroke-linejoin="round" stroke-miterlimit="10" d="
		M241.6,541.8h-2.2c-23,0-42-17.8-42-40.7v-67.8c0-22.9,18.9-40.5,42.2-40.5h1.9c23.2,0,42,17.6,42,40.5v67.8
		C283.6,524,264.8,541.8,241.6,541.8z M262.9,433.3c0-11.7-9.7-20.4-21.3-20.4h-2.2c-11.6,0-21.3,8.9-21.3,20.4v67.8
		c0,11.7,9.7,20.6,21.3,20.6h2.2c11.6,0,21.3-8.9,21.3-20.6V433.3z"/>
</g>
<g>
	<path fill="none" stroke="#FF00FF" stroke-width="7" stroke-linecap="round" stroke-linejoin="round" stroke-miterlimit="10" d="
		M367.7,414.2h-20.5v117.5c0,6.8-5.2,10.2-10.3,10.2c-5.2,0-10.3-3.4-10.3-10.2V414.2h-20.5c-6.9,0-10.3-5.1-10.3-10
		c0-5.1,3.4-10.2,10.3-10.2h61.6c6.9,0,10.3,5.1,10.3,10.2C378.1,409.1,374.6,414.2,367.7,414.2z"/>
</g>
<g>
	<path fill="none" stroke="#FFFF00" stroke-width="6" stroke-miterlimit="10" d="M223.7,231.5c-24,0-43.5-19.5-43.5-43.5
		s19.5-43.5,43.5-43.5s43.5,19.5,43.5,43.5S247.7,231.5,223.7,231.5z M223.5,156.2c-17.7,0-32,14.4-32,32s14.4,32,32,32
		c17.7,0,32-14.4,32-32S241.1,156.2,223.5,156.2z M223.7,168.8c-10.6,0-19.2,8.6-19.2,19.2c0,10.6,8.6,19.2,19.2,19.2
		c10.6,0,19.2-8.6,19.2-19.2C242.9,177.4,234.3,168.8,223.7,168.8z"/>
	<path fill="none" stroke="#FFFF00" stroke-width="6" stroke-miterlimit="10" d="M223.7,130.3c-3.4,0-6.2-2.8-6.2-6.2v-20.7
		c0-3.4,2.8-6.2,6.2-6.2s6.2,2.8,6.2,6.2v20.7C229.9,127.6,227.1,130.3,223.7,130.3z"/>
	<path fill="none" stroke="#FFFF00" stroke-width="6" stroke-miterlimit="10" d="M178.5,149.1c-1.6,0-3.2-0.6-4.4-1.8l-14.7-14.7
		c-2.4-2.4-2.4-6.4,0-8.8s6.4-2.4,8.8,0l14.7,14.7c2.4,2.4,2.4,6.4,0,8.8C181.7,148.4,180.1,149.1,178.5,149.1z"/>
	<path fill="none" stroke="#FFFF00" stroke-width="6" stroke-miterlimit="10" d="M159.8,194.2h-20.7c-3.4,0-6.2-2.8-6.2-6.2
		s2.8-6.2,6.2-6.2h20.7c3.4,0,6.2,2.8,6.2,6.2S163.3,194.2,159.8,194.2z"/>
	<path fill="none" stroke="#FFFF00" stroke-width="6" stroke-miterlimit="10" d="M163.9,254.1c-1.6,0-3.2-0.6-4.4-1.8
		c-2.4-2.4-2.4-6.4,0-8.8l14.7-14.7c2.4-2.4,6.4-2.4,8.8,0c2.4,2.4,2.4,6.4,0,8.8l-14.7,14.7C167.1,253.5,165.5,254.1,163.9,254.1z"
		/>
	<path fill="none" stroke="#FFFF00" stroke-width="6" stroke-miterlimit="10" d="M223.7,278.8c-3.4,0-6.2-2.8-6.2-6.2v-20.7
		c0-3.4,2.8-6.2,6.2-6.2s6.2,2.8,6.2,6.2v20.7C229.9,276.1,227.1,278.8,223.7,278.8z"/>
	<path fill="none" stroke="#FFFF00" stroke-width="6" stroke-miterlimit="10" d="M283.5,254.1c-1.6,0-3.2-0.6-4.4-1.8l-14.7-14.7
		c-2.4-2.4-2.4-6.4,0-8.8c2.4-2.4,6.4-2.4,8.8,0l14.7,14.7c2.4,2.4,2.4,6.4,0,8.8C286.7,253.5,285.1,254.1,283.5,254.1z"/>
	<path fill="none" stroke="#FFFF00" stroke-width="6" stroke-miterlimit="10" d="M308.3,194.2h-20.7c-3.4,0-6.2-2.8-6.2-6.2
		s2.8-6.2,6.2-6.2h20.7c3.4,0,6.2,2.8,6.2,6.2S311.8,194.2,308.3,194.2z"/>
	<path fill="none" stroke="#FFFF00" stroke-width="6" stroke-miterlimit="10" d="M268.9,149.1c-1.6,0-3.2-0.6-4.4-1.8
		c-2.4-2.4-2.4-6.4,0-8.8l14.7-14.7c2.4-2.4,6.4-2.4,8.8,0s2.4,6.4,0,8.8l-14.7,14.7C272.1,148.4,270.5,149.1,268.9,149.1z"/>
</g>
</svg>
