<?xml version="1.0" encoding="utf-8"?>
<!-- Generator: Adobe Illustrator 18.0.0, SVG Export Plug-In . SVG Version: 6.00 Build 0)  -->
<!DOCTYPE svg PUBLIC "-//W3C//DTD SVG 1.1 Tiny//EN" "http://www.w3.org/Graphics/SVG/1.1/DTD/svg11-tiny.dtd">
<svg version="1.1" baseProfile="tiny" id="Layer_1" xmlns="http://www.w3.org/2000/svg" xmlns:xlink="http://www.w3.org/1999/xlink"
	 x="0px" y="0px" width="640px" height="1136px" viewBox="0 0 640 1136" xml:space="preserve">
<g>
	<path fill="none" stroke="#FFFFFF" stroke-width="7" stroke-linecap="round" stroke-linejoin="round" stroke-miterlimit="10" d="
		M195.4,201.8H178v99.7c0,5.8-4.4,8.6-8.8,8.6s-8.8-2.9-8.8-8.6v-99.7h-17.4c-5.8,0-8.8-4.3-8.8-8.5c0-4.3,2.9-8.6,8.8-8.6h52.3
		c5.8,0,8.8,4.3,8.8,8.6C204.2,197.5,201.2,201.8,195.4,201.8z"/>
	<path fill="none" stroke="#FFFFFF" stroke-width="7" stroke-linecap="round" stroke-linejoin="round" stroke-miterlimit="10" d="
		M254.1,310.1h-1.8c-19.6,0-35.6-15.8-35.6-35.1v-82.8c0-5.8,4.4-8.6,8.8-8.6s8.8,2.9,8.8,8.6V275c0,9.7,8.2,17.8,18.3,17.8h1.6
		c9.9,0,18.1-8.1,18.1-17.8v-82.8c0-5.8,4.4-8.6,8.8-8.6c4.4,0,8.8,2.9,8.8,8.6V275C289.7,294.3,273.8,310.1,254.1,310.1z"/>
	<path fill="none" stroke="#FFFFFF" stroke-width="7" stroke-linecap="round" stroke-linejoin="round" stroke-miterlimit="10" d="
		M364.8,254.7l20.8,43c0.5,1.3,0.9,2.5,0.9,3.8c0,4.7-3.8,8.6-9.3,8.6c-2.9,0-5.8-1.4-7.5-4.9l-23.6-49h-14.8v45.2
		c0,5.8-4.2,8.6-8.6,8.6c-4.6,0-9-2.9-9-8.6V193.3c0-4.5,4.2-8.6,8.8-8.6h29.8c19.7,0,35.6,15.7,35.6,35.1v1.6
		C388,236.9,378.7,249.8,364.8,254.7z M370.5,219.8c0-9.9-7.7-18-17.5-18h-21.6v37.4h21.8c9.9,0,17.4-8.1,17.4-17.8V219.8z"/>
	<path fill="none" stroke="#FFFFFF" stroke-width="7" stroke-linecap="round" stroke-linejoin="round" stroke-miterlimit="10" d="
		M470.3,310.1h-2c-2.4,0-6.9-0.7-9.9-7.4l-34.9-77.6v76.3c0,5.8-4.2,8.6-8.6,8.6c-4.4,0-9-2.9-9-8.6V192.6c0-4.7,3.5-9,9.3-9h2
		c2.2,0,6.6,0,9.3,6.3l34.9,77.6v-75.2c0-5.8,4.2-8.6,8.6-8.6c4.4,0,9,2.9,9,8.6v109.3C479.1,306,475,310.1,470.3,310.1z"/>
	<path fill="none" stroke="#FFFFFF" stroke-width="7" stroke-linecap="round" stroke-linejoin="round" stroke-miterlimit="10" d="
		M207.8,354.4l-27.6,65.3v40.5c0,5.8-4.4,8.6-8.8,8.6s-8.8-2.9-8.8-8.6v-40.5l-27.6-65.3c-0.5-1.1-0.7-2.3-0.7-3.4
		c0-4.7,3.7-8.6,9.1-8.6c3.1,0,6.2,1.6,7.9,5.4l20.1,47.7l20.1-47.7c1.6-3.8,4.8-5.4,7.9-5.4c5.5,0,9.1,4,9.1,8.6
		C208.5,352,208.2,353.3,207.8,354.4z"/>
	<path fill="none" stroke="#FFFFFF" stroke-width="7" stroke-linecap="round" stroke-linejoin="round" stroke-miterlimit="10" d="
		M260.1,468.9h-1.8c-19.6,0-35.6-15.1-35.6-34.6v-57.6c0-19.4,16.1-34.4,35.8-34.4h1.6c19.7,0,35.6,14.9,35.6,34.4v57.6
		C295.7,453.7,279.8,468.9,260.1,468.9z M278.2,376.7c0-9.9-8.2-17.3-18.1-17.3h-1.8c-9.9,0-18.1,7.6-18.1,17.3v57.6
		c0,9.9,8.2,17.5,18.1,17.5h1.8c9.9,0,18.1-7.6,18.1-17.5V376.7z"/>
	<path fill="none" stroke="#FFFFFF" stroke-width="7" stroke-linecap="round" stroke-linejoin="round" stroke-miterlimit="10" d="
		M355.1,468.9h-1.8c-19.6,0-35.6-15.8-35.6-35.1V351c0-5.8,4.4-8.6,8.8-8.6s8.8,2.9,8.8,8.6v82.8c0,9.7,8.2,17.8,18.3,17.8h1.6
		c9.9,0,18.1-8.1,18.1-17.8V351c0-5.8,4.4-8.6,8.8-8.6c4.4,0,8.8,2.9,8.8,8.6v82.8C390.8,453,374.9,468.9,355.1,468.9z"/>
	<path fill="none" stroke="#FFFFFF" stroke-width="7" stroke-linecap="round" stroke-linejoin="round" stroke-miterlimit="10" d="
		M465.9,413.4l20.8,43c0.5,1.3,0.9,2.5,0.9,3.8c0,4.7-3.8,8.6-9.3,8.6c-2.9,0-5.8-1.4-7.5-4.9l-23.6-49h-14.8v45.2
		c0,5.8-4.2,8.6-8.6,8.6c-4.6,0-9-2.9-9-8.6V352c0-4.5,4.2-8.6,8.8-8.6h29.8c19.7,0,35.6,15.7,35.6,35.1v1.6
		C489.1,395.6,479.8,408.6,465.9,413.4z M471.6,378.5c0-9.9-7.7-18-17.5-18h-21.6v37.4h21.8c9.9,0,17.4-8.1,17.4-17.8V378.5z"/>
	<path fill="none" stroke="#FFFFFF" stroke-width="7" stroke-linecap="round" stroke-linejoin="round" stroke-miterlimit="10" d="
		M107.2,572.1H86.4v46.8c0,5.8-4.4,8.6-8.8,8.6s-8.8-2.9-8.8-8.6V510.8c0-4.5,4-8.6,8.8-8.6h29.6c19.7,0,34.4,15.5,34.4,34.9
		C141.6,556.5,126.9,572.1,107.2,572.1z M107.2,519.2H86.4V555h20.8c10.1,0,16.8-8.1,16.8-18C124,527.3,117.2,519.2,107.2,519.2z"/>
	<path fill="none" stroke="#FFFFFF" stroke-width="7" stroke-linecap="round" stroke-linejoin="round" stroke-miterlimit="10" d="
		M220,627.6c-4.6,0-8.8-2.9-8.8-8.6v-47.9h-38v47.9c0,5.8-4.4,8.6-8.8,8.6s-8.8-2.9-8.8-8.6V509.7c0-5.8,4.4-8.6,8.8-8.6
		s8.8,2.9,8.8,8.6V554h38v-44.3c0-5.8,4.4-8.6,8.8-8.6c4.4,0,8.8,2.9,8.8,8.6v109.3C228.7,624.7,224.4,627.6,220,627.6z"/>
	<path fill="none" stroke="#FFFFFF" stroke-width="7" stroke-linecap="round" stroke-linejoin="round" stroke-miterlimit="10" d="
		M288,627.6h-1.8c-19.6,0-35.6-15.1-35.6-34.6v-57.6c0-19.4,16.1-34.4,35.8-34.4h1.6c19.7,0,35.6,14.9,35.6,34.4V593
		C323.6,612.5,307.7,627.6,288,627.6z M306.1,535.4c0-9.9-8.2-17.3-18.1-17.3h-1.8c-9.9,0-18.1,7.6-18.1,17.3V593
		c0,9.9,8.2,17.5,18.1,17.5h1.8c9.9,0,18.1-7.6,18.1-17.5V535.4z"/>
	<path fill="none" stroke="#FFFFFF" stroke-width="7" stroke-linecap="round" stroke-linejoin="round" stroke-miterlimit="10" d="
		M409.9,627.6h-2c-2.4,0-6.9-0.7-9.9-7.4l-34.9-77.6v76.3c0,5.8-4.2,8.6-8.6,8.6c-4.4,0-9-2.9-9-8.6V510c0-4.7,3.5-9,9.3-9h2
		c2.2,0,6.6,0,9.3,6.3l34.9,77.6v-75.2c0-5.8,4.2-8.6,8.6-8.6c4.4,0,9,2.9,9,8.6v109.3C418.6,623.4,414.6,627.6,409.9,627.6z"/>
	<path fill="none" stroke="#FFFFFF" stroke-width="7" stroke-linecap="round" stroke-linejoin="round" stroke-miterlimit="10" d="
		M507.1,626.5h-55.6c-4.6,0-8.8-4.1-8.8-8.6V510.8c0-4.5,4.2-8.6,8.8-8.6h55.6c5.8,0,8.8,4.3,8.8,8.6c0,4.1-2.9,8.5-8.8,8.5h-46.8
		V554h31.8c5.8,0,8.8,4.1,8.8,8.5c0,4.3-2.9,8.6-8.8,8.6h-31.8v38.3h46.8c5.8,0,8.8,4.3,8.8,8.6C515.9,622.2,513,626.5,507.1,626.5z
		"/>
	<path fill="none" stroke="#FFFFFF" stroke-width="7" stroke-linecap="round" stroke-linejoin="round" stroke-miterlimit="10" d="
		M165.8,786.3h-1.8c-19.2,0-35.6-13.1-35.6-35.1c0-5.8,4.4-8.6,8.8-8.6c4.4,0,8.8,2.9,8.8,8.6c0,11.3,7.7,18,18.1,18h1.8
		c10.6,0,18.8-5.9,18.8-16.4c0-25.2-55.2-25.2-55.2-58v-3.2c0-19.4,17.9-31.9,34.7-31.9h1.6c17.4,0,33.3,9.2,34.5,27.5
		c0,0.4,0,0.7,0,1.1c0,4.9-3.5,8.1-8.4,8.1c-5.1,0-8-3.1-9.1-7.9c-1.8-9.7-7.5-11.7-17-11.7h-1.6c-7.9,0-17.2,5-17.2,13.9v3.6
		c0,17.3,55.2,21.2,55.2,58.5C202.1,773,186.2,786.3,165.8,786.3z"/>
	<path fill="none" stroke="#FFFFFF" stroke-width="7" stroke-linecap="round" stroke-linejoin="round" stroke-miterlimit="10" d="
		M230.7,786.3c-4.4,0-8.8-2.9-8.8-8.6V668.4c0-5.8,4.4-8.6,8.8-8.6s8.8,2.9,8.8,8.6v109.3C239.4,783.4,235,786.3,230.7,786.3z"/>
	<path fill="none" stroke="#FFFFFF" stroke-width="7" stroke-linecap="round" stroke-linejoin="round" stroke-miterlimit="10" d="
		M302.5,785.2h-28.7c-4.6,0-8.8-4.1-8.8-8.6V669.5c0-4.5,4.2-8.6,8.8-8.6h28.7c19.7,0,35.6,14,35.6,35.1v54.2
		C338.1,771.2,322.2,785.2,302.5,785.2z M320.6,695.9c0-9.9-8.2-18-18.1-18h-19.9v90.2h19.9c9.9,0,18.1-8.3,18.1-18V695.9z"/>
	<path fill="none" stroke="#FFFFFF" stroke-width="7" stroke-linecap="round" stroke-linejoin="round" stroke-miterlimit="10" d="
		M424.4,785.2h-55.6c-4.6,0-8.8-4.1-8.8-8.6V669.5c0-4.5,4.2-8.6,8.8-8.6h55.6c5.8,0,8.8,4.3,8.8,8.6c0,4.1-2.9,8.5-8.8,8.5h-46.8
		v34.7h31.8c5.8,0,8.8,4.1,8.8,8.5c0,4.3-2.9,8.6-8.8,8.6h-31.8v38.3h46.8c5.8,0,8.8,4.3,8.8,8.6
		C433.2,780.9,430.3,785.2,424.4,785.2z"/>
	<path fill="none" stroke="#FFFFFF" stroke-width="7" stroke-linecap="round" stroke-linejoin="round" stroke-miterlimit="10" d="
		M488.7,745.8H450c-5.8,0-8.8-4.3-8.8-8.6c0-4.1,2.9-8.5,8.8-8.5h38.8c5.8,0,8.6,4.3,8.6,8.5C497.3,741.5,494.6,745.8,488.7,745.8z"
		/>
	<path fill="none" stroke="#FFFFFF" stroke-width="7" stroke-linecap="round" stroke-linejoin="round" stroke-miterlimit="10" d="
		M225.7,828.9l-23.6,108.7c-1.1,5-5.7,7.4-10.2,7.4c-4.8,0-9.3-2.5-10.4-7.2l-19-80.8l-19,80.8c-1.1,4.9-5.7,7.2-10.2,7.2
		s-9.3-2.5-10.4-7.4L99.2,828.9c-0.2-0.7-0.2-1.3-0.2-2c0-4.9,3.8-8.5,9-8.5c3.8,0,7.3,2.2,8.4,6.8l17.2,78.7l19-78.3
		c1.1-4.9,5.5-7.2,9.9-7.2c4.4,0,8.6,2.3,9.9,7.2l19,78.3l17.2-78.7c0.9-4.7,4.6-6.8,8.4-6.8c5.1,0,9,3.6,9,8.5
		C225.9,827.7,225.9,828.2,225.7,828.9z"/>
	<path fill="none" stroke="#FFFFFF" stroke-width="7" stroke-linecap="round" stroke-linejoin="round" stroke-miterlimit="10" d="
		M308,945c-3.5,0-6.9-2-8.4-6.3l-7.5-23.8h-40.6l-7.3,23.8c-1.3,4.3-5.1,6.3-8.6,6.3c-5.3,0-9-3.6-9-8.1c0-0.9,0.2-2,0.4-2.9
		l34.7-108.7c1.5-4.5,5.8-6.8,10.1-6.8c4.4,0,8.6,2.2,10.1,6.8L316.6,934c0.2,0.9,0.4,2,0.4,2.7C316.9,941.4,313.3,945,308,945z
		 M271.8,850.2L257,897.9h29.6L271.8,850.2z"/>
	<path fill="none" stroke="#FFFFFF" stroke-width="7" stroke-linecap="round" stroke-linejoin="round" stroke-miterlimit="10" d="
		M397.7,830.5l-27.6,65.3v40.5c0,5.8-4.4,8.6-8.8,8.6s-8.8-2.9-8.8-8.6v-40.5L325,830.5c-0.5-1.1-0.7-2.3-0.7-3.4
		c0-4.7,3.7-8.6,9.1-8.6c3.1,0,6.2,1.6,7.9,5.4l20.1,47.7l20.1-47.7c1.6-3.8,4.8-5.4,7.9-5.4c5.5,0,9.1,4,9.1,8.6
		C398.5,828.2,398.1,829.5,397.7,830.5z"/>
	<path fill="none" stroke="#FFFFFF" stroke-width="7" stroke-linecap="round" stroke-linejoin="round" stroke-miterlimit="10" d="
		M446.2,945h-1.8c-19.2,0-35.6-13.1-35.6-35.1c0-5.8,4.4-8.6,8.8-8.6c4.4,0,8.8,2.9,8.8,8.6c0,11.3,7.7,18,18.1,18h1.8
		c10.6,0,18.8-5.9,18.8-16.4c0-25.2-55.2-25.2-55.2-58v-3.2c0-19.4,17.9-31.9,34.7-31.9h1.6c17.4,0,33.3,9.2,34.5,27.5
		c0,0.4,0,0.7,0,1.1c0,4.9-3.5,8.1-8.4,8.1c-5.1,0-8-3.1-9.1-7.9c-1.8-9.7-7.5-11.7-17-11.7h-1.6c-7.9,0-17.2,5-17.2,13.9v3.6
		c0,17.3,55.2,21.2,55.2,58.5C482.5,931.7,466.6,945,446.2,945z"/>
	<path fill="none" stroke="#FFFFFF" stroke-width="7" stroke-linecap="round" stroke-linejoin="round" stroke-miterlimit="10" d="
		M509.4,907.4c-4.4,0-8.8-2.7-8.8-8.6v-71.6c0-5.8,4.4-8.6,8.8-8.6s8.8,2.9,8.8,8.6v71.6C518.2,904.7,513.8,907.4,509.4,907.4z
		 M509.6,945c-4.6,0-9-2.9-9-8.6v-4c0-5.8,4.4-8.6,8.8-8.6s8.8,2.9,8.8,8.6v4C518.2,942.1,514,945,509.6,945z"/>
</g>
<g>
	<g>
		<path fill="#FFFF00" d="M320.8,133c-1.9,0-3.5-1.6-3.5-3.5s1.6-3.5,3.5-3.5c24,0,43.6-19.6,43.6-43.6s-19.6-43.6-43.6-43.6
			s-43.6,19.6-43.6,43.6c0,1.9-1.6,3.5-3.5,3.5s-3.5-1.6-3.5-3.5c0-27.9,22.7-50.6,50.6-50.6c27.9,0,50.6,22.7,50.6,50.6
			S348.7,133,320.8,133z"/>
	</g>
	<g>
		<path fill="#FFFF00" d="M273.7,91.9c-0.9,0-1.8-0.3-2.5-1l-20.4-20.4c-1.4-1.4-1.4-3.6,0-5c1.4-1.4,3.6-1.4,5,0l18,18l18-18
			c1.4-1.4,3.6-1.4,5,0c1.4,1.4,1.4,3.6,0,5l-20.4,20.4C275.5,91.6,274.6,91.9,273.7,91.9z"/>
	</g>
</g>
<g>
	<g>
		<path fill="#00FFFF" d="M302.2,1089.8c-27.9,0-50.6-22.7-50.6-50.6c0-27.9,22.7-50.6,50.6-50.6c1.9,0,3.5,1.6,3.5,3.5
			s-1.6,3.5-3.5,3.5c-24,0-43.6,19.6-43.6,43.6s19.6,43.6,43.6,43.6s43.6-19.6,43.6-43.6c0-1.9,1.6-3.5,3.5-3.5s3.5,1.6,3.5,3.5
			C352.8,1067.1,330.1,1089.8,302.2,1089.8z"/>
	</g>
	<g>
		<path fill="#00FFFF" d="M369.8,1057.2c-0.9,0-1.8-0.3-2.5-1l-18-18l-18,18c-1.4,1.4-3.6,1.4-4.9,0c-1.4-1.4-1.4-3.6,0-4.9
			l20.4-20.4c1.4-1.4,3.6-1.4,4.9,0l20.4,20.4c1.4,1.4,1.4,3.6,0,4.9C371.5,1056.8,370.7,1057.2,369.8,1057.2z"/>
	</g>
</g>
</svg>
