<?xml version="1.0" encoding="utf-8"?>
<!-- Generator: Adobe Illustrator 18.0.0, SVG Export Plug-In . SVG Version: 6.00 Build 0)  -->
<!DOCTYPE svg PUBLIC "-//W3C//DTD SVG 1.1 Tiny//EN" "http://www.w3.org/Graphics/SVG/1.1/DTD/svg11-tiny.dtd">
<svg version="1.1" baseProfile="tiny" xmlns="http://www.w3.org/2000/svg" xmlns:xlink="http://www.w3.org/1999/xlink" x="0px"
	 y="0px" width="329.6px" height="57.6px" viewBox="0 0 329.6 57.6" xml:space="preserve">
<g id="Layer_1">
	<g>
		<path fill="#FFFFFF" d="M83.2,18.7h-3.9v22.2c0,1.3-1,1.9-2,1.9s-1.9-0.6-1.9-1.9V18.7h-3.9c-1.3,0-1.9-1-1.9-1.9
			c0-1,0.6-1.9,1.9-1.9h11.6c1.3,0,2,1,2,1.9C85.1,17.8,84.5,18.7,83.2,18.7z"/>
		<path fill="#FFFFFF" d="M103.1,42.8c-0.8,0-1.5-0.4-1.9-1.4l-1.7-5.3h-9l-1.6,5.3c-0.3,1-1.1,1.4-1.9,1.4c-1.2,0-2-0.8-2-1.8
			c0-0.2,0-0.4,0.1-0.6l7.7-24.2c0.3-1,1.3-1.5,2.2-1.5c1,0,1.9,0.5,2.2,1.5l7.7,24.2c0,0.2,0.1,0.4,0.1,0.6
			C105.1,42,104.3,42.8,103.1,42.8z M95,21.7l-3.3,10.6h6.6L95,21.7z"/>
		<path fill="#FFFFFF" d="M122.6,42.8c-0.7,0-1.3-0.3-1.7-1.1l-5.7-11.6l-2.9,4.1v6.7c0,1.3-1,1.9-1.9,1.9c-1,0-2-0.6-2-1.9V16.6
			c0-1.3,1-1.9,2-1.9c1,0,1.9,0.6,1.9,1.9v10.8l8.2-11.8c0.4-0.6,1-0.8,1.5-0.8c1.2,0,2,0.9,2,1.9c0,0.4-0.1,0.7-0.3,1.1l-6,8.7
			l6.7,13.6c0.1,0.3,0.2,0.6,0.2,0.9C124.6,41.9,123.8,42.8,122.6,42.8z"/>
		<path fill="#FFFFFF" d="M142.3,42.6h-12.3c-1,0-2-0.9-2-1.9V16.9c0-1,0.9-1.9,2-1.9h12.3c1.3,0,2,1,2,1.9c0,0.9-0.7,1.9-2,1.9
			h-10.4v7.7h7.1c1.3,0,2,0.9,2,1.9c0,1-0.7,1.9-2,1.9h-7.1v8.5h10.4c1.3,0,2,1,2,1.9C144.2,41.6,143.6,42.6,142.3,42.6z"/>
		<path fill="#FFFFFF" d="M174.5,42.8c-0.8,0-1.5-0.4-1.9-1.4l-1.7-5.3h-9l-1.6,5.3c-0.3,1-1.1,1.4-1.9,1.4c-1.2,0-2-0.8-2-1.8
			c0-0.2,0-0.4,0.1-0.6l7.7-24.2c0.3-1,1.3-1.5,2.2-1.5c1,0,1.9,0.5,2.2,1.5l7.7,24.2c0,0.2,0.1,0.4,0.1,0.6
			C176.5,42,175.7,42.8,174.5,42.8z M166.5,21.7l-3.3,10.6h6.6L166.5,21.7z"/>
		<path fill="#FFFFFF" d="M203.6,42.6h-10.9c-1.1,0-2-0.9-2-1.9v-24c0-1.3,1-1.9,2-1.9c1,0,1.9,0.6,1.9,1.9v22.2h9
			c1.3,0,1.9,1,1.9,1.9C205.6,41.6,204.9,42.6,203.6,42.6z"/>
		<path fill="#FFFFFF" d="M223.2,42.6h-12.3c-1,0-2-0.9-2-1.9V16.9c0-1,0.9-1.9,2-1.9h12.3c1.3,0,2,1,2,1.9c0,0.9-0.7,1.9-2,1.9
			h-10.4v7.7h7.1c1.3,0,2,0.9,2,1.9c0,1-0.7,1.9-2,1.9h-7.1v8.5h10.4c1.3,0,2,1,2,1.9C225.2,41.6,224.5,42.6,223.2,42.6z"/>
		<path fill="#FFFFFF" d="M242.8,18.7h-10.4v7.7h7.1c1.3,0,2,0.9,2,1.9c0,1-0.7,1.9-2,1.9h-7.1v10.6c0,1.3-1,1.9-1.9,1.9
			c-1,0-2-0.6-2-1.9v-24c0-1,0.9-1.9,2-1.9h12.3c1.3,0,2,1,2,1.9C244.8,17.8,244.1,18.7,242.8,18.7z"/>
		<path fill="#FFFFFF" d="M258,18.7h-3.9v22.2c0,1.3-1,1.9-2,1.9s-1.9-0.6-1.9-1.9V18.7h-3.9c-1.3,0-1.9-1-1.9-1.9
			c0-1,0.6-1.9,1.9-1.9H258c1.3,0,2,1,2,1.9C260,17.8,259.3,18.7,258,18.7z"/>
	</g>
</g>
<g id="Layer_2">
</g>
<g id="Layer_3">
</g>
</svg>
