<?xml version="1.0" encoding="utf-8"?>
<!-- Generator: Adobe Illustrator 18.0.0, SVG Export Plug-In . SVG Version: 6.00 Build 0)  -->
<!DOCTYPE svg PUBLIC "-//W3C//DTD SVG 1.1 Tiny//EN" "http://www.w3.org/Graphics/SVG/1.1/DTD/svg11-tiny.dtd">
<svg version="1.1" baseProfile="tiny" id="Layer_1" xmlns="http://www.w3.org/2000/svg" xmlns:xlink="http://www.w3.org/1999/xlink"
	 x="0px" y="0px" width="1136px" height="148.7px" viewBox="0 0 1136 148.7" xml:space="preserve">
<rect x="34.6" y="15.8" fill="none" stroke="#FFFFFF" stroke-width="6" stroke-linecap="round" stroke-linejoin="round" stroke-miterlimit="10" width="1066.9" height="117"/>
<polygon fill="none" stroke="#00FFFF" stroke-width="6" stroke-linecap="round" stroke-linejoin="round" stroke-miterlimit="10" points="
	400.6,69.8 439.9,30.6 479.1,69.8 479.1,118.1 439.9,78.8 400.6,118.1 "/>
<polygon fill="none" stroke="#00FFFF" stroke-width="6" stroke-linecap="round" stroke-linejoin="round" stroke-miterlimit="10" points="
	493.7,69.8 532.9,30.6 572.2,69.8 572.2,118.1 532.9,78.8 493.7,118.1 "/>
<polygon fill="none" stroke="#00FFFF" stroke-width="6" stroke-linecap="round" stroke-linejoin="round" stroke-miterlimit="10" points="
	587.2,69.8 626.4,30.6 665.6,69.8 665.6,118.1 626.4,78.8 587.2,118.1 "/>
<polygon fill="none" stroke="#00FFFF" stroke-width="6" stroke-linecap="round" stroke-linejoin="round" stroke-miterlimit="10" points="
	681.3,69.8 720.5,30.6 759.8,69.8 759.8,118.1 720.5,78.8 681.3,118.1 "/>
<polygon fill="none" stroke="#FFFF00" stroke-width="6" stroke-linecap="round" stroke-linejoin="round" stroke-miterlimit="10" points="
	250.3,113.6 211.1,74.3 250.3,35.1 298.6,35.1 259.3,74.3 298.6,113.6 "/>
<polygon fill="none" stroke="#FFFF00" stroke-width="6" stroke-linecap="round" stroke-linejoin="round" stroke-miterlimit="10" points="
	328.8,113.6 289.5,74.3 328.8,35.1 377,35.1 337.7,74.3 377,113.6 "/>
<polygon fill="none" stroke="#FFFF00" stroke-width="6" stroke-linecap="round" stroke-linejoin="round" stroke-miterlimit="10" points="
	170.9,113.6 131.6,74.3 170.9,35.1 219.1,35.1 179.9,74.3 219.1,113.6 "/>
<polygon fill="none" stroke="#FFFF00" stroke-width="6" stroke-linecap="round" stroke-linejoin="round" stroke-miterlimit="10" points="
	91.4,113.6 52.2,74.3 91.4,35.1 139.7,35.1 100.4,74.3 139.7,113.6 "/>
<polygon fill="none" stroke="#FF00FF" stroke-width="6" stroke-linecap="round" stroke-linejoin="round" stroke-miterlimit="10" points="
	900.6,113.6 939.9,74.3 900.6,35.1 852.4,35.1 891.6,74.3 852.4,113.6 "/>
<polygon fill="none" stroke="#FF00FF" stroke-width="6" stroke-linecap="round" stroke-linejoin="round" stroke-miterlimit="10" points="
	826.9,113.6 866.1,74.3 826.9,35.1 778.6,35.1 817.9,74.3 778.6,113.6 "/>
<polygon fill="none" stroke="#FF00FF" stroke-width="6" stroke-linecap="round" stroke-linejoin="round" stroke-miterlimit="10" points="
	974.4,113.6 1013.6,74.3 974.4,35.1 926.2,35.1 965.4,74.3 926.2,113.6 "/>
<polygon fill="none" stroke="#FF00FF" stroke-width="6" stroke-linecap="round" stroke-linejoin="round" stroke-miterlimit="10" points="
	1048.2,113.6 1087.4,74.3 1048.2,35.1 999.9,35.1 1039.2,74.3 999.9,113.6 "/>
</svg>
