<?xml version="1.0" encoding="utf-8"?>
<!-- Generator: Adobe Illustrator 18.0.0, SVG Export Plug-In . SVG Version: 6.00 Build 0)  -->
<!DOCTYPE svg PUBLIC "-//W3C//DTD SVG 1.1 Tiny//EN" "http://www.w3.org/Graphics/SVG/1.1/DTD/svg11-tiny.dtd">
<svg version="1.1" baseProfile="tiny" xmlns="http://www.w3.org/2000/svg" xmlns:xlink="http://www.w3.org/1999/xlink" x="0px"
	 y="0px" width="329.6px" height="57.6px" viewBox="0 0 329.6 57.6" xml:space="preserve">
<g id="Layer_1">
</g>
<g id="Layer_2">
	<g>
		<path fill="#FFFFFF" d="M75,18.7h-3.9v22.2c0,1.3-1,1.9-2,1.9s-1.9-0.6-1.9-1.9V18.7h-3.9c-1.3,0-1.9-1-1.9-1.9
			c0-1,0.6-1.9,1.9-1.9H75c1.3,0,2,1,2,1.9C76.9,17.8,76.3,18.7,75,18.7z"/>
		<path fill="#FFFFFF" d="M94.9,42.8c-0.8,0-1.5-0.4-1.9-1.4l-1.7-5.3h-9l-1.6,5.3c-0.3,1-1.1,1.4-1.9,1.4c-1.2,0-2-0.8-2-1.8
			c0-0.2,0-0.4,0.1-0.6l7.7-24.2c0.3-1,1.3-1.5,2.2-1.5c1,0,1.9,0.5,2.2,1.5l7.7,24.2c0,0.2,0.1,0.4,0.1,0.6
			C96.9,42,96.1,42.8,94.9,42.8z M86.8,21.7l-3.3,10.6h6.6L86.8,21.7z"/>
		<path fill="#FFFFFF" d="M114.4,42.8c-0.7,0-1.3-0.3-1.7-1.1L107,30.1l-2.9,4.1v6.7c0,1.3-1,1.9-1.9,1.9c-1,0-2-0.6-2-1.9V16.6
			c0-1.3,1-1.9,2-1.9c1,0,1.9,0.6,1.9,1.9v10.8l8.2-11.8c0.4-0.6,1-0.8,1.5-0.8c1.2,0,2,0.9,2,1.9c0,0.4-0.1,0.7-0.3,1.1l-6,8.7
			l6.7,13.6c0.1,0.3,0.2,0.6,0.2,0.9C116.4,41.9,115.6,42.8,114.4,42.8z"/>
		<path fill="#FFFFFF" d="M134.1,42.6h-12.3c-1,0-2-0.9-2-1.9V16.9c0-1,0.9-1.9,2-1.9h12.3c1.3,0,2,1,2,1.9c0,0.9-0.7,1.9-2,1.9
			h-10.4v7.7h7.1c1.3,0,2,0.9,2,1.9c0,1-0.7,1.9-2,1.9h-7.1v8.5h10.4c1.3,0,2,1,2,1.9C136,41.6,135.4,42.6,134.1,42.6z"/>
		<path fill="#FFFFFF" d="M166.3,42.8c-0.8,0-1.5-0.4-1.9-1.4l-1.7-5.3h-9l-1.6,5.3c-0.3,1-1.1,1.4-1.9,1.4c-1.2,0-2-0.8-2-1.8
			c0-0.2,0-0.4,0.1-0.6l7.7-24.2c0.3-1,1.3-1.5,2.2-1.5c1,0,1.9,0.5,2.2,1.5l7.7,24.2c0,0.2,0.1,0.4,0.1,0.6
			C168.3,42,167.5,42.8,166.3,42.8z M158.3,21.7L155,32.3h6.6L158.3,21.7z"/>
		<path fill="#FFFFFF" d="M193.9,30.5l4.6,9.6c0.1,0.3,0.2,0.6,0.2,0.8c0,1-0.9,1.9-2.1,1.9c-0.6,0-1.3-0.3-1.7-1.1l-5.2-10.9h-3.3
			v10c0,1.3-0.9,1.9-1.9,1.9c-1,0-2-0.6-2-1.9v-24c0-1,0.9-1.9,2-1.9h6.6c4.4,0,7.9,3.5,7.9,7.8v0.4C199.1,26.5,197,29.4,193.9,30.5
			z M195.2,22.7c0-2.2-1.7-4-3.9-4h-4.8V27h4.8c2.2,0,3.9-1.8,3.9-4V22.7z"/>
		<path fill="#FFFFFF" d="M205.4,42.8c-1,0-2-0.6-2-1.9V16.6c0-1.3,1-1.9,2-1.9s1.9,0.6,1.9,1.9v24.3
			C207.3,42.2,206.4,42.8,205.4,42.8z"/>
		<path fill="#FFFFFF" d="M220.8,42.8h-0.4c-4.4,0-7.9-3.4-7.9-7.7V22.3c0-4.3,3.6-7.6,7.9-7.6h0.4c4.2,0,7.5,2.8,7.9,6.3v0.2
			c0,1.2-0.9,1.8-1.9,1.8c-0.9,0-1.7-0.5-1.9-1.7c-0.2-1.8-2.1-2.8-4.1-2.8h-0.4c-2.2,0-4,1.7-4,3.8v12.8c0,2.2,1.8,3.9,4,3.9h0.4
			c2.2,0,4-1.8,4-4v-4.1h-3.3c-1.3,0-2-1-2-1.9s0.7-1.9,2-1.9h5.2c1.1,0,2,0.9,2,1.9v6C228.7,39.3,225.2,42.8,220.8,42.8z"/>
		<path fill="#FFFFFF" d="M247.9,42.8c-1,0-1.9-0.6-1.9-1.9V30.2h-8.4v10.6c0,1.3-1,1.9-1.9,1.9c-1,0-2-0.6-2-1.9V16.6
			c0-1.3,1-1.9,2-1.9c1,0,1.9,0.6,1.9,1.9v9.8h8.4v-9.8c0-1.3,1-1.9,1.9-1.9s2,0.6,2,1.9v24.3C249.9,42.2,248.9,42.8,247.9,42.8z"/>
		<path fill="#FFFFFF" d="M266.2,18.7h-3.9v22.2c0,1.3-1,1.9-2,1.9s-1.9-0.6-1.9-1.9V18.7h-3.9c-1.3,0-1.9-1-1.9-1.9
			c0-1,0.6-1.9,1.9-1.9h11.6c1.3,0,2,1,2,1.9C268.2,17.8,267.5,18.7,266.2,18.7z"/>
	</g>
</g>
<g id="Layer_3">
</g>
</svg>
