<?xml version="1.0" encoding="utf-8"?>
<!-- Generator: Adobe Illustrator 18.0.0, SVG Export Plug-In . SVG Version: 6.00 Build 0)  -->
<!DOCTYPE svg PUBLIC "-//W3C//DTD SVG 1.1 Tiny//EN" "http://www.w3.org/Graphics/SVG/1.1/DTD/svg11-tiny.dtd">
<svg version="1.1" baseProfile="tiny" xmlns="http://www.w3.org/2000/svg" xmlns:xlink="http://www.w3.org/1999/xlink" x="0px"
	 y="0px" width="329.6px" height="57.6px" viewBox="0 0 329.6 57.6" xml:space="preserve">
<g id="Layer_1">
</g>
<g id="Layer_2">
</g>
<g id="Layer_3">
	<g>
		<path fill="#FFFFFF" d="M44.7,42.8h-0.4c-4.3,0-7.9-2.9-7.9-7.8c0-1.3,1-1.9,1.9-1.9c1,0,2,0.6,2,1.9c0,2.5,1.7,4,4,4h0.4
			c2.4,0,4.2-1.3,4.2-3.6c0-5.6-12.3-5.6-12.3-12.9v-0.7c0-4.3,4-7.1,7.7-7.1h0.4c3.9,0,7.4,2,7.7,6.1c0,0.1,0,0.2,0,0.2
			c0,1.1-0.8,1.8-1.9,1.8c-1.1,0-1.8-0.7-2-1.8c-0.4-2.2-1.7-2.6-3.8-2.6h-0.4c-1.7,0-3.8,1.1-3.8,3.1v0.8c0,3.8,12.3,4.7,12.3,13
			C52.8,39.8,49.2,42.8,44.7,42.8z"/>
		<path fill="#FFFFFF" d="M67.8,18.7h-3.9v22.2c0,1.3-1,1.9-2,1.9S60,42.2,60,40.9V18.7h-3.9c-1.3,0-1.9-1-1.9-1.9
			c0-1,0.6-1.9,1.9-1.9h11.6c1.3,0,2,1,2,1.9C69.8,17.8,69.1,18.7,67.8,18.7z"/>
		<path fill="#FFFFFF" d="M83.8,30.5l4.6,9.6c0.1,0.3,0.2,0.6,0.2,0.8c0,1-0.9,1.9-2.1,1.9c-0.6,0-1.3-0.3-1.7-1.1l-5.2-10.9h-3.3
			v10c0,1.3-0.9,1.9-1.9,1.9c-1,0-2-0.6-2-1.9v-24c0-1,0.9-1.9,2-1.9h6.6c4.4,0,7.9,3.5,7.9,7.8v0.4C89,26.5,86.9,29.4,83.8,30.5z
			 M85.1,22.7c0-2.2-1.7-4-3.9-4h-4.8V27h4.8c2.2,0,3.9-1.8,3.9-4V22.7z"/>
		<path fill="#FFFFFF" d="M109,42.8c-0.8,0-1.5-0.4-1.9-1.4l-1.7-5.3h-9l-1.6,5.3c-0.3,1-1.1,1.4-1.9,1.4c-1.2,0-2-0.8-2-1.8
			c0-0.2,0-0.4,0.1-0.6l7.7-24.2c0.3-1,1.3-1.5,2.2-1.5c1,0,1.9,0.5,2.2,1.5l7.7,24.2c0,0.2,0.1,0.4,0.1,0.6
			C111,42,110.2,42.8,109,42.8z M100.9,21.7l-3.3,10.6h6.6L100.9,21.7z"/>
		<path fill="#FFFFFF" d="M116.6,42.8c-1,0-2-0.6-2-1.9V16.6c0-1.3,1-1.9,2-1.9s1.9,0.6,1.9,1.9v24.3
			C118.6,42.2,117.6,42.8,116.6,42.8z"/>
		<path fill="#FFFFFF" d="M132.1,42.8h-0.4c-4.4,0-7.9-3.4-7.9-7.7V22.3c0-4.3,3.6-7.6,7.9-7.6h0.4c4.2,0,7.5,2.8,7.9,6.3v0.2
			c0,1.2-0.9,1.8-1.9,1.8c-0.9,0-1.7-0.5-1.9-1.7c-0.2-1.8-2.1-2.8-4.1-2.8h-0.4c-2.2,0-4,1.7-4,3.8v12.8c0,2.2,1.8,3.9,4,3.9h0.4
			c2.2,0,4-1.8,4-4v-4.1h-3.3c-1.3,0-2-1-2-1.9s0.7-1.9,2-1.9h5.2c1.1,0,2,0.9,2,1.9v6C140,39.3,136.4,42.8,132.1,42.8z"/>
		<path fill="#FFFFFF" d="M159.2,42.8c-1,0-1.9-0.6-1.9-1.9V30.2h-8.4v10.6c0,1.3-1,1.9-1.9,1.9c-1,0-2-0.6-2-1.9V16.6
			c0-1.3,1-1.9,2-1.9c1,0,1.9,0.6,1.9,1.9v9.8h8.4v-9.8c0-1.3,1-1.9,1.9-1.9s2,0.6,2,1.9v24.3C161.1,42.2,160.1,42.8,159.2,42.8z"/>
		<path fill="#FFFFFF" d="M177.5,18.7h-3.9v22.2c0,1.3-1,1.9-2,1.9s-1.9-0.6-1.9-1.9V18.7h-3.9c-1.3,0-1.9-1-1.9-1.9
			c0-1,0.6-1.9,1.9-1.9h11.6c1.3,0,2,1,2,1.9C179.4,17.8,178.8,18.7,177.5,18.7z"/>
		<path fill="#FFFFFF" d="M209.2,42.8c-0.8,0-1.5-0.4-1.9-1.4l-1.7-5.3h-9l-1.6,5.3c-0.3,1-1.1,1.4-1.9,1.4c-1.2,0-2-0.8-2-1.8
			c0-0.2,0-0.4,0.1-0.6l7.7-24.2c0.3-1,1.3-1.5,2.2-1.5c1,0,1.9,0.5,2.2,1.5l7.7,24.2c0,0.2,0.1,0.4,0.1,0.6
			C211.1,42,210.3,42.8,209.2,42.8z M201.1,21.7l-3.3,10.6h6.6L201.1,21.7z"/>
		<path fill="#FFFFFF" d="M228.8,42.8c-1,0-1.9-0.6-1.9-1.9V30.2h-8.4v10.6c0,1.3-1,1.9-1.9,1.9c-1,0-2-0.6-2-1.9V16.6
			c0-1.3,1-1.9,2-1.9c1,0,1.9,0.6,1.9,1.9v9.8h8.4v-9.8c0-1.3,1-1.9,1.9-1.9s2,0.6,2,1.9v24.3C230.7,42.2,229.7,42.8,228.8,42.8z"/>
		<path fill="#FFFFFF" d="M250.4,42.6H238c-1,0-2-0.9-2-1.9V16.9c0-1,0.9-1.9,2-1.9h12.3c1.3,0,2,1,2,1.9c0,0.9-0.7,1.9-2,1.9H240
			v7.7h7.1c1.3,0,2,0.9,2,1.9c0,1-0.7,1.9-2,1.9H240v8.5h10.4c1.3,0,2,1,2,1.9C252.3,41.6,251.7,42.6,250.4,42.6z"/>
		<path fill="#FFFFFF" d="M271.7,42.8c-0.8,0-1.5-0.4-1.9-1.4l-1.7-5.3h-9l-1.6,5.3c-0.3,1-1.1,1.4-1.9,1.4c-1.2,0-2-0.8-2-1.8
			c0-0.2,0-0.4,0.1-0.6l7.7-24.2c0.3-1,1.3-1.5,2.2-1.5c1,0,1.9,0.5,2.2,1.5l7.7,24.2c0,0.2,0.1,0.4,0.1,0.6
			C273.6,42,272.8,42.8,271.7,42.8z M263.6,21.7l-3.3,10.6h6.6L263.6,21.7z"/>
		<path fill="#FFFFFF" d="M285.3,42.6h-6.4c-1,0-2-0.9-2-1.9V16.9c0-1,0.9-1.9,2-1.9h6.4c4.4,0,7.9,3.1,7.9,7.8v12
			C293.2,39.4,289.7,42.6,285.3,42.6z M289.3,22.7c0-2.2-1.8-4-4-4h-4.4v20h4.4c2.2,0,4-1.8,4-4V22.7z"/>
	</g>
</g>
</svg>
