<?xml version="1.0" encoding="utf-8"?>
<!-- Generator: Adobe Illustrator 18.0.0, SVG Export Plug-In . SVG Version: 6.00 Build 0)  -->
<!DOCTYPE svg PUBLIC "-//W3C//DTD SVG 1.1 Tiny//EN" "http://www.w3.org/Graphics/SVG/1.1/DTD/svg11-tiny.dtd">
<svg version="1.1" baseProfile="tiny" id="Layer_4" xmlns="http://www.w3.org/2000/svg" xmlns:xlink="http://www.w3.org/1999/xlink"
	 x="0px" y="0px" width="332.7px" height="313.7px" viewBox="0 0 332.7 313.7" xml:space="preserve">
<g>
	<path fill="#FFFFFF" d="M85,276.5h-3.9v22.2c0,1.3-1,1.9-2,1.9s-1.9-0.6-1.9-1.9v-22.2h-3.9c-1.3,0-1.9-1-1.9-1.9
		c0-1,0.6-1.9,1.9-1.9H85c1.3,0,2,1,2,1.9C86.9,275.6,86.3,276.5,85,276.5z"/>
	<path fill="#FFFFFF" d="M104.9,300.6c-0.8,0-1.5-0.4-1.9-1.4l-1.7-5.3h-9l-1.6,5.3c-0.3,1-1.1,1.4-1.9,1.4c-1.2,0-2-0.8-2-1.8
		c0-0.2,0-0.4,0.1-0.6l7.7-24.2c0.3-1,1.3-1.5,2.2-1.5c1,0,1.9,0.5,2.2,1.5l7.7,24.2c0,0.2,0.1,0.4,0.1,0.6
		C106.9,299.8,106.1,300.6,104.9,300.6z M96.8,279.5l-3.3,10.6h6.6L96.8,279.5z"/>
	<path fill="#FFFFFF" d="M124.4,300.6c-0.7,0-1.3-0.3-1.7-1.1l-5.7-11.6l-2.9,4.1v6.7c0,1.3-1,1.9-1.9,1.9c-1,0-2-0.6-2-1.9v-24.3
		c0-1.3,1-1.9,2-1.9c1,0,1.9,0.6,1.9,1.9v10.8l8.2-11.8c0.4-0.6,1-0.8,1.5-0.8c1.2,0,2,0.9,2,1.9c0,0.4-0.1,0.7-0.3,1.1l-6,8.7
		l6.7,13.6c0.1,0.3,0.2,0.6,0.2,0.9C126.4,299.7,125.6,300.6,124.4,300.6z"/>
	<path fill="#FFFFFF" d="M144.1,300.4h-12.3c-1,0-2-0.9-2-1.9v-23.8c0-1,0.9-1.9,2-1.9h12.3c1.3,0,2,1,2,1.9c0,0.9-0.7,1.9-2,1.9
		h-10.4v7.7h7.1c1.3,0,2,0.9,2,1.9s-0.7,1.9-2,1.9h-7.1v8.5h10.4c1.3,0,2,1,2,1.9C146,299.4,145.4,300.4,144.1,300.4z"/>
	<path fill="#FFFFFF" d="M176.3,300.6c-0.8,0-1.5-0.4-1.9-1.4l-1.7-5.3h-9l-1.6,5.3c-0.3,1-1.1,1.4-1.9,1.4c-1.2,0-2-0.8-2-1.8
		c0-0.2,0-0.4,0.1-0.6L166,274c0.3-1,1.3-1.5,2.2-1.5c1,0,1.9,0.5,2.2,1.5l7.7,24.2c0,0.2,0.1,0.4,0.1,0.6
		C178.3,299.8,177.5,300.6,176.3,300.6z M168.3,279.5l-3.3,10.6h6.6L168.3,279.5z"/>
	<path fill="#FFFFFF" d="M205.4,300.4h-10.9c-1.1,0-2-0.9-2-1.9v-24c0-1.3,1-1.9,2-1.9c1,0,1.9,0.6,1.9,1.9v22.2h9
		c1.3,0,1.9,1,1.9,1.9C207.4,299.4,206.7,300.4,205.4,300.4z"/>
	<path fill="#FFFFFF" d="M225,300.4h-12.3c-1,0-2-0.9-2-1.9v-23.8c0-1,0.9-1.9,2-1.9H225c1.3,0,2,1,2,1.9c0,0.9-0.7,1.9-2,1.9h-10.4
		v7.7h7.1c1.3,0,2,0.9,2,1.9s-0.7,1.9-2,1.9h-7.1v8.5H225c1.3,0,2,1,2,1.9C227,299.4,226.3,300.4,225,300.4z"/>
	<path fill="#FFFFFF" d="M244.6,276.5h-10.4v7.7h7.1c1.3,0,2,0.9,2,1.9s-0.7,1.9-2,1.9h-7.1v10.6c0,1.3-1,1.9-1.9,1.9
		c-1,0-2-0.6-2-1.9v-24c0-1,0.9-1.9,2-1.9h12.3c1.3,0,2,1,2,1.9C246.6,275.6,245.9,276.5,244.6,276.5z"/>
	<path fill="#FFFFFF" d="M259.8,276.5H256v22.2c0,1.3-1,1.9-2,1.9s-1.9-0.6-1.9-1.9v-22.2h-3.9c-1.3,0-1.9-1-1.9-1.9
		c0-1,0.6-1.9,1.9-1.9h11.6c1.3,0,2,1,2,1.9C261.8,275.6,261.1,276.5,259.8,276.5z"/>
</g>
</svg>
