<?xml version="1.0" encoding="utf-8"?>
<!-- Generator: Adobe Illustrator 18.0.0, SVG Export Plug-In . SVG Version: 6.00 Build 0)  -->
<!DOCTYPE svg PUBLIC "-//W3C//DTD SVG 1.1 Tiny//EN" "http://www.w3.org/Graphics/SVG/1.1/DTD/svg11-tiny.dtd">
<svg version="1.1" baseProfile="tiny" id="Layer_5" xmlns="http://www.w3.org/2000/svg" xmlns:xlink="http://www.w3.org/1999/xlink"
	 x="0px" y="0px" width="332.7px" height="313.7px" viewBox="0 0 332.7 313.7" xml:space="preserve">
<g>
	<g>
		<path fill="#FFFFFF" d="M46.2,300.6h-0.4c-4.3,0-7.9-2.9-7.9-7.8c0-1.3,1-1.9,1.9-1.9c1,0,2,0.6,2,1.9c0,2.5,1.7,4,4,4h0.4
			c2.4,0,4.2-1.3,4.2-3.6c0-5.6-12.3-5.6-12.3-12.9v-0.7c0-4.3,4-7.1,7.7-7.1h0.4c3.9,0,7.4,2,7.7,6.1c0,0.1,0,0.2,0,0.2
			c0,1.1-0.8,1.8-1.9,1.8c-1.1,0-1.8-0.7-2-1.8c-0.4-2.2-1.7-2.6-3.8-2.6h-0.4c-1.7,0-3.8,1.1-3.8,3.1v0.8c0,3.8,12.3,4.7,12.3,13
			C54.3,297.7,50.7,300.6,46.2,300.6z"/>
		<path fill="#FFFFFF" d="M69.3,276.5h-3.9v22.2c0,1.3-1,1.9-2,1.9c-1,0-1.9-0.6-1.9-1.9v-22.2h-3.9c-1.3,0-1.9-1-1.9-1.9
			c0-1,0.6-1.9,1.9-1.9h11.6c1.3,0,2,1,2,1.9C71.3,275.6,70.6,276.5,69.3,276.5z"/>
		<path fill="#FFFFFF" d="M85.3,288.3l4.6,9.6c0.1,0.3,0.2,0.6,0.2,0.8c0,1-0.9,1.9-2.1,1.9c-0.6,0-1.3-0.3-1.7-1.1l-5.2-10.9h-3.3
			v10c0,1.3-0.9,1.9-1.9,1.9c-1,0-2-0.6-2-1.9v-24c0-1,0.9-1.9,2-1.9h6.6c4.4,0,7.9,3.5,7.9,7.8v0.4
			C90.5,284.3,88.4,287.2,85.3,288.3z M86.6,280.5c0-2.2-1.7-4-3.9-4h-4.8v8.3h4.8c2.2,0,3.9-1.8,3.9-4V280.5z"/>
		<path fill="#FFFFFF" d="M110.5,300.6c-0.8,0-1.5-0.4-1.9-1.4l-1.7-5.3h-9l-1.6,5.3c-0.3,1-1.1,1.4-1.9,1.4c-1.2,0-2-0.8-2-1.8
			c0-0.2,0-0.4,0.1-0.6l7.7-24.2c0.3-1,1.3-1.5,2.2-1.5c1,0,1.9,0.5,2.2,1.5l7.7,24.2c0,0.2,0.1,0.4,0.1,0.6
			C112.5,299.8,111.7,300.6,110.5,300.6z M102.4,279.5l-3.3,10.6h6.6L102.4,279.5z"/>
		<path fill="#FFFFFF" d="M118.1,300.6c-1,0-2-0.6-2-1.9v-24.3c0-1.3,1-1.9,2-1.9s1.9,0.6,1.9,1.9v24.3
			C120.1,300,119.1,300.6,118.1,300.6z"/>
		<path fill="#FFFFFF" d="M133.6,300.6h-0.4c-4.4,0-7.9-3.4-7.9-7.7v-12.8c0-4.3,3.6-7.6,7.9-7.6h0.4c4.2,0,7.5,2.8,7.9,6.3v0.2
			c0,1.2-0.9,1.8-1.9,1.8c-0.9,0-1.7-0.5-1.9-1.7c-0.2-1.8-2.1-2.8-4.1-2.8h-0.4c-2.2,0-4,1.7-4,3.8v12.8c0,2.2,1.8,3.9,4,3.9h0.4
			c2.2,0,4-1.8,4-4v-4.1h-3.3c-1.3,0-2-1-2-1.9c0-1,0.7-1.9,2-1.9h5.2c1.1,0,2,0.9,2,1.9v6C141.5,297.1,137.9,300.6,133.6,300.6z"/>
		<path fill="#FFFFFF" d="M160.6,300.6c-1,0-1.9-0.6-1.9-1.9v-10.6h-8.4v10.6c0,1.3-1,1.9-1.9,1.9c-1,0-2-0.6-2-1.9v-24.3
			c0-1.3,1-1.9,2-1.9c1,0,1.9,0.6,1.9,1.9v9.8h8.4v-9.8c0-1.3,1-1.9,1.9-1.9s2,0.6,2,1.9v24.3C162.6,300,161.6,300.6,160.6,300.6z"
			/>
		<path fill="#FFFFFF" d="M179,276.5h-3.9v22.2c0,1.3-1,1.9-2,1.9s-1.9-0.6-1.9-1.9v-22.2h-3.9c-1.3,0-1.9-1-1.9-1.9
			c0-1,0.6-1.9,1.9-1.9H179c1.3,0,2,1,2,1.9C180.9,275.6,180.3,276.5,179,276.5z"/>
		<path fill="#FFFFFF" d="M210.6,300.6c-0.8,0-1.5-0.4-1.9-1.4l-1.7-5.3h-9l-1.6,5.3c-0.3,1-1.1,1.4-1.9,1.4c-1.2,0-2-0.8-2-1.8
			c0-0.2,0-0.4,0.1-0.6l7.7-24.2c0.3-1,1.3-1.5,2.2-1.5c1,0,1.9,0.5,2.2,1.5l7.7,24.2c0,0.2,0.1,0.4,0.1,0.6
			C212.6,299.8,211.8,300.6,210.6,300.6z M202.6,279.5l-3.3,10.6h6.6L202.6,279.5z"/>
		<path fill="#FFFFFF" d="M230.3,300.6c-1,0-1.9-0.6-1.9-1.9v-10.6h-8.4v10.6c0,1.3-1,1.9-1.9,1.9c-1,0-2-0.6-2-1.9v-24.3
			c0-1.3,1-1.9,2-1.9c1,0,1.9,0.6,1.9,1.9v9.8h8.4v-9.8c0-1.3,1-1.9,1.9-1.9s2,0.6,2,1.9v24.3C232.2,300,231.2,300.6,230.3,300.6z"
			/>
		<path fill="#FFFFFF" d="M251.9,300.4h-12.3c-1,0-2-0.9-2-1.9v-23.8c0-1,0.9-1.9,2-1.9h12.3c1.3,0,2,1,2,1.9c0,0.9-0.7,1.9-2,1.9
			h-10.4v7.7h7.1c1.3,0,2,0.9,2,1.9s-0.7,1.9-2,1.9h-7.1v8.5h10.4c1.3,0,2,1,2,1.9C253.8,299.4,253.2,300.4,251.9,300.4z"/>
		<path fill="#FFFFFF" d="M273.2,300.6c-0.8,0-1.5-0.4-1.9-1.4l-1.7-5.3h-9l-1.6,5.3c-0.3,1-1.1,1.4-1.9,1.4c-1.2,0-2-0.8-2-1.8
			c0-0.2,0-0.4,0.1-0.6l7.7-24.2c0.3-1,1.3-1.5,2.2-1.5c1,0,1.9,0.5,2.2,1.5l7.7,24.2c0,0.2,0.1,0.4,0.1,0.6
			C275.1,299.8,274.3,300.6,273.2,300.6z M265.1,279.5l-3.3,10.6h6.6L265.1,279.5z"/>
		<path fill="#FFFFFF" d="M286.8,300.4h-6.4c-1,0-2-0.9-2-1.9v-23.8c0-1,0.9-1.9,2-1.9h6.4c4.4,0,7.9,3.1,7.9,7.8v12
			C294.7,297.3,291.2,300.4,286.8,300.4z M290.8,280.5c0-2.2-1.8-4-4-4h-4.4v20h4.4c2.2,0,4-1.8,4-4V280.5z"/>
	</g>
</g>
</svg>
